<?xml version="1.0" encoding="UTF-8"?>
<svg width="16px" height="14px" viewBox="0 0 16 14" version="1.1" xmlns="http://www.w3.org/2000/svg" xmlns:xlink="http://www.w3.org/1999/xlink">
    <!-- Generator: Sketch 48.1 (47250) - http://www.bohemiancoding.com/sketch -->
    <title>Icon/Advertisement</title>
    <desc>Created with Sketch.</desc>
    <defs>
        <path d="M14.72,8.95454545 L14.72,12.7727273 C14.72,13.2996364 14.28992,13.7272727 13.76,13.7272727 C13.23008,13.7272727 12.8,13.2996364 12.8,12.7727273 L12.8,12.6993007 L5.76,10.5454545 L5.76,4.18181818 L12.8,2.02797203 L12.8,1.95454545 C12.8,1.42763636 13.23008,1 13.76,1 C14.28992,1 14.72,1.42763636 14.72,1.95454545 L14.72,5.77272727 L15.0304,5.84972727 C15.6,5.99163636 16,6.50072727 16,7.08490909 L16,7.643 C16,8.22654545 15.6,8.73563636 15.0304,8.87754545 L14.72,8.95454545 Z M5.11832614,10.4180154 L5.12,14.3636364 C5.12,14.7149091 4.83328,15 4.48,15 L4.0736,15 C3.76192,15 3.49504,14.7766364 3.4432,14.4705455 L2.70672864,10.1781872 L1.15264,10.0236364 C0.49856,9.95872727 0,9.41145455 0,8.75727273 L0,5.97 C0,5.31581818 0.49856,4.76854545 1.15264,4.70363636 L5.12,4.30909091 L5.12,10.4181818 L5.11832614,10.4180154 Z" id="path-1"></path>
    </defs>
    <g id="Icon/Advertisement" stroke="none" stroke-width="1" fill="none" fill-rule="evenodd" transform="translate(0.000000, -1.000000)">
        <mask id="mask-2" fill="white">
            <use xlink:href="#path-1"></use>
        </mask>
        <use fill="#ED1C24" fill-rule="nonzero" xlink:href="#path-1"></use>
    </g>
</svg>