<?xml version="1.0" encoding="UTF-8"?>
<svg width="16px" height="16px" viewBox="0 0 16 16" version="1.1" xmlns="http://www.w3.org/2000/svg" xmlns:xlink="http://www.w3.org/1999/xlink">
    <!-- Generator: Sketch 48.1 (47250) - http://www.bohemiancoding.com/sketch -->
    <title>Icon/Alipay-ED1C24</title>
    <desc>Created with Sketch.</desc>
    <defs>
        <path d="M13.1733923,10.0463958 L13.1734754,10.0463958 C12.5334414,9.83229167 11.6739896,9.50416667 10.7170858,9.158125 C11.2920964,8.15910417 11.7507712,7.02108333 12.0524758,5.78502083 L8.89869434,5.78502083 L8.89869434,4.6491875 L12.7622075,4.6491875 L12.7622075,4.01497917 L8.89869434,4.01497917 L8.89869434,2.12116667 L7.32194904,2.12116667 C7.04515285,2.12116667 7.04515285,2.394375 7.04515285,2.394375 L7.04515285,4.01497917 L3.13763984,4.01497917 L3.13763984,4.6491875 L7.04515285,4.6491875 L7.04515285,5.78502083 L3.81897313,5.78502083 L3.81897313,6.4189375 L10.0761584,6.4189375 C9.8470807,7.20791667 9.53985022,7.94847917 9.17484653,8.6214375 C7.14472386,7.95141667 4.97803122,7.4083125 3.61715123,7.74254167 C2.74691762,7.95729167 2.18624121,8.34033333 1.85644989,8.74072917 C0.345039627,10.5798333 1.42912343,13.373375 4.62154498,13.373375 C6.50907316,13.373375 8.32746461,12.3205625 9.73670707,10.5868333 C11.838314,11.5973333 16,13.3322083 16,13.3322083 L16,13.4371042 C16,14.852625 14.8538427,16 13.4379317,16 L2.5629408,16 C1.14671819,16 0,14.852375 0,13.4371042 L0,2.56325 C0,1.14739583 1.14671819,0 2.5629408,0 L13.4379317,0 C14.8538427,0 16,1.14739583 16,2.56325 L16,10.8594583 C16,10.8594583 15.4774651,10.8180417 13.1733923,10.0463958 Z M4.61809248,9.01734483 C5.73368809,8.90750157 6.76665047,9.33204702 7.98523981,9.92521317 C7.1284373,11.0392884 6.03737147,11.7354326 4.94583542,11.7354326 C3.06776332,11.7354326 2.51238715,10.2599937 3.44063166,9.45339498 C3.75025549,9.18044828 4.31641536,9.04715674 4.61809248,9.01734483 Z" id="path-1"></path>
    </defs>
    <g id="Icon/Alipay" stroke="none" stroke-width="1" fill="none" fill-rule="evenodd">
        <mask id="mask-2" fill="white">
            <use xlink:href="#path-1"></use>
        </mask>
        <use id="Icon/Alipay-ED1C24" fill="#ED1C24" xlink:href="#path-1"></use>
    </g>
</svg>