<?xml version="1.0" encoding="UTF-8"?>
<svg width="16px" height="16px" viewBox="0 0 16 16" version="1.1" xmlns="http://www.w3.org/2000/svg" xmlns:xlink="http://www.w3.org/1999/xlink">
    <!-- Generator: Sketch 48.1 (47250) - http://www.bohemiancoding.com/sketch -->
    <title>Icon/Asset-Menu</title>
    <desc>Created with Sketch.</desc>
    <defs>
        <linearGradient x1="0%" y1="0%" x2="100.028139%" y2="99.047472%" id="linearGradient-1">
            <stop stop-color="#0BBFD5" offset="0%"></stop>
            <stop stop-color="#6DD7B2" offset="100%"></stop>
        </linearGradient>
        <path d="M8,0 C3.582,0 0,3.582 0,8 C0,12.418 3.582,16 8,16 C12.418,16 16,12.418 16,8 C16,3.582 12.418,0 8,0 Z M8.66666667,11.9046667 L8.66666667,13.3333333 L7.33333333,13.3333333 L7.33333333,11.9086667 C5.91333333,11.7193333 5.01933333,10.8933333 4.96933333,9.66933333 L6.49,9.66933333 C6.56266667,10.2786667 7.17733333,10.6693333 8.06266667,10.6693333 C8.88066667,10.6693333 9.45866667,10.2733333 9.45866667,9.706 C9.45866667,9.22666667 9.084,8.95066667 8.162,8.75266667 L7.18266667,8.54466667 C5.81266667,8.258 5.14133333,7.54466667 5.14133333,6.39866667 C5.14133333,5.17866667 5.99066667,4.32133333 7.33333333,4.106 L7.33333333,2.66666667 L8.66666667,2.66666667 L8.66666667,4.104 C9.97066667,4.31533333 10.8506667,5.16 10.8913333,6.31533333 L9.412,6.31533333 C9.33933333,5.72133333 8.78666667,5.326 8.02666667,5.326 C7.24,5.326 6.71933333,5.69066667 6.71933333,6.26333333 C6.71933333,6.72666667 7.07866667,6.99266667 7.95866667,7.18 L8.86466667,7.37266667 C10.3753333,7.69066667 11.026,8.34133333 11.026,9.508 C11.0266667,10.8293333 10.1426667,11.7026667 8.66666667,11.9046667 Z" id="path-2"></path>
    </defs>
    <g id="Icon/Asset" stroke="none" stroke-width="1" fill="none" fill-rule="evenodd">
        <mask id="mask-3" fill="white">
            <use xlink:href="#path-2"></use>
        </mask>
        <use id="Icon/Asset-Menu" fill="url(#linearGradient-1)" fill-rule="nonzero" xlink:href="#path-2"></use>
    </g>
</svg>