<?xml version="1.0" encoding="UTF-8"?>
<svg width="16px" height="16px" viewBox="0 0 16 16" version="1.1" xmlns="http://www.w3.org/2000/svg" xmlns:xlink="http://www.w3.org/1999/xlink">
    <!-- Generator: Sketch 48.1 (47250) - http://www.bohemiancoding.com/sketch -->
    <title>Icon/Bank-Menu</title>
    <desc>Created with Sketch.</desc>
    <defs>
        <linearGradient x1="0%" y1="0%" x2="100.028139%" y2="99.047472%" id="linearGradient-1">
            <stop stop-color="#0BBFD5" offset="0%"></stop>
            <stop stop-color="#6DD7B2" offset="100%"></stop>
        </linearGradient>
        <path d="M0.666666667,7.33333333 C0.298476833,7.33333333 0,7.0348565 0,6.66666667 C0,6.44237746 0.11076022,6.24395768 0.28056797,6.12312003 L7.53703676,0.186968477 C7.65695443,0.0712086894 7.82016137,0 8,0 C8.17983863,0 8.34304557,0.0712086894 8.46296324,0.186968477 L15.719432,6.12312003 C15.8892398,6.24395768 16,6.44237746 16,6.66666667 C16,7.0348565 15.7015232,7.33333333 15.3333333,7.33333333 L0.666666667,7.33333333 Z M3.40000001,8 L4.59999999,8 C4.8209139,8 5,8.1790861 5,8.40000001 L5,12.6 C5,12.8209139 4.8209139,13 4.59999999,13 L3.40000001,13 C3.1790861,13 3,12.8209139 3,12.6 L3,8.40000001 C3,8.1790861 3.1790861,8 3.40000001,8 Z M7.40000001,8 L8.59999999,8 C8.8209139,8 9,8.1790861 9,8.40000001 L9,12.6 C9,12.8209139 8.8209139,13 8.59999999,13 L7.40000001,13 C7.1790861,13 7,12.8209139 7,12.6 L7,8.40000001 C7,8.1790861 7.1790861,8 7.40000001,8 Z M11.4,8 L12.6,8 C12.8209139,8 13,8.1790861 13,8.40000001 L13,12.6 C13,12.8209139 12.8209139,13 12.6,13 L11.4,13 C11.1790861,13 11,12.8209139 11,12.6 L11,8.40000001 C11,8.1790861 11.1790861,8 11.4,8 Z M1.40000001,14 L14.6,14 C14.8209139,14 15,14.1790861 15,14.4 L15,15.6 C15,15.8209139 14.8209139,16 14.6,16 L1.40000001,16 C1.1790861,16 1,15.8209139 1,15.6 L1,14.4 C1,14.1790861 1.1790861,14 1.40000001,14 Z" id="path-2"></path>
    </defs>
    <g id="Icon/Bank" stroke="none" stroke-width="1" fill="none" fill-rule="evenodd">
        <mask id="mask-3" fill="white">
            <use xlink:href="#path-2"></use>
        </mask>
        <use id="Icon/Bank-Menu" fill="url(#linearGradient-1)" fill-rule="nonzero" xlink:href="#path-2"></use>
    </g>
</svg>