<?xml version="1.0" encoding="UTF-8"?>
<svg width="16px" height="12px" viewBox="0 0 16 12" version="1.1" xmlns="http://www.w3.org/2000/svg" xmlns:xlink="http://www.w3.org/1999/xlink">
    <!-- Generator: Sketch 48.1 (47250) - http://www.bohemiancoding.com/sketch -->
    <title>Icon/Email-666666</title>
    <desc>Created with Sketch.</desc>
    <defs>
        <path d="M16,5.27924078 L8.41665471,8.7549407 C8.15211601,8.87618761 7.84788399,8.87618761 7.58334529,8.7549407 L0,5.27924078 L0,3 C-6.76353751e-17,2.44771525 0.44771525,2 1,2 L15,2 C15.5522847,2 16,2.44771525 16,3 L16,5.27924078 Z M16,6.33333333 L16,13 C16,13.5522847 15.5522847,14 15,14 L1,14 C0.44771525,14 6.76353751e-17,13.5522847 0,13 L0,6.33333333 L7.58334529,9.80903326 C7.84788399,9.93028016 8.15211601,9.93028016 8.41665471,9.80903326 L16,6.33333333 Z" id="path-1"></path>
    </defs>
    <g id="Icon/Email" stroke="none" stroke-width="1" fill="none" fill-rule="evenodd" transform="translate(0.000000, -2.000000)">
        <mask id="mask-2" fill="white">
            <use xlink:href="#path-1"></use>
        </mask>
        <use id="Icon/Email-666666" fill="#666666" xlink:href="#path-1"></use>
    </g>
</svg>