<?xml version="1.0" encoding="UTF-8"?>
<svg width="16px" height="16px" viewBox="0 0 16 16" version="1.1" xmlns="http://www.w3.org/2000/svg" xmlns:xlink="http://www.w3.org/1999/xlink">
    <!-- Generator: Sketch 48.1 (47250) - http://www.bohemiancoding.com/sketch -->
    <title>Icon/Google-CCCCCC</title>
    <desc>Created with Sketch.</desc>
    <defs>
        <path d="M10.0048377,0 L5.87485048,0 C4.79219144,0 3.4292477,0.167940049 2.28616513,1.1549658 C1.42336728,1.93163662 1.00241422,3.00293875 1.00241422,3.96875707 C1.00241422,5.60635532 2.20592032,7.26518079 4.33058076,7.26518079 C4.5316911,7.26518079 4.75155228,7.24397333 4.9729822,7.2233193 C4.87243626,7.47496255 4.77238862,7.68476407 4.77238862,8.042405 C4.77238862,8.69299726 5.09229746,9.0919265 5.37311739,9.46964831 C4.47126756,9.53269748 2.78684626,9.63758836 1.5437345,10.4354864 C0.360547994,11.1703353 0,12.2410642 0,12.9970612 C0,14.5509761 1.40304771,16 4.31077795,16 C7.75929326,16 9.58386615,14.0053142 9.58386615,12.0318161 C9.58386615,10.5828119 8.78306057,9.86859734 7.89996159,9.09192652 L7.17786901,8.50384977 C6.95749107,8.31525569 6.65686831,8.06305904 6.65686831,7.60106087 C6.65686831,7.13963585 6.95749107,6.84504409 7.21850817,6.5721934 C8.05993446,5.87920601 8.90239428,5.14435715 8.90239428,3.59046208 C8.90239428,1.99470554 7.94008401,1.1549658 7.47849178,0.756036537 L8.72160354,0.756036537 L10.0048377,0 Z M8.24070675,12.8509018 C8.24070675,14.1520666 7.2184897,15.1179047 5.29338933,15.1179047 C3.14789255,15.1179047 1.76411245,14.0471757 1.76411245,12.5562903 C1.76411245,11.0654246 3.04786336,10.5616045 3.48863771,10.3936645 C4.33058076,10.0996261 5.4137381,10.0572112 5.59452884,10.0572112 C5.79458721,10.0572112 5.8946164,10.0572112 6.05508756,10.0784187 C7.57955446,11.2127304 8.24070675,11.7790661 8.24070675,12.8509018 Z M6.63758222,6.08958071 C6.31614158,6.42488763 5.77376931,6.67765746 5.27306973,6.67765746 C3.54906123,6.67765746 2.76652666,4.34649864 2.76652666,2.9398896 C2.76652666,2.39365459 2.8665743,1.82676551 3.20833452,1.38597478 C3.52927687,0.965838077 4.08988322,0.692987389 4.61138223,0.692987389 C6.27600071,0.692987389 7.13772813,3.04478048 7.13772813,4.55630016 C7.13774658,4.93402197 7.09762419,5.60637508 6.63758222,6.08958071 Z M13.9993794,3.19765987 L13.9993794,1.06458214 L12.9990692,1.06458214 L12.9990692,3.19765985 L10.9983932,3.19765987 L10.9983932,4.26449521 L12.9990507,4.26449521 L12.9990507,6.39755316 L13.999361,6.39755316 L13.999361,4.26449519 L16,4.26449519 L16,3.19765985 L13.9993794,3.19765987 Z" id="path-1"></path>
    </defs>
    <g id="Icon/Google" stroke="none" stroke-width="1" fill="none" fill-rule="evenodd">
        <mask id="mask-2" fill="white">
            <use xlink:href="#path-1"></use>
        </mask>
        <use id="Icon/Google-CCCCCC" fill="#CCCCCC" fill-rule="nonzero" xlink:href="#path-1"></use>
    </g>
</svg>