<?xml version="1.0" encoding="UTF-8"?>
<svg width="49px" height="49px" viewBox="0 0 49 49" version="1.1" xmlns="http://www.w3.org/2000/svg" xmlns:xlink="http://www.w3.org/1999/xlink">
    <!-- Generator: Sketch 48.1 (47250) - http://www.bohemiancoding.com/sketch -->
    <title>Shape</title>
    <desc>Created with Sketch.</desc>
    <defs></defs>
    <g id="Page-1" stroke="none" stroke-width="1" fill="none" fill-rule="evenodd">
        <g id="Group" transform="translate(-47.000000, -47.000000)" fill="#FFFFFF" fill-rule="nonzero">
            <path d="M72.0837209,68.1716262 L95.0745032,68.1716262 C95.3278647,69.5590604 95.4545455,70.8850113 95.4545455,72.149479 C95.4545455,76.6447194 94.4926004,80.6585341 92.5687104,84.190923 C90.6448203,87.7233119 87.901649,90.4836796 84.3391966,92.4720259 C80.7767442,94.4603723 76.6909937,95.4545455 72.081945,95.4545455 C68.7621987,95.4545455 65.6016913,94.8281119 62.6004228,93.5752449 C59.5991543,92.3223779 57.0093023,90.6286873 54.8308668,88.4941732 C52.6524313,86.359659 50.9238901,83.8220233 49.6452431,80.881266 C48.3665962,77.9405087 47.7272727,74.8437231 47.7272727,71.5909091 C47.7272727,68.3380951 48.3665962,65.2413095 49.6452431,62.3005522 C50.9238901,59.3597949 52.6524313,56.8221592 54.8308668,54.687645 C57.0093023,52.5531308 59.5991543,50.8594403 62.6004228,49.6065732 C65.6016913,48.3537062 68.7621987,47.7272727 72.081945,47.7272727 C78.4242706,47.7272727 83.8679915,49.8090041 88.4131078,53.9724668 L81.7854545,60.2176608 C79.1855391,57.7525289 75.9510359,56.519963 72.081945,56.519963 C69.3541649,56.519963 66.832981,57.193379 64.5183932,58.5402111 C62.2038055,59.8870431 60.3698943,61.7153009 59.0166596,64.0249844 C57.6634249,66.334668 56.9868076,68.8566428 56.9868076,71.5909091 C56.9868076,74.3251753 57.6634249,76.8471502 59.0166596,79.1568338 C60.3698943,81.4665173 62.2038055,83.2947751 64.5183932,84.6416071 C66.832981,85.9884392 69.3541649,86.6618552 72.081945,86.6618552 C73.9217759,86.6618552 75.6130233,86.4130219 77.1556871,85.9153552 C78.698351,85.4176886 79.9669345,84.7964754 80.9614376,84.0517156 C81.9559408,83.3069557 82.8225793,82.4577903 83.5613531,81.5042193 C84.3001268,80.5506483 84.8447357,79.6492801 85.1951797,78.8001147 C85.5456237,77.9509493 85.7835941,77.142966 85.9090909,76.376165 L72.081945,76.376165 L72.081945,68.1733663 L72.0837209,68.1716262 Z" id="Shape"></path>
        </g>
    </g>
</svg>