<?xml version="1.0" encoding="UTF-8"?>
<svg width="16px" height="14px" viewBox="0 0 16 14" version="1.1" xmlns="http://www.w3.org/2000/svg" xmlns:xlink="http://www.w3.org/1999/xlink">
    <!-- Generator: Sketch 48.1 (47250) - http://www.bohemiancoding.com/sketch -->
    <title>Icon/InviteCode-333333</title>
    <desc>Created with Sketch.</desc>
    <defs>
        <path d="M6.54308134,5.52073567 C6.43976883,5.5435358 6.33240266,5.55555556 6.22222222,5.55555556 C5.40385185,5.55555556 4.74074074,4.89244444 4.74074074,4.07407407 L4.74074074,3.77777778 L9.60898388,2.09473689 C9.75178041,2.0337539 9.90898542,2 10.0740741,2 C10.303739,2 10.5181465,2.06532494 10.6997294,2.17840768 L13.6296296,3.77777778 L16,3.18518519 L16,10.2962963 L14.8065185,10.2962963 C14.7656296,9.20296296 14.2500741,8.81007407 13.7285926,8.28859259 C13.1851852,7.74518519 10.0740741,4.96059259 10.0740741,4.96059259 L6.54308134,5.52073567 Z M6.15176858,14.5479306 L0.951703704,9.11111111 L0.00948148148,9.11111111 L0,2 L6.22222222,2 C6.22222222,2 5.00148148,2.42488889 4.59733333,2.57362963 C4.19259259,2.72177778 3.55555556,2.91377778 3.55555556,3.77777778 C3.55555556,6.5522963 5.86311111,6.82844444 6.69333333,6.69688889 C7.52355556,6.56533333 9.69303704,6.22103704 9.69303704,6.22103704 L13.1835372,9.36973746 C13.4554333,9.58690708 13.6296296,9.92125882 13.6296296,10.2962963 C13.6296296,10.950856 13.0990041,11.4814815 12.4444444,11.4814815 C12.2238361,11.4814815 12.0173057,11.421207 11.8404229,11.3162279 C11.8479569,11.3702322 11.8518519,11.425402 11.8518519,11.4814815 C11.8518519,12.1360412 11.3212264,12.6666667 10.6666667,12.6666667 C10.4460584,12.6666667 10.2395279,12.6063922 10.0626451,12.5014131 C10.0701792,12.5554174 10.0740741,12.6105872 10.0740741,12.6666667 C10.0740741,13.3212264 9.54344859,13.8518519 8.88888889,13.8518519 C8.66828058,13.8518519 8.46175013,13.7915774 8.28486732,13.6865983 C8.29240138,13.7406026 8.2962963,13.7957724 8.2962963,13.8518519 C8.2962963,14.5064116 7.76567081,15.037037 7.11111111,15.037037 C6.71665314,15.037037 6.36720363,14.8443329 6.15176858,14.5479306 Z" id="path-1"></path>
    </defs>
    <g id="Icon/InviteCode" stroke="none" stroke-width="1" fill="none" fill-rule="evenodd" transform="translate(0.000000, -2.000000)">
        <mask id="mask-2" fill="white">
            <use xlink:href="#path-1"></use>
        </mask>
        <use id="Icon/InviteCode-333333" fill="#333333" fill-rule="nonzero" xlink:href="#path-1"></use>
    </g>
</svg>