<?xml version="1.0" encoding="UTF-8"?>
<svg width="12px" height="16px" viewBox="0 0 12 16" version="1.1" xmlns="http://www.w3.org/2000/svg" xmlns:xlink="http://www.w3.org/1999/xlink">
    <!-- Generator: Sketch 48.1 (47250) - http://www.bohemiancoding.com/sketch -->
    <title>Icon/Phone-333333</title>
    <desc>Created with Sketch.</desc>
    <defs>
        <path d="M3,0 L13,0 C13.5522847,-1.01453063e-16 14,0.44771525 14,1 L14,15 C14,15.5522847 13.5522847,16 13,16 L3,16 C2.44771525,16 2,15.5522847 2,15 L2,1 C2,0.44771525 2.44771525,1.01453063e-16 3,0 Z M4,1 C3.44771525,1 3,1.44771525 3,2 L3,11 C3,11.5522847 3.44771525,12 4,12 L12,12 C12.5522847,12 13,11.5522847 13,11 L13,2 C13,1.44771525 12.5522847,1 12,1 L4,1 Z M8,15 C8.55228475,15 9,14.5522847 9,14 C9,13.4477153 8.55228475,13 8,13 C7.44771525,13 7,13.4477153 7,14 C7,14.5522847 7.44771525,15 8,15 Z" id="path-1"></path>
    </defs>
    <g id="Icon/Phone" stroke="none" stroke-width="1" fill="none" fill-rule="evenodd" transform="translate(-2.000000, 0.000000)">
        <mask id="mask-2" fill="white">
            <use xlink:href="#path-1"></use>
        </mask>
        <use id="Icon/Phone-333333" fill="#333333" xlink:href="#path-1"></use>
    </g>
</svg>