<?xml version="1.0" encoding="UTF-8"?>
<svg width="1920px" height="1078px" viewBox="0 0 1920 1078" version="1.1" xmlns="http://www.w3.org/2000/svg" xmlns:xlink="http://www.w3.org/1999/xlink">
    <!-- Generator: Sketch 49 (51002) - http://www.bohemiancoding.com/sketch -->
    <title>Img-Error</title>
    <desc>Created with Sketch.</desc>
    <defs>
        <rect id="path-1" x="0" y="0" width="1920" height="1080"></rect>
        <linearGradient x1="50%" y1="0%" x2="50%" y2="100%" id="linearGradient-3">
            <stop stop-color="#10273D" offset="0%"></stop>
            <stop stop-color="#AFFFFE" offset="100%"></stop>
        </linearGradient>
        <linearGradient x1="50%" y1="0%" x2="50%" y2="100%" id="linearGradient-4">
            <stop stop-color="#141425" stop-opacity="0.846948596" offset="0%"></stop>
            <stop stop-color="#234C5A" offset="100%"></stop>
        </linearGradient>
        <polygon id="path-5" points="0.6302 0.417 15.8602 0.417 15.8602 20.4586 0.6302 20.4586"></polygon>
        <polygon id="path-7" points="0.3708 0.648 182.928564 0.648 182.928564 215 0.3708 215"></polygon>
        <path d="M78.8645,357.113 C39.6235,348.947 13.6875,325.601 3.8585,289.599 C-4.4585,259.136 3.5755,230.246 27.7365,203.73 C46.5885,183.041 71.6195,167.749 89.8955,156.584 C97.7405,151.791 104.5155,147.652 107.9445,144.803 C141.2115,117.178 153.868016,92.0510469 141.541016,65.1230469 C131.399016,42.9680469 115.242188,34.8535156 95.5275,37.158 C75.8128125,39.4624844 50.4665,52.464 44.8225,77.331 C40.5825,96.01 46.5755,112.493 62.6335,126.324 C68.9105,131.73 69.6165,141.201 64.2095,147.478 C58.8045,153.755 49.3335,154.462 43.0555,149.054 C10.1035,120.675 11.6885,87.775 15.5665,70.69 C19.8915,51.637 28.9155,35.307 41.6665,23.47 C53.8305,12.176 74.1005,2.331 90.2765,0.658 C123.7585,-2.809 155.5985,14.451 171.0275,48.158 C181.7935,71.675 181.9055,105.249 171.0275,127.658 C163.5395,143.085 156.1145,155.648 137.5275,171.084 C132.4265,175.32 103.2675,198.874 95.0785,205.892 C56.5785,238.892 36.0275,245.351 44.0275,281.158 C49.6485,306.318 68.7795,313.149 95.0275,321.658 C116.9055,328.75 127.6835,329.048 127.8925,329.013 C136.0445,327.654 143.7845,333.158 145.1595,341.313 C146.5345,349.47 141.0665,357.196 132.9145,358.59 C132.2915,358.696 123.2555,360.199 110.1865,360.199 C101.1835,360.199 90.2675,359.486 78.8645,357.113 Z" id="path-9"></path>
        <linearGradient x1="50%" y1="0%" x2="50%" y2="100%" id="linearGradient-11">
            <stop stop-color="#FFF1BD" offset="0%"></stop>
            <stop stop-color="#FFDC92" offset="100%"></stop>
        </linearGradient>
        <circle id="path-12" cx="1666" cy="377" r="354"></circle>
        <filter x="-8.7%" y="-8.7%" width="117.4%" height="117.4%" filterUnits="objectBoundingBox" id="filter-13">
            <feOffset dx="0" dy="0" in="SourceAlpha" result="shadowOffsetOuter1"></feOffset>
            <feGaussianBlur stdDeviation="20.5" in="shadowOffsetOuter1" result="shadowBlurOuter1"></feGaussianBlur>
            <feColorMatrix values="0 0 0 0 1   0 0 0 0 0.981558055   0 0 0 0 0.353653725  0 0 0 0.257586051 0" type="matrix" in="shadowBlurOuter1"></feColorMatrix>
        </filter>
        <linearGradient x1="50%" y1="0%" x2="50%" y2="100%" id="linearGradient-14">
            <stop stop-color="#000000" offset="0%"></stop>
            <stop stop-color="#E2C378" offset="100%"></stop>
        </linearGradient>
    </defs>
    <g id="主页&amp;公共" stroke="none" stroke-width="1" fill="none" fill-rule="evenodd">
        <g id="Error-Other">
            <g id="Img-Error">
                <mask id="mask-2" fill="white">
                    <use xlink:href="#path-1"></use>
                </mask>
                <g id="Mask">
                    <use fill="#D8D8D8" fill-rule="evenodd" xlink:href="#path-1"></use>
                    <rect stroke="#979797" stroke-width="1" x="0.5" y="0.5" width="1919" height="1079"></rect>
                </g>
                <g id="Img" mask="url(#mask-2)">
                    <g transform="translate(-237.000000, -531.000000)">
                        <rect id="天" fill="url(#linearGradient-3)" fill-rule="evenodd" x="237" y="531" width="1920" height="1078"></rect>
                        <g id="海" stroke-width="1" fill="none" fill-rule="evenodd" transform="translate(0.000000, 741.000000)">
                            <path d="M0,882.988281 L0,168.815521 C20.2871195,176.217764 38.9702526,184.11574 79.0355469,184.054687 C153.263574,183.941576 147.127416,174.262239 221.859375,173.470703 C271.583266,172.944044 287.117194,156.756979 345.988281,158.992187 C404.859368,161.227396 403.18616,183.544395 456.792969,182.390625 C510.399778,181.236855 499.568318,163.084725 561.015625,162.095142 C622.462932,161.105559 656.531068,185.738967 691.875,184.054687 C737.754745,181.868334 764.608361,156.643646 806.190625,156.214844 C879.806212,155.455709 880.580606,180.944374 954.869922,181 C1029.15924,181.055626 1028.8901,156.08835 1103.54922,156.4375 C1178.20834,156.78665 1179.9059,179.920454 1252.22852,182.390625 C1324.55114,184.860796 1326.29005,166.173237 1400.90781,166.59375 C1475.52558,167.014263 1474.3448,185.258441 1549.58711,184.066406 C1624.82942,182.874371 1670.23828,162.1875 1726.57422,166.59375 C1782.91016,171 1783.49031,197.013459 1860.38281,193.019531 C1937.27532,189.025603 1959.61655,150.011719 2005.94922,150.011719 C2032.31692,150.011719 2041.08681,162.098073 2076.25852,162.095142 C2111.43023,162.092212 2120.21717,150 2146.59766,150 C2192.28855,150 2214.64803,187.94056 2289,192.821885 L2289,882.988281 L2081.00009,882.988281 L368,883 L0,882.988281 Z" id="Combined-Shape" fill="url(#linearGradient-4)" opacity="0.900000036"></path>
                            <g id="Page-1" transform="translate(1206.758442, 150.072536) rotate(52.000000) translate(-1206.758442, -150.072536) translate(1103.758442, 39.572536)">
                                <polygon id="Fill-1" fill="#000000" points="77.4686 111.2814 88.8396 95.6054 90.3016 96.6674 78.9326 112.3434"></polygon>
                                <polygon id="Fill-2" fill="#000000" points="91.1932 102.2941 87.4132 99.5521 88.4752 98.0901 92.2552 100.8311"></polygon>
                                <polygon id="Fill-3" fill="#000000" points="83.8148 113.4074 79.9268 110.5884 80.9878 109.1234 84.8758 111.9444"></polygon>
                                <polygon id="Fill-4" fill="#000000" points="86.9589 108.3722 46.8509 78.4322 47.4529 77.8302 88.8789 105.4732"></polygon>
                                <polygon id="Fill-5" fill="#000000" points="62.8182 41.7511 83.8862 103.9741 85.7162 102.2941 63.7222 40.6951"></polygon>
                                <polygon id="Fill-6" fill="#000000" points="60.8817 92.2745 64.7977 86.8785 66.5887 88.1785 65.1027 90.2265 62.6737 93.5755"></polygon>
                                <polygon id="Fill-7" fill="#000000" points="64.3256 89.5216 63.1446 89.4876 64.4376 45.0896 123.6076 69.9036 123.1516 70.9926 65.5686 46.8456"></polygon>
                                <polygon id="Fill-8" fill="#000000" points="30.618 164.9454 41.989 149.2684 43.451 150.3304 32.081 166.0064"></polygon>
                                <polygon id="Fill-9" fill="#000000" points="44.3427 155.9572 40.5637 153.2152 41.6257 151.7532 45.4047 154.4922"></polygon>
                                <polygon id="Fill-10" fill="#000000" points="0 132.095 40.109 162.035 42.03 159.136 0.602 131.491"></polygon>
                                <polygon id="Fill-11" fill="#000000" points="15.9686 95.4122 37.0356 157.6382 38.8656 155.9572 16.8726 94.3562"></polygon>
                                <polygon id="Fill-12" fill="#000000" points="14.0311 145.9386 17.9471 140.5396 19.7381 141.8396 18.2521 143.8876 15.8231 147.2376"></polygon>
                                <polygon id="Fill-13" fill="#000000" points="17.476 143.1847 16.295 143.1487 17.587 98.7527 76.755 123.5667 76.299 124.6557 18.718 100.5067"></polygon>
                                <g id="Group-36" transform="translate(11.000000, 0.583000)">
                                    <path d="M33.2137,164.6535 C32.2577,164.6535 31.4817,163.8785 31.4817,162.9215 C31.4817,161.9645 32.2577,161.1885 33.2137,161.1885 C34.1697,161.1885 34.9457,161.9645 34.9457,162.9215 C34.9457,163.8785 34.1697,164.6535 33.2137,164.6535 M19.8067,182.3535 C18.8497,182.3535 18.0747,181.5765 18.0747,180.6215 C18.0747,179.6645 18.8497,178.8885 19.8067,178.8885 C20.7627,178.8885 21.5387,179.6645 21.5387,180.6215 C21.5387,181.5765 20.7627,182.3535 19.8067,182.3535 M47.7507,149.5125 C39.0137,153.4295 34.3437,152.8265 34.3437,152.8265 L17.6217,175.8755 C12.9517,182.9555 8.5847,180.8485 8.5847,180.8485 L0.4487,192.5985 L11.3707,198.1715 L37.9597,173.8415 C37.9597,173.8415 56.4877,145.5945 47.7507,149.5125" id="Fill-14" fill="#FFFFFF"></path>
                                    <path d="M104.3944,37.1329 L106.8034,33.8189 L112.8314,38.3379 L110.5704,41.8029 L104.3944,37.1329 Z M114.9384,55.0589 L145.8204,10.4699 L136.1794,4.5929 L123.6764,22.2189 L115.5414,16.0419 L96.5614,42.7059 L98.5194,43.7609 L100.9294,40.2969 L107.7074,44.8169 L105.4494,48.4309 L108.1594,50.6909 L105.2974,55.0589 L109.3664,63.0439 L110.7204,60.6339 L107.8594,55.3609 L110.2694,51.5939 L114.9384,55.0589 Z" id="Fill-16" fill="#FFFFFF"></path>
                                    <g id="Group-20" transform="translate(117.000000, 0.000000)">
                                        <mask id="mask-6" fill="white">
                                            <use xlink:href="#path-5"></use>
                                        </mask>
                                        <g id="Clip-19"></g>
                                        <polygon id="Fill-18" fill="#FFFFFF" mask="url(#mask-6)" points="15.8602 1.4796 2.0922 20.4586 0.6302 19.3956 14.3972 0.4166"></polygon>
                                    </g>
                                    <polygon id="Fill-21" fill="#FFFFFF" points="135.3427 3.4201 121.5747 22.3991 120.1127 21.3381 133.8797 2.3581"></polygon>
                                    <polygon id="Fill-23" fill="#FFFFFF" points="135.7343 9.2609 128.8763 4.2849 129.9393 2.8229 136.7963 7.7959"></polygon>
                                    <polygon id="Fill-25" fill="#FFFFFF" points="131.7753 14.7941 124.9183 9.8181 125.9783 8.3561 132.8373 13.3311"></polygon>
                                    <polygon id="Fill-27" fill="#FFFFFF" points="127.8173 20.4581 120.9593 15.4821 122.0183 14.0211 128.8763 18.9961"></polygon>
                                    <g id="Group-31" transform="translate(11.000000, 5.000000)">
                                        <mask id="mask-8" fill="white">
                                            <use xlink:href="#path-7"></use>
                                        </mask>
                                        <g id="Clip-30"></g>
                                        <path d="M162.0878,17.673 L136.4028,0.648 L0.3708,193.171 L44.8868,212.002 C44.8868,212.002 67.2618,221.526 86.3088,206.625 L86.3108,206.625 C116.5328,188.507 147.3978,141.512 170.8238,101.129 C202.4588,46.594 162.0878,17.673 162.0878,17.673" id="Fill-29" fill="#002944" mask="url(#mask-8)"></path>
                                    </g>
                                    <polygon id="Fill-32" fill="#000000" points="25.9642 166.4855 22.0762 163.6665 23.1372 162.2045 27.0262 165.0235"></polygon>
                                    <polygon id="Fill-34" fill="#011F30" points="20.8739 202.1915 154.2089 10.1605 153.0779 9.4105 19.5979 201.6525"></polygon>
                                </g>
                            </g>
                            <path d="M132,872.652695 L132,175.244362 C161.623723,168.258619 177.864058,156.892983 228.586328,156.090195 C302.174558,154.925504 305.989821,176.198899 358.482422,176.277344 C410.975023,176.355788 420.573447,156.4375 460.992188,156.4375 C501.410928,156.4375 507.680563,181 563.490234,181 C619.299906,181 614.980159,156.4375 687.413672,156.4375 C759.847184,156.4375 762.011133,181 836.608594,181 C911.206055,181 913.089877,154.615561 985.803516,156.4375 C1058.51715,158.259439 1057.92524,185.853234 1134.99844,188.476563 C1212.07163,191.099891 1209.5959,166.59375 1284.19336,166.59375 C1358.79082,166.59375 1358.79082,188.476563 1433.38828,188.476563 C1507.98574,188.476563 1507.98574,166.59375 1582.5832,166.59375 C1657.18066,166.59375 1654.81567,183.969913 1731.77813,188.476563 C1808.74058,192.983212 1808.61347,169.603234 1879.35156,161.847656 C1950.08965,154.092079 1960.14335,172.64233 2000.71289,171.5 C2041.28243,170.35767 2042.65806,158.294983 2083.82617,156.090195 C2124.99428,153.885406 2148.81179,161.226455 2173.08203,166.59375 L2171,873 L458,873 L132,872.652695 Z" id="Combined-Shape" fill="url(#linearGradient-4)" opacity="0.900000036"></path>
                        </g>
                        <g id="气泡" opacity="0.200000003" stroke-width="1" fill="none" fill-rule="evenodd" transform="translate(912.000000, 994.000000)">
                            <circle id="Oval-2" fill="#FFFFFF" opacity="0.800000012" cx="308" cy="21" r="7"></circle>
                            <circle id="Oval-2-Copy-2" fill="#FFFFFF" opacity="0.800000012" cx="103" cy="48" r="7"></circle>
                            <circle id="Oval-2-Copy-5" fill="#FFFFFF" opacity="0.800000012" cx="279" cy="174" r="9"></circle>
                            <circle id="Oval-2-Copy-29" fill="#FFFFFF" opacity="0.800000012" cx="480" cy="28" r="9"></circle>
                            <circle id="Oval-2-Copy-26" fill="#FFFFFF" opacity="0.800000012" cx="53.5" cy="180.5" r="6.5"></circle>
                            <circle id="Oval-2-Copy-27" fill="#FFFFFF" opacity="0.800000012" cx="4.5" cy="183.5" r="4.5"></circle>
                            <circle id="Oval-2-Copy-32" fill="#FFFFFF" opacity="0.300000012" cx="453.5" cy="263.5" r="4.5"></circle>
                            <circle id="Oval-2-Copy-9" fill="#FFFFFF" opacity="0.100000001" cx="295" cy="159" r="4"></circle>
                            <circle id="Oval-2-Copy-33" fill="#FFFFFF" opacity="0.100000001" cx="32" cy="197" r="4"></circle>
                            <circle id="Oval-2-Copy-10" fill="#FFFFFF" cx="402" cy="204" r="3"></circle>
                            <circle id="Oval-2-Copy-30" fill="#FFFFFF" cx="468" cy="48" r="3"></circle>
                            <circle id="Oval-2-Copy-6" fill="#FFFFFF" opacity="0.800000012" cx="365" cy="164" r="4"></circle>
                            <circle id="Oval-2-Copy-7" fill="#FFFFFF" opacity="0.800000012" cx="520" cy="242" r="6"></circle>
                            <circle id="Oval-2-Copy-8" fill="#FFFFFF" opacity="0.800000012" cx="510" cy="252" r="4"></circle>
                            <circle id="Oval-2-Copy" fill="#FFFFFF" cx="296.5" cy="4.5" r="4.5"></circle>
                            <circle id="Oval-2-Copy-28" fill="#FFFFFF" cx="118.5" cy="59.5" r="4.5"></circle>
                            <circle id="Oval-2-Copy-3" fill="#FFFFFF" cx="249.5" cy="127.5" r="4.5"></circle>
                            <circle id="Oval-2-Copy-4" fill="#FFFFFF" cx="249.5" cy="164.5" r="4.5"></circle>
                            <circle id="Oval-2-Copy-31" fill="#FFFFFF" cx="484.5" cy="55.5" r="4.5"></circle>
                        </g>
                        <g id="气泡-copy" opacity="0.200000003" stroke-width="1" fill="none" fill-rule="evenodd" transform="translate(873.500000, 1420.000000) rotate(-101.000000) translate(-873.500000, -1420.000000) translate(745.000000, 1353.000000)">
                            <circle id="Oval-2" fill="#FFFFFF" opacity="0.800000012" cx="154" cy="10.5" r="3.5"></circle>
                            <circle id="Oval-2-Copy-2" fill="#FFFFFF" opacity="0.800000012" cx="51.5" cy="24" r="3.5"></circle>
                            <circle id="Oval-2-Copy-5" fill="#FFFFFF" opacity="0.800000012" cx="139.5" cy="87" r="4.5"></circle>
                            <circle id="Oval-2-Copy-29" fill="#FFFFFF" opacity="0.800000012" cx="240" cy="14" r="4.5"></circle>
                            <circle id="Oval-2-Copy-26" fill="#FFFFFF" opacity="0.800000012" cx="26.75" cy="90.25" r="3.25"></circle>
                            <circle id="Oval-2-Copy-27" fill="#FFFFFF" opacity="0.800000012" cx="2.25" cy="91.75" r="2.25"></circle>
                            <circle id="Oval-2-Copy-32" fill="#FFFFFF" opacity="0.300000012" cx="226.75" cy="131.75" r="2.25"></circle>
                            <circle id="Oval-2-Copy-9" fill="#FFFFFF" opacity="0.100000001" cx="147.5" cy="79.5" r="2"></circle>
                            <circle id="Oval-2-Copy-33" fill="#FFFFFF" opacity="0.100000001" cx="16" cy="98.5" r="2"></circle>
                            <circle id="Oval-2-Copy-10" fill="#FFFFFF" cx="201" cy="102" r="1.5"></circle>
                            <circle id="Oval-2-Copy-30" fill="#FFFFFF" cx="234" cy="24" r="1.5"></circle>
                            <circle id="Oval-2-Copy-6" fill="#FFFFFF" opacity="0.800000012" cx="182.5" cy="82" r="2"></circle>
                            <circle id="Oval-2-Copy-7" fill="#FFFFFF" opacity="0.800000012" cx="253" cy="131" r="3"></circle>
                            <circle id="Oval-2-Copy-8" fill="#FFFFFF" opacity="0.800000012" cx="255" cy="126" r="2"></circle>
                            <circle id="Oval-2-Copy" fill="#FFFFFF" cx="148.25" cy="2.25" r="2.25"></circle>
                            <circle id="Oval-2-Copy-28" fill="#FFFFFF" cx="59.25" cy="29.75" r="2.25"></circle>
                            <circle id="Oval-2-Copy-3" fill="#FFFFFF" cx="124.75" cy="63.75" r="2.25"></circle>
                            <circle id="Oval-2-Copy-4" fill="#FFFFFF" cx="124.75" cy="82.25" r="2.25"></circle>
                            <circle id="Oval-2-Copy-31" fill="#FFFFFF" cx="242.25" cy="27.75" r="2.25"></circle>
                        </g>
                        <g id="气泡-copy-2" opacity="0.200000003" stroke-width="1" fill="none" fill-rule="evenodd" transform="translate(1495.463859, 1450.882775) rotate(157.000000) translate(-1495.463859, -1450.882775) translate(1366.963859, 1383.882775)">
                            <circle id="Oval-2" fill="#FFFFFF" opacity="0.800000012" cx="154" cy="10.5" r="3.5"></circle>
                            <circle id="Oval-2-Copy-2" fill="#FFFFFF" opacity="0.800000012" cx="51.5" cy="24" r="3.5"></circle>
                            <circle id="Oval-2-Copy-5" fill="#FFFFFF" opacity="0.800000012" cx="139.5" cy="87" r="4.5"></circle>
                            <circle id="Oval-2-Copy-29" fill="#FFFFFF" opacity="0.800000012" cx="240" cy="14" r="4.5"></circle>
                            <circle id="Oval-2-Copy-26" fill="#FFFFFF" opacity="0.800000012" cx="26.75" cy="90.25" r="3.25"></circle>
                            <circle id="Oval-2-Copy-27" fill="#FFFFFF" opacity="0.800000012" cx="2.25" cy="91.75" r="2.25"></circle>
                            <circle id="Oval-2-Copy-32" fill="#FFFFFF" opacity="0.300000012" cx="226.75" cy="131.75" r="2.25"></circle>
                            <circle id="Oval-2-Copy-9" fill="#FFFFFF" opacity="0.100000001" cx="147.5" cy="79.5" r="2"></circle>
                            <circle id="Oval-2-Copy-33" fill="#FFFFFF" opacity="0.100000001" cx="16" cy="98.5" r="2"></circle>
                            <circle id="Oval-2-Copy-10" fill="#FFFFFF" cx="201" cy="102" r="1.5"></circle>
                            <circle id="Oval-2-Copy-30" fill="#FFFFFF" cx="234" cy="24" r="1.5"></circle>
                            <circle id="Oval-2-Copy-6" fill="#FFFFFF" opacity="0.800000012" cx="182.5" cy="82" r="2"></circle>
                            <circle id="Oval-2-Copy-7" fill="#FFFFFF" opacity="0.800000012" cx="253" cy="131" r="3"></circle>
                            <circle id="Oval-2-Copy-8" fill="#FFFFFF" opacity="0.800000012" cx="255" cy="126" r="2"></circle>
                            <circle id="Oval-2-Copy" fill="#FFFFFF" cx="148.25" cy="2.25" r="2.25"></circle>
                            <circle id="Oval-2-Copy-28" fill="#FFFFFF" cx="59.25" cy="29.75" r="2.25"></circle>
                            <circle id="Oval-2-Copy-3" fill="#FFFFFF" cx="124.75" cy="63.75" r="2.25"></circle>
                            <circle id="Oval-2-Copy-4" fill="#FFFFFF" cx="124.75" cy="82.25" r="2.25"></circle>
                            <circle id="Oval-2-Copy-31" fill="#FFFFFF" cx="242.25" cy="27.75" r="2.25"></circle>
                        </g>
                        <g id="气泡-copy-3" opacity="0.200000003" stroke-width="1" fill="none" fill-rule="evenodd" transform="translate(1189.000000, 1392.500000) rotate(157.000000) translate(-1189.000000, -1392.500000) translate(1035.000000, 1312.000000)">
                            <ellipse id="Oval-2" fill="#FFFFFF" opacity="0.800000012" cx="184.560311" cy="12.6156716" rx="4.19455253" ry="4.20522388"></ellipse>
                            <ellipse id="Oval-2-Copy-2" fill="#FFFFFF" opacity="0.800000012" cx="61.7198444" cy="28.8358209" rx="4.19455253" ry="4.20522388"></ellipse>
                            <ellipse id="Oval-2-Copy-5" fill="#FFFFFF" opacity="0.800000012" cx="167.182879" cy="104.529851" rx="5.39299611" ry="5.40671642"></ellipse>
                            <ellipse id="Oval-2-Copy-29" fill="#FFFFFF" opacity="0.800000012" cx="287.626459" cy="16.8208955" rx="5.39299611" ry="5.40671642"></ellipse>
                            <ellipse id="Oval-2-Copy-26" fill="#FFFFFF" opacity="0.800000012" cx="32.0583658" cy="108.434701" rx="3.89494163" ry="3.90485075"></ellipse>
                            <ellipse id="Oval-2-Copy-27" fill="#FFFFFF" opacity="0.800000012" cx="2.69649805" cy="110.23694" rx="2.69649805" ry="2.70335821"></ellipse>
                            <ellipse id="Oval-2-Copy-32" fill="#FFFFFF" opacity="0.300000012" cx="271.747082" cy="158.296642" rx="2.69649805" ry="2.70335821"></ellipse>
                            <ellipse id="Oval-2-Copy-9" fill="#FFFFFF" opacity="0.100000001" cx="176.770428" cy="95.5186567" rx="2.39688716" ry="2.40298507"></ellipse>
                            <ellipse id="Oval-2-Copy-33" fill="#FFFFFF" opacity="0.100000001" cx="19.1750973" cy="118.347015" rx="2.39688716" ry="2.40298507"></ellipse>
                            <ellipse id="Oval-2-Copy-10" fill="#FFFFFF" cx="240.88716" cy="122.552239" rx="1.79766537" ry="1.80223881"></ellipse>
                            <ellipse id="Oval-2-Copy-30" fill="#FFFFFF" cx="280.435798" cy="28.8358209" rx="1.79766537" ry="1.80223881"></ellipse>
                            <ellipse id="Oval-2-Copy-6" fill="#FFFFFF" opacity="0.800000012" cx="218.715953" cy="98.5223881" rx="2.39688716" ry="2.40298507"></ellipse>
                            <ellipse id="Oval-2-Copy-7" fill="#FFFFFF" opacity="0.800000012" cx="303.206226" cy="157.395522" rx="3.59533074" ry="3.60447761"></ellipse>
                            <ellipse id="Oval-2-Copy-8" fill="#FFFFFF" opacity="0.800000012" cx="305.603113" cy="151.38806" rx="2.39688716" ry="2.40298507"></ellipse>
                            <ellipse id="Oval-2-Copy" fill="#FFFFFF" cx="177.669261" cy="2.70335821" rx="2.69649805" ry="2.70335821"></ellipse>
                            <ellipse id="Oval-2-Copy-28" fill="#FFFFFF" cx="71.0077821" cy="35.744403" rx="2.69649805" ry="2.70335821"></ellipse>
                            <ellipse id="Oval-2-Copy-3" fill="#FFFFFF" cx="149.505837" cy="76.5951493" rx="2.69649805" ry="2.70335821"></ellipse>
                            <ellipse id="Oval-2-Copy-4" fill="#FFFFFF" cx="149.505837" cy="98.8227612" rx="2.69649805" ry="2.70335821"></ellipse>
                            <ellipse id="Oval-2-Copy-31" fill="#FFFFFF" cx="290.322957" cy="33.3414179" rx="2.69649805" ry="2.70335821"></ellipse>
                        </g>
                        <g id="触手" opacity="0.100000001" stroke-width="1" fill="none" fill-rule="evenodd" transform="translate(837.000000, 1228.000000)">
                            <path d="M144.5421,481.331836 C113.102734,474.789346 92.3231574,456.084842 84.4482938,427.24052 C77.7848244,402.833971 84.2215579,379.687688 103.579029,358.443423 C118.683,341.867672 138.737503,329.615926 153.37999,320.670677 C159.665299,316.830589 165.093339,313.514478 167.840608,311.231897 C194.493684,289.099116 204.633916,268.967736 194.757688,247.393382 C186.632053,229.643092 173.687418,223.141837 157.892273,224.98816 C142.097129,226.834482 121.790001,237.251123 117.268104,257.174231 C113.871072,272.139597 118.672584,285.345556 131.538039,296.426769 C136.567088,300.757984 137.132726,308.346023 132.80071,313.375071 C128.470296,318.40412 120.882257,318.970559 115.852407,314.637742 C89.4517044,291.900865 90.7215853,265.541825 93.8285871,251.853551 C97.2937194,236.588541 104.523628,223.505163 114.739559,214.021517 C124.485193,204.972915 140.725247,197.085232 153.685242,195.744847 C180.510574,192.967133 206.020357,206.795614 218.381866,233.801213 C227.007441,252.642719 227.097174,279.54176 218.381866,297.495552 C212.38258,309.855458 206.433769,319.920766 191.542113,332.287884 C187.45526,335.68171 164.093458,354.552861 157.53254,360.175589 C126.686854,386.614748 110.221667,391.789613 116.631161,420.477703 C121.134631,440.63556 136.462133,446.108466 157.49168,452.925763 C175.020042,458.607779 183.655231,458.846532 183.822679,458.818491 C190.353953,457.729678 196.555138,462.139409 197.656769,468.673087 C198.758401,475.208366 194.377512,481.398334 187.846239,482.515188 C187.347099,482.600114 180.107577,483.804298 169.636868,483.804298 C162.423785,483.804298 153.678031,483.233052 144.5421,481.331836 Z" id="Mask-Copy" fill="#688BAD" opacity="0.400000006" transform="translate(153.394012, 339.599321) rotate(-46.000000) translate(-153.394012, -339.599321) "></path>
                            <path d="M550.746036,513.81952 C547.186773,513.81952 543.691661,512.104408 541.556988,508.927838 C538.152572,503.863613 518.896276,500.885394 518.896276,500.885394 C519.259059,500.639851 570.053948,466.920132 569.708861,437.840654 C569.502399,420.393852 559.326757,400.878739 543.966698,378.851423 C519.298877,343.475582 497.763384,303.860627 515.325952,258.711745 C527.292655,227.948124 547.62993,216.566152 562.5837,212.436168 C578.630245,208.003865 597.70515,209.364304 616.295606,216.269731 C622.021986,218.39703 624.93974,224.762705 622.813179,230.489085 C620.686617,236.216202 614.320204,239.133219 608.593825,237.006657 C600.330171,233.937005 590.222366,230.740526 574.567362,235.065174 C559.917386,239.111835 550.991578,252.999375 545.072747,271.196078 C533.061802,308.124073 553.882051,329.800404 575.304727,359.679924 C592.991173,384.34922 608.861488,415.082609 609.149061,439.336031 C609.635722,480.413181 558.792167,510.669495 556.906724,511.936289 C555.013169,513.209719 552.868173,513.81952 550.746036,513.81952" id="Fill-1-Copy" fill="#688BAD" opacity="0.400000006" transform="translate(566.214681, 361.849059) rotate(37.000000) translate(-566.214681, -361.849059) "></path>
                            <path d="M253.5986,425.158 C245.9756,425.158 239.4516,419.371 238.6886,411.626 C232.1056,344.721 254.8596,316.73 273.1436,294.238 C285.8806,278.571 295.9396,266.196 296.1176,241.755 C296.5516,181.843 267.0256,157.117 265.7686,156.094 L265.8856,156.186 L263.2616,151.89 C254.9256,138.241 271.4636,123.064 284.3486,132.54 C286.0766,133.889 326.6636,166.454 326.1166,241.971 C325.8626,276.946 314.3276,301.182 300.5276,318.158 C283.4276,339.194 273.1536,357.578 278.5276,412.199 C279.3396,420.443 263.3296,424.273 255.0856,425.085 C254.5866,425.134 254.0896,425.158 253.5986,425.158" id="Fill-9" fill="#688BAD" opacity="0.400000006"></path>
                            <path d="M463.5156,425.158 C455.5626,425.158 443.4146,420.228 443.0276,412.199 C440.2966,355.441 456.3756,327.341 469.0276,305.158 C478.0046,289.419 489.6746,277.221 488.0786,257.892 C484.2726,211.802 465.7046,195.417 465.5176,195.257 C465.6676,195.385 465.7496,195.444 465.7496,195.444 L464.0326,192.861 C455.1616,179.52 470.6646,163.469 484.3066,171.872 C485.6776,172.951 492.8976,179.012 500.4116,192.363 C510.0216,209.437 515.9326,230.654 517.9766,255.424 C520.3376,284.012 510.1366,301.898 500.2706,319.195 C488.4356,339.944 476.1986,361.4 478.5106,409.437 C478.9086,417.712 472.5236,424.742 464.2486,425.14 C464.0036,425.152 463.7586,425.158 463.5156,425.158" id="Fill-11" fill="#688BAD" opacity="0.400000006"></path>
                            <path d="M209.7216,412.199 C204.8946,412.199 200.1546,409.873 197.2596,405.565 C192.6426,398.697 166.5276,394.658 166.5276,394.658 C167.0196,394.325 235.9066,348.595 235.4386,309.158 C235.1586,285.497 221.3586,259.031 200.5276,229.158 C167.0736,181.182 137.8676,127.457 161.6856,66.227 C177.9146,24.506 205.4956,9.07 225.7756,3.469 C247.5376,-2.542 273.4066,-0.697 298.6186,8.668 C306.3846,11.553 310.3416,20.186 307.4576,27.952 C304.5736,35.719 295.9396,39.675 288.1736,36.791 C276.9666,32.628 263.2586,28.293 242.0276,34.158 C222.1596,39.646 210.0546,58.48 202.0276,83.158 C185.7386,133.239 213.9746,162.636 243.0276,203.158 C267.0136,236.614 288.5366,278.294 288.9266,311.186 C289.5866,366.894 220.6336,407.927 218.0766,409.645 C215.5086,411.372 212.5996,412.199 209.7216,412.199" id="Fill-1" fill="#688BAD"></path>
                            <path d="M275.857422,391.845703 C276.045422,391.619703 303.666969,372.853391 317.417969,345.775391 C329.490969,321.999391 350.289063,293.826172 338.329102,253.487305 C326.369141,213.148438 322.613281,184.453125 329.0281,143.1579 C335.442919,101.862675 360.1001,64.4009 390.3931,34.1079 C396.2511,28.2509 405.7491,28.2509 411.6061,34.1079 C417.4641,39.9659 417.4641,49.4639 411.6061,55.3209 C386.2091,80.7189 372.5831,110.8909 369.9511,147.5609 C367.3661,183.5799 375.917398,216.64607 383.608398,244.74707 C403.883398,318.83007 351.383438,397.368359 348.398438,400.943359 C345.432437,404.497359 270.556422,398.204703 275.857422,391.845703 Z" id="Fill-4" fill="#688BAD"></path>
                            <g id="Oval-2-Copy-11" transform="translate(393.000000, 52.000000)">
                                <mask id="mask-10" fill="white">
                                    <use xlink:href="#path-9"></use>
                                </mask>
                                <use id="Mask" fill="#688BAD" opacity="0.900000036" xlink:href="#path-9"></use>
                            </g>
                        </g>
                        <g id="Oval-3" fill="none">
                            <use fill="black" fill-opacity="1" filter="url(#filter-13)" xlink:href="#path-12"></use>
                            <use fill="url(#linearGradient-11)" fill-rule="evenodd" xlink:href="#path-12"></use>
                        </g>
                        <circle id="Oval" fill="url(#linearGradient-14)" fill-rule="evenodd" opacity="0.100000001" cx="1526.5" cy="572.5" r="31.5"></circle>
                        <circle id="Oval-Copy" fill="url(#linearGradient-14)" fill-rule="evenodd" opacity="0.100000001" cx="1781.5" cy="530.5" r="61.5"></circle>
                        <circle id="Oval-Copy-2" fill="url(#linearGradient-14)" fill-rule="evenodd" opacity="0.100000001" cx="1667.5" cy="672.5" r="18.5"></circle>
                    </g>
                </g>
            </g>
        </g>
    </g>
</svg>