<?xml version="1.0" encoding="UTF-8"?>
<svg width="1920px" height="1078px" viewBox="0 0 1920 1078" version="1.1" xmlns="http://www.w3.org/2000/svg" xmlns:xlink="http://www.w3.org/1999/xlink">
    <!-- Generator: Sketch 49 (51002) - http://www.bohemiancoding.com/sketch -->
    <title>Img-404</title>
    <desc>Created with Sketch.</desc>
    <defs>
        <rect id="path-1" x="0" y="0" width="1920" height="1080"></rect>
        <linearGradient x1="50%" y1="0%" x2="50%" y2="100%" id="linearGradient-3">
            <stop stop-color="#D7ECFF" offset="0%"></stop>
            <stop stop-color="#AFFFFE" offset="100%"></stop>
        </linearGradient>
        <linearGradient x1="50%" y1="0%" x2="50%" y2="100%" id="linearGradient-4">
            <stop stop-color="#00B2BA" offset="0%"></stop>
            <stop stop-color="#163050" offset="100%"></stop>
        </linearGradient>
        <path d="M363,267.645771 C310.766791,263.649201 303.050683,246.59375 237.193359,246.59375 C162.595898,246.59375 165.071635,271.099891 87.9984375,268.476563 C41.3952886,266.890338 23.1876541,256.174542 0,247.546929 L0,0.99609375 L363,0.99609375 L363,267.645771 Z" id="path-5"></path>
        <path d="M78.8645,357.113 C39.6235,348.947 13.6875,325.601 3.8585,289.599 C-4.4585,259.136 3.5755,230.246 27.7365,203.73 C46.5885,183.041 71.6195,167.749 89.8955,156.584 C97.7405,151.791 104.5155,147.652 107.9445,144.803 C141.2115,117.178 153.868016,92.0510469 141.541016,65.1230469 C131.399016,42.9680469 115.242188,34.8535156 95.5275,37.158 C75.8128125,39.4624844 50.4665,52.464 44.8225,77.331 C40.5825,96.01 46.5755,112.493 62.6335,126.324 C68.9105,131.73 69.6165,141.201 64.2095,147.478 C58.8045,153.755 49.3335,154.462 43.0555,149.054 C10.1035,120.675 11.6885,87.775 15.5665,70.69 C19.8915,51.637 28.9155,35.307 41.6665,23.47 C53.8305,12.176 74.1005,2.331 90.2765,0.658 C123.7585,-2.809 155.5985,14.451 171.0275,48.158 C181.7935,71.675 181.9055,105.249 171.0275,127.658 C163.5395,143.085 156.1145,155.648 137.5275,171.084 C132.4265,175.32 103.2675,198.874 95.0785,205.892 C56.5785,238.892 36.0275,245.351 44.0275,281.158 C49.6485,306.318 68.7795,313.149 95.0275,321.658 C116.9055,328.75 127.6835,329.048 127.8925,329.013 C136.0445,327.654 143.7845,333.158 145.1595,341.313 C146.5345,349.47 141.0665,357.196 132.9145,358.59 C132.2915,358.696 123.2555,360.199 110.1865,360.199 C101.1835,360.199 90.2675,359.486 78.8645,357.113 Z" id="path-7"></path>
        <linearGradient x1="0.25781251%" y1="49.7500002%" x2="101.257813%" y2="49.7500002%" id="linearGradient-9">
            <stop stop-color="#53A0FD" offset="0%"></stop>
            <stop stop-color="#91FDFF" offset="100%"></stop>
        </linearGradient>
        <linearGradient x1="50%" y1="100%" x2="50%" y2="3.061617e-15%" id="linearGradient-10">
            <stop stop-color="#F1F1F1" offset="0%"></stop>
            <stop stop-color="#FFFFFF" offset="100%"></stop>
        </linearGradient>
    </defs>
    <g id="主页&amp;公共" stroke="none" stroke-width="1" fill="none" fill-rule="evenodd">
        <g id="Error-404">
            <g id="Img-404">
                <mask id="mask-2" fill="white">
                    <use xlink:href="#path-1"></use>
                </mask>
                <g id="Mask">
                    <use fill="#D8D8D8" fill-rule="evenodd" xlink:href="#path-1"></use>
                    <rect stroke="#979797" stroke-width="1" x="0.5" y="0.5" width="1919" height="1079"></rect>
                </g>
                <g mask="url(#mask-2)">
                    <g transform="translate(-237.000000, -531.000000)">
                        <rect id="天" fill="url(#linearGradient-3)" x="237" y="531" width="1920" height="1078"></rect>
                        <g id="海" stroke-width="1" fill="none" transform="translate(0.000000, 891.000000)">
                            <path d="M0,732.988281 L0,18.8155209 C20.2871195,26.2177644 38.9702526,34.1157403 79.0355469,34.0546875 C153.263574,33.9415763 147.127416,24.2622388 221.859375,23.4707031 C271.583266,22.9440445 287.117194,6.7569793 345.988281,8.9921875 C404.859368,11.2273957 403.18616,33.5443953 456.792969,32.390625 C510.399778,31.2368547 499.568318,13.0847254 561.015625,12.0951421 C622.462932,11.1055587 656.531068,35.7389672 691.875,34.0546875 C737.754745,31.8683341 764.608361,6.64364627 806.190625,6.21484375 C879.806212,5.45570882 880.580606,30.9443736 954.869922,31 C1029.15924,31.0556264 1028.8901,6.08834972 1103.54922,6.4375 C1178.20834,6.78665028 1179.9059,29.9204539 1252.22852,32.390625 C1324.55114,34.8607961 1326.29005,16.1732374 1400.90781,16.59375 C1475.52558,17.0142626 1474.3448,35.2584411 1549.58711,34.0664063 C1624.82942,32.8743714 1670.23828,12.1875 1726.57422,16.59375 C1782.91016,21 1783.49031,47.0134591 1860.38281,43.0195312 C1937.27532,39.0256034 1959.61655,0.01171875 2005.94922,0.01171875 C2032.31692,0.01171875 2041.08681,12.0980725 2076.25852,12.0951421 C2111.43023,12.0922116 2120.21717,-5.49841032e-14 2146.59766,0 C2192.28855,9.84342293e-14 2214.64803,37.9405604 2289,42.8218848 L2289,732.988281 L2081.00009,732.988281 L368,733 L0,732.988281 Z" id="Combined-Shape" fill="#74C8E2" opacity="0.800000012"></path>
                            <path d="M132,722.652695 L132,25.244362 C161.623723,18.2586189 177.864058,6.89298284 228.586328,6.09019465 C302.174558,4.92550382 305.989821,26.1988993 358.482422,26.2773438 C410.975023,26.3557882 420.573447,6.4375 460.992188,6.4375 C501.410928,6.4375 507.680563,31 563.490234,31 C619.299906,31 614.980159,6.4375 687.413672,6.4375 C759.847184,6.4375 762.011133,31 836.608594,31 C911.206055,31 913.089877,4.6155611 985.803516,6.4375 C1058.51715,8.2594389 1057.92524,35.8532337 1134.99844,38.4765625 C1212.07163,41.0998913 1209.5959,16.59375 1284.19336,16.59375 C1358.79082,16.59375 1358.79082,38.4765625 1433.38828,38.4765625 C1507.98574,38.4765625 1507.98574,16.59375 1582.5832,16.59375 C1657.18066,16.59375 1654.81567,33.9699127 1731.77813,38.4765625 C1808.74058,42.9832123 1808.61347,19.6032336 1879.35156,11.8476562 C1950.08965,4.09207895 1960.14335,22.6423304 2000.71289,21.5 C2041.28243,20.3576696 2042.65806,8.29498336 2083.82617,6.09019465 C2124.99428,3.88540593 2148.81179,11.226455 2173.08203,16.59375 L2171,723 L458,723 L132,722.652695 Z" id="Combined-Shape" fill="url(#linearGradient-4)" opacity="0.900000036"></path>
                        </g>
                        <g id="船" stroke-width="1" fill="none" transform="translate(1047.000000, 661.000000)">
                            <mask id="mask-6" fill="white">
                                <use xlink:href="#path-5"></use>
                            </mask>
                            <g id="Combined-Shape" opacity="0.900000036"></g>
                            <g id="Page-1" mask="url(#mask-6)">
                                <g transform="translate(66.000000, 116.000000)">
                                    <polygon id="Fill-1" fill="#303030" points="197.5544 130.3273 182.9884 122.2483 221.4584 52.8783 236.0214 60.9633"></polygon>
                                    <polygon id="Fill-2" fill="#424242" points="237.5886 66.8322 215.6456 54.6622 221.2066 44.6392 243.1466 56.8072"></polygon>
                                    <polygon id="Fill-3" fill="#303030" points="156.7487 107.2365 142.1827 99.1575 180.6527 29.7875 195.2157 37.8715"></polygon>
                                    <polygon id="Fill-4" fill="#424242" points="196.7829 43.7414 174.8409 31.5714 180.4009 21.5484 202.3419 33.7164"></polygon>
                                    <polygon id="Fill-5" fill="#303030" points="115.1272 85.6877 100.5612 77.6097 139.0312 8.2387 153.5952 16.3237"></polygon>
                                    <polygon id="Fill-6" fill="#424242" points="138.7797 0.0002 133.2187 10.0232 155.1617 22.1922 160.7197 12.1672"></polygon>
                                    <polygon id="Fill-7" fill="#EA5E5E" points="238.9489 157.8927 74.1199 66.4827 59.4769 92.8797 176.7059 157.8927"></polygon>
                                    <polygon id="Fill-8" fill="#D32424" points="238.9489 157.8927 74.1199 66.4827 70.2619 73.4407 222.5429 157.8927"></polygon>
                                    <g id="Group-53" stroke-width="1" fill="none" transform="translate(0.000000, 48.974000)">
                                        <path d="M89.1037,43.0691 C89.1037,46.6771 86.1767,49.6041 82.5657,49.6041 C78.9547,49.6041 76.0257,46.6771 76.0257,43.0691 C76.0257,39.4551 78.9547,36.5291 82.5657,36.5291 C86.1767,36.5291 89.1037,39.4551 89.1037,43.0691" id="Fill-9" fill="#FFFFFF"></path>
                                        <path d="M86.5827,43.0691 C86.5827,45.2861 84.7847,47.0851 82.5657,47.0851 C80.3467,47.0851 78.5467,45.2861 78.5467,43.0691 C78.5467,40.8491 80.3467,39.0481 82.5657,39.0481 C84.7847,39.0481 86.5827,40.8491 86.5827,43.0691" id="Fill-11" fill="#424242"></path>
                                        <path d="M113.7067,57.2273 C113.7067,60.8383 110.7787,63.7653 107.1667,63.7653 C103.5577,63.7653 100.6307,60.8383 100.6307,57.2273 C100.6307,53.6163 103.5577,50.6903 107.1667,50.6903 C110.7787,50.6903 113.7067,53.6163 113.7067,57.2273" id="Fill-13" fill="#FFFFFF"></path>
                                        <path d="M111.1867,57.2273 C111.1867,59.4453 109.3857,61.2463 107.1667,61.2463 C104.9477,61.2463 103.1507,59.4453 103.1507,57.2273 C103.1507,55.0083 104.9477,53.2093 107.1667,53.2093 C109.3857,53.2093 111.1867,55.0083 111.1867,57.2273" id="Fill-15" fill="#424242"></path>
                                        <path d="M137.3181,70.1551 C137.3181,73.7681 134.3871,76.6951 130.7761,76.6951 C127.1671,76.6951 124.2381,73.7681 124.2381,70.1551 C124.2381,66.5461 127.1671,63.6171 130.7761,63.6171 C134.3871,63.6171 137.3181,66.5461 137.3181,70.1551" id="Fill-17" fill="#FFFFFF"></path>
                                        <path d="M134.7961,70.1551 C134.7961,72.3751 132.9971,74.1751 130.7761,74.1751 C128.5591,74.1751 126.7581,72.3751 126.7581,70.1551 C126.7581,67.9381 128.5591,66.1391 130.7761,66.1391 C132.9971,66.1391 134.7961,67.9381 134.7961,70.1551" id="Fill-19" fill="#424242"></path>
                                        <path d="M164.2399,85.4812 C164.2399,89.0912 161.3089,92.0182 157.6979,92.0182 C154.0889,92.0182 151.1619,89.0912 151.1619,85.4812 C151.1619,81.8692 154.0889,78.9432 157.6979,78.9432 C161.3089,78.9432 164.2399,81.8692 164.2399,85.4812" id="Fill-21" fill="#FFFFFF"></path>
                                        <path d="M161.718,85.4812 C161.718,87.6982 159.919,89.4992 157.7,89.4992 C155.483,89.4992 153.684,87.6982 153.684,85.4812 C153.684,83.2612 155.483,81.4622 157.7,81.4622 C159.919,81.4622 161.718,83.2612 161.718,85.4812" id="Fill-23" fill="#424242"></path>
                                        <polygon id="Fill-25" fill="#424242" points="220.9553 76.8738 91.6363 5.1558 94.4163 0.1448 223.7373 71.8618"></polygon>
                                        <polygon id="Fill-27" fill="#424242" points="101.4235 6.3982 92.7765 21.9922 87.7625 19.2112 96.4115 3.6202"></polygon>
                                        <polygon id="Fill-29" fill="#424242" points="120.8278 18.199 112.1808 33.793 107.1668 31.013 115.8168 15.419"></polygon>
                                        <polygon id="Fill-31" fill="#424242" points="145.1242 30.7615 136.4782 46.3535 131.4652 43.5735 140.1142 27.9815"></polygon>
                                        <polygon id="Fill-33" fill="#424242" points="164.5285 42.5603 155.8825 58.1543 150.8715 55.3733 159.5165 39.7803"></polygon>
                                        <polygon id="Fill-35" fill="#424242" points="183.0266 50.8201 174.3796 66.4141 169.3656 63.6331 178.0126 48.0421"></polygon>
                                        <polygon id="Fill-37" fill="#424242" points="202.4289 62.6189 193.7819 78.2149 188.7699 75.4349 197.4149 59.8419"></polygon>
                                        <polygon id="Fill-39" fill="#424242" points="219.8967 73.8474 211.2507 89.4414 206.2397 86.6604 214.8867 71.0684"></polygon>
                                        <polygon id="Fill-41" fill="#BCBCBC" points="253.5432 108.9187 73.8672 9.2727 68.3072 19.2967 229.9092 108.9187"></polygon>
                                        <path d="M12.237,20.5857 C12.237,20.5857 -5.632,53.6247 3.134,108.9187 L166.65,108.9187 L12.237,20.5857 Z" id="Fill-43" fill="#FFFFFF"></path>
                                        <path d="M19.2658,24.6072 C19.2658,24.6072 13.5208,32.3582 14.0408,43.0662 C14.5608,53.7752 27.0478,40.5162 35.3718,48.9662 C43.6958,57.4172 36.4118,69.6022 52.0208,74.1742 C67.6288,78.7482 81.8238,69.3912 91.6348,81.3532 C101.4458,93.3152 118.6148,80.2552 118.6148,80.2552 L19.2658,24.6072 Z" id="Fill-45" fill="#E8E9EA"></path>
                                        <polygon id="Fill-47" fill="#BCBCBC" points="7.1799 20.2498 163.6139 108.9188 176.0909 108.9188 10.5529 13.8428"></polygon>
                                    </g>
                                </g>
                            </g>
                        </g>
                        <g id="气泡" stroke-width="1" fill="none" transform="translate(783.000000, 994.000000)">
                            <circle id="Oval-2" fill="#FFFFFF" opacity="0.800000012" cx="437" cy="21" r="7"></circle>
                            <circle id="Oval-2-Copy-2" fill="#FFFFFF" opacity="0.800000012" cx="203" cy="37" r="7"></circle>
                            <circle id="Oval-2-Copy-5" fill="#FFFFFF" opacity="0.800000012" cx="408" cy="174" r="9"></circle>
                            <circle id="Oval-2-Copy-29" fill="#FFFFFF" opacity="0.800000012" cx="609" cy="28" r="9"></circle>
                            <circle id="Oval-2-Copy-26" fill="#FFFFFF" opacity="0.800000012" cx="185.5" cy="199.5" r="6.5"></circle>
                            <circle id="Oval-2-Copy-27" fill="#FFFFFF" opacity="0.800000012" cx="187.5" cy="172.5" r="4.5"></circle>
                            <circle id="Oval-2-Copy-32" fill="#FFFFFF" opacity="0.300000012" cx="580.5" cy="291.5" r="4.5"></circle>
                            <circle id="Oval-2-Copy-9" fill="#FFFFFF" opacity="0.100000001" cx="424" cy="159" r="4"></circle>
                            <circle id="Oval-2-Copy-10" fill="#FFFFFF" cx="531" cy="204" r="3"></circle>
                            <circle id="Oval-2-Copy-30" fill="#FFFFFF" cx="597" cy="48" r="3"></circle>
                            <circle id="Oval-2-Copy-6" fill="#FFFFFF" opacity="0.800000012" cx="494" cy="164" r="4"></circle>
                            <circle id="Oval-2-Copy-7" fill="#FFFFFF" opacity="0.800000012" cx="516" cy="207" r="6"></circle>
                            <g id="气泡-copy" opacity="0.200000003" transform="translate(90.287977, 425.923296) rotate(-101.000000) translate(-90.287977, -425.923296) translate(-38.212023, 358.923296)" fill="#FFFFFF">
                                <circle id="Oval-2" opacity="0.800000012" cx="154" cy="10.5" r="3.5"></circle>
                                <circle id="Oval-2-Copy-2" opacity="0.800000012" cx="51.5" cy="24" r="3.5"></circle>
                                <circle id="Oval-2-Copy-5" opacity="0.800000012" cx="139.5" cy="87" r="4.5"></circle>
                                <circle id="Oval-2-Copy-29" opacity="0.800000012" cx="240" cy="14" r="4.5"></circle>
                                <circle id="Oval-2-Copy-26" opacity="0.800000012" cx="26.75" cy="90.25" r="3.25"></circle>
                                <circle id="Oval-2-Copy-27" opacity="0.800000012" cx="2.25" cy="91.75" r="2.25"></circle>
                                <circle id="Oval-2-Copy-32" opacity="0.300000012" cx="226.75" cy="131.75" r="2.25"></circle>
                                <circle id="Oval-2-Copy-9" opacity="0.100000001" cx="147.5" cy="79.5" r="2"></circle>
                                <circle id="Oval-2-Copy-33" opacity="0.100000001" cx="16" cy="98.5" r="2"></circle>
                                <circle id="Oval-2-Copy-10" cx="201" cy="102" r="1.5"></circle>
                                <circle id="Oval-2-Copy-30" cx="234" cy="24" r="1.5"></circle>
                                <circle id="Oval-2-Copy-6" opacity="0.800000012" cx="182.5" cy="82" r="2"></circle>
                                <circle id="Oval-2-Copy-7" opacity="0.800000012" cx="253" cy="131" r="3"></circle>
                                <circle id="Oval-2-Copy-8" opacity="0.800000012" cx="255" cy="126" r="2"></circle>
                                <circle id="Oval-2-Copy" cx="148.25" cy="2.25" r="2.25"></circle>
                                <circle id="Oval-2-Copy-28" cx="59.25" cy="29.75" r="2.25"></circle>
                                <circle id="Oval-2-Copy-3" cx="124.75" cy="63.75" r="2.25"></circle>
                                <circle id="Oval-2-Copy-4" cx="124.75" cy="82.25" r="2.25"></circle>
                                <circle id="Oval-2-Copy-31" cx="242.25" cy="27.75" r="2.25"></circle>
                            </g>
                            <g id="气泡-copy-3" opacity="0.200000003" transform="translate(417.000000, 425.923296) rotate(-101.000000) translate(-417.000000, -425.923296) translate(288.500000, 358.923296)" fill="#FFFFFF">
                                <circle id="Oval-2" opacity="0.800000012" cx="154" cy="10.5" r="3.5"></circle>
                                <circle id="Oval-2-Copy-2" opacity="0.800000012" cx="51.5" cy="24" r="3.5"></circle>
                                <circle id="Oval-2-Copy-5" opacity="0.800000012" cx="139.5" cy="87" r="4.5"></circle>
                                <circle id="Oval-2-Copy-29" opacity="0.800000012" cx="240" cy="14" r="4.5"></circle>
                                <circle id="Oval-2-Copy-26" opacity="0.800000012" cx="26.75" cy="90.25" r="3.25"></circle>
                                <circle id="Oval-2-Copy-27" opacity="0.800000012" cx="2.25" cy="91.75" r="2.25"></circle>
                                <circle id="Oval-2-Copy-32" opacity="0.300000012" cx="226.75" cy="131.75" r="2.25"></circle>
                                <circle id="Oval-2-Copy-9" opacity="0.100000001" cx="147.5" cy="79.5" r="2"></circle>
                                <circle id="Oval-2-Copy-33" opacity="0.100000001" cx="16" cy="98.5" r="2"></circle>
                                <circle id="Oval-2-Copy-10" cx="201" cy="102" r="1.5"></circle>
                                <circle id="Oval-2-Copy-30" cx="234" cy="24" r="1.5"></circle>
                                <circle id="Oval-2-Copy-6" opacity="0.800000012" cx="182.5" cy="82" r="2"></circle>
                                <circle id="Oval-2-Copy-7" opacity="0.800000012" cx="253" cy="131" r="3"></circle>
                                <circle id="Oval-2-Copy-8" opacity="0.800000012" cx="255" cy="126" r="2"></circle>
                                <circle id="Oval-2-Copy" cx="148.25" cy="2.25" r="2.25"></circle>
                                <circle id="Oval-2-Copy-28" cx="59.25" cy="29.75" r="2.25"></circle>
                                <circle id="Oval-2-Copy-3" cx="124.75" cy="63.75" r="2.25"></circle>
                                <circle id="Oval-2-Copy-4" cx="124.75" cy="82.25" r="2.25"></circle>
                                <circle id="Oval-2-Copy-31" cx="242.25" cy="27.75" r="2.25"></circle>
                            </g>
                            <g id="气泡-copy-2" opacity="0.200000003" transform="translate(712.500000, 457.000000) rotate(157.000000) translate(-712.500000, -457.000000) translate(584.000000, 390.000000)" fill="#FFFFFF">
                                <circle id="Oval-2" opacity="0.800000012" cx="154" cy="10.5" r="3.5"></circle>
                                <circle id="Oval-2-Copy-2" opacity="0.800000012" cx="51.5" cy="24" r="3.5"></circle>
                                <circle id="Oval-2-Copy-5" opacity="0.800000012" cx="139.5" cy="87" r="4.5"></circle>
                                <circle id="Oval-2-Copy-29" opacity="0.800000012" cx="240" cy="14" r="4.5"></circle>
                                <circle id="Oval-2-Copy-26" opacity="0.800000012" cx="26.75" cy="90.25" r="3.25"></circle>
                                <circle id="Oval-2-Copy-27" opacity="0.800000012" cx="2.25" cy="91.75" r="2.25"></circle>
                                <circle id="Oval-2-Copy-32" opacity="0.300000012" cx="226.75" cy="131.75" r="2.25"></circle>
                                <circle id="Oval-2-Copy-9" opacity="0.100000001" cx="147.5" cy="79.5" r="2"></circle>
                                <circle id="Oval-2-Copy-33" opacity="0.100000001" cx="16" cy="98.5" r="2"></circle>
                                <circle id="Oval-2-Copy-10" cx="201" cy="102" r="1.5"></circle>
                                <circle id="Oval-2-Copy-30" cx="234" cy="24" r="1.5"></circle>
                                <circle id="Oval-2-Copy-6" opacity="0.800000012" cx="182.5" cy="82" r="2"></circle>
                                <circle id="Oval-2-Copy-7" opacity="0.800000012" cx="253" cy="131" r="3"></circle>
                                <circle id="Oval-2-Copy-8" opacity="0.800000012" cx="255" cy="126" r="2"></circle>
                                <circle id="Oval-2-Copy" cx="148.25" cy="2.25" r="2.25"></circle>
                                <circle id="Oval-2-Copy-28" cx="59.25" cy="29.75" r="2.25"></circle>
                                <circle id="Oval-2-Copy-3" cx="124.75" cy="63.75" r="2.25"></circle>
                                <circle id="Oval-2-Copy-4" cx="124.75" cy="82.25" r="2.25"></circle>
                                <circle id="Oval-2-Copy-31" cx="242.25" cy="27.75" r="2.25"></circle>
                            </g>
                            <circle id="Oval-2-Copy-8" fill="#FFFFFF" opacity="0.800000012" cx="530" cy="221" r="4"></circle>
                            <circle id="Oval-2-Copy" fill="#FFFFFF" cx="425.5" cy="4.5" r="4.5"></circle>
                            <circle id="Oval-2-Copy-28" fill="#FFFFFF" cx="191.5" cy="64.5" r="4.5"></circle>
                            <circle id="Oval-2-Copy-3" fill="#FFFFFF" cx="378.5" cy="127.5" r="4.5"></circle>
                            <circle id="Oval-2-Copy-4" fill="#FFFFFF" cx="378.5" cy="164.5" r="4.5"></circle>
                            <circle id="Oval-2-Copy-31" fill="#FFFFFF" cx="613.5" cy="55.5" r="4.5"></circle>
                        </g>
                        <g id="触手" stroke-width="1" fill="none" transform="translate(837.000000, 1228.000000)">
                            <path d="M253.5986,425.158 C245.9756,425.158 239.4516,419.371 238.6886,411.626 C232.1056,344.721 254.8596,316.73 273.1436,294.238 C285.8806,278.571 295.9396,266.196 296.1176,241.755 C296.5516,181.843 267.0256,157.117 265.7686,156.094 L265.8856,156.186 L263.2616,151.89 C254.9256,138.241 271.4636,123.064 284.3486,132.54 C286.0766,133.889 326.6636,166.454 326.1166,241.971 C325.8626,276.946 314.3276,301.182 300.5276,318.158 C283.4276,339.194 273.1536,357.578 278.5276,412.199 C279.3396,420.443 263.3296,424.273 255.0856,425.085 C254.5866,425.134 254.0896,425.158 253.5986,425.158" id="Fill-9" fill="#20425C" opacity="0.300000012"></path>
                            <path d="M463.5156,425.158 C455.5626,425.158 443.4146,420.228 443.0276,412.199 C440.2966,355.441 456.3756,327.341 469.0276,305.158 C478.0046,289.419 489.6746,277.221 488.0786,257.892 C484.2726,211.802 465.7046,195.417 465.5176,195.257 C465.6676,195.385 465.7496,195.444 465.7496,195.444 L464.0326,192.861 C455.1616,179.52 470.6646,163.469 484.3066,171.872 C485.6776,172.951 492.8976,179.012 500.4116,192.363 C510.0216,209.437 515.9326,230.654 517.9766,255.424 C520.3376,284.012 510.1366,301.898 500.2706,319.195 C488.4356,339.944 476.1986,361.4 478.5106,409.437 C478.9086,417.712 472.5236,424.742 464.2486,425.14 C464.0036,425.152 463.7586,425.158 463.5156,425.158" id="Fill-11" fill="#20425C" opacity="0.300000012"></path>
                            <path d="M209.7216,412.199 C204.8946,412.199 200.1546,409.873 197.2596,405.565 C192.6426,398.697 166.5276,394.658 166.5276,394.658 C167.0196,394.325 235.9066,348.595 235.4386,309.158 C235.1586,285.497 221.3586,259.031 200.5276,229.158 C167.0736,181.182 137.8676,127.457 161.6856,66.227 C177.9146,24.506 205.4956,9.07 225.7756,3.469 C247.5376,-2.542 273.4066,-0.697 298.6186,8.668 C306.3846,11.553 310.3416,20.186 307.4576,27.952 C304.5736,35.719 295.9396,39.675 288.1736,36.791 C276.9666,32.628 263.2586,28.293 242.0276,34.158 C222.1596,39.646 210.0546,58.48 202.0276,83.158 C185.7386,133.239 213.9746,162.636 243.0276,203.158 C267.0136,236.614 288.5366,278.294 288.9266,311.186 C289.5866,366.894 220.6336,407.927 218.0766,409.645 C215.5086,411.372 212.5996,412.199 209.7216,412.199" id="Fill-1" fill="#1B3956" opacity="0.900000036"></path>
                            <path d="M275.857422,391.845703 C276.045422,391.619703 303.666969,372.853391 317.417969,345.775391 C329.490969,321.999391 350.289063,293.826172 338.329102,253.487305 C326.369141,213.148438 322.613281,184.453125 329.0281,143.1579 C335.442919,101.862675 360.1001,64.4009 390.3931,34.1079 C396.2511,28.2509 405.7491,28.2509 411.6061,34.1079 C417.4641,39.9659 417.4641,49.4639 411.6061,55.3209 C386.2091,80.7189 372.5831,110.8909 369.9511,147.5609 C367.3661,183.5799 375.917398,216.64607 383.608398,244.74707 C403.883398,318.83007 351.383437,397.368359 348.398437,400.943359 C345.432437,404.497359 270.556422,398.204703 275.857422,391.845703 Z" id="Fill-4" fill="#1B3956" opacity="0.900000036"></path>
                            <g id="Oval-2-Copy-11" transform="translate(393.000000, 52.000000)">
                                <mask id="mask-8" fill="white">
                                    <use xlink:href="#path-7"></use>
                                </mask>
                                <use id="Mask" fill="#1B3956" opacity="0.900000036" xlink:href="#path-7"></use>
                            </g>
                            <path d="M144.5421,481.331836 C113.102734,474.789346 92.3231574,456.084842 84.4482938,427.24052 C77.7848244,402.833971 84.2215579,379.687688 103.579029,358.443423 C118.683,341.867672 138.737503,329.615926 153.37999,320.670677 C159.665299,316.830589 165.093339,313.514478 167.840608,311.231897 C194.493684,289.099116 204.633916,268.967736 194.757688,247.393382 C186.632053,229.643092 173.687418,223.141837 157.892273,224.98816 C142.097129,226.834482 121.790001,237.251123 117.268104,257.174231 C113.871072,272.139597 118.672584,285.345556 131.538039,296.426769 C136.567088,300.757984 137.132726,308.346023 132.80071,313.375071 C128.470296,318.40412 120.882257,318.970559 115.852407,314.637742 C89.4517044,291.900865 90.7215853,265.541825 93.8285871,251.853551 C97.2937194,236.588541 104.523628,223.505163 114.739559,214.021517 C124.485193,204.972915 140.725247,197.085232 153.685242,195.744847 C180.510574,192.967133 206.020357,206.795614 218.381866,233.801213 C227.007441,252.642719 227.097174,279.54176 218.381866,297.495552 C212.38258,309.855458 206.433769,319.920766 191.542113,332.287884 C187.45526,335.68171 164.093458,354.552861 157.53254,360.175589 C126.686854,386.614748 110.221667,391.789613 116.631161,420.477703 C121.134631,440.63556 136.462133,446.108466 157.49168,452.925763 C175.020042,458.607779 183.655231,458.846532 183.822679,458.818491 C190.353953,457.729678 196.555138,462.139409 197.656769,468.673087 C198.758401,475.208366 194.377512,481.398334 187.846239,482.515188 C187.347099,482.600114 180.107577,483.804298 169.636868,483.804298 C162.423785,483.804298 153.678031,483.233052 144.5421,481.331836 Z" id="Mask-Copy" fill="#1B3956" opacity="0.300000012" transform="translate(153.394012, 339.599321) rotate(-46.000000) translate(-153.394012, -339.599321) "></path>
                            <path d="M550.746036,513.81952 C547.186773,513.81952 543.691661,512.104408 541.556988,508.927838 C538.152572,503.863613 518.896276,500.885394 518.896276,500.885394 C519.259059,500.639851 570.053948,466.920132 569.708861,437.840654 C569.502399,420.393852 559.326757,400.878739 543.966698,378.851423 C519.298877,343.475582 497.763384,303.860627 515.325952,258.711745 C527.292655,227.948124 547.62993,216.566152 562.5837,212.436168 C578.630245,208.003865 597.70515,209.364304 616.295606,216.269731 C622.021986,218.39703 624.93974,224.762705 622.813179,230.489085 C620.686617,236.216202 614.320204,239.133219 608.593825,237.006657 C600.330171,233.937005 590.222366,230.740526 574.567362,235.065174 C559.917386,239.111835 550.991578,252.999375 545.072747,271.196078 C533.061802,308.124073 553.882051,329.800404 575.304727,359.679924 C592.991173,384.34922 608.861488,415.082609 609.149061,439.336031 C609.635722,480.413181 558.792167,510.669495 556.906724,511.936289 C555.013169,513.209719 552.868173,513.81952 550.746036,513.81952" id="Fill-1-Copy" fill="#1B3956" opacity="0.300000012" transform="translate(566.214681, 361.849059) rotate(37.000000) translate(-566.214681, -361.849059) "></path>
                        </g>
                        <circle id="Oval-3-Copy" fill="url(#linearGradient-9)" opacity="0.100000001" cx="1570.5" cy="688.5" r="29.5"></circle>
                        <path d="M1765.07631,699.927933 C1765.02576,699.291949 1765,698.648983 1765,698 C1765,684.745166 1775.74517,674 1789,674 C1801.60193,674 1811.93534,683.712665 1812.92277,696.06053 C1815.15992,695.371132 1817.53662,695 1820,695 C1833.25483,695 1844,705.745166 1844,719 C1844,720.47937 1843.86615,721.927477 1843.6099,723.332873 C1849.71532,725.911888 1854,731.955574 1854,739 C1854,748.388841 1846.38884,756 1837,756 C1833.03702,756 1829.39076,754.643967 1826.49991,752.37059 C1823.10287,761.498039 1814.31074,768 1804,768 C1794.78442,768 1786.78199,762.805907 1782.7605,755.185522 C1780.34167,760.950719 1774.64372,765 1768,765 C1762.08403,765 1756.91797,761.789238 1754.14933,757.015225 C1748.51042,761.985064 1741.1073,765 1733,765 C1715.32689,765 1701,750.673112 1701,733 C1701,715.326888 1715.32689,701 1733,701 C1741.41105,701 1749.06417,704.245087 1754.77566,709.551563 C1757.0904,705.30936 1760.70867,701.912563 1765.07631,699.927933 Z" id="云" fill="url(#linearGradient-10)"></path>
                        <path d="M705.281523,750.342155 C705.23791,749.794127 705.215686,749.240081 705.215686,748.680851 C705.215686,737.259132 714.486026,728 725.921569,728 C736.793819,728 745.708919,736.369424 746.560821,747.009605 C748.490911,746.41555 750.541396,746.095745 752.666667,746.095745 C764.10221,746.095745 773.372549,755.354877 773.372549,766.776596 C773.372549,768.051372 773.257071,769.299209 773.035992,770.510241 C778.303416,772.732585 782,777.940442 782,784.010638 C782,792.101022 775.43351,798.659574 767.333333,798.659574 C763.914293,798.659574 760.7685,797.491078 758.274432,795.532104 C755.343652,803.397247 747.758287,809 738.862745,809 C730.91205,809 724.007991,804.524239 720.538473,797.957737 C718.451638,802.925619 713.535755,806.414894 707.803922,806.414894 C702.699946,806.414894 698.242954,803.648174 695.854327,799.534396 C690.989382,803.816917 684.602375,806.414894 677.607843,806.414894 C662.360452,806.414894 650,794.069384 650,778.840426 C650,763.611467 662.360452,751.265957 677.607843,751.265957 C684.864436,751.265957 691.467127,754.062255 696.39469,758.634858 C698.391721,754.979342 701.513366,752.052315 705.281523,750.342155 Z" id="云" fill="url(#linearGradient-10)"></path>
                    </g>
                </g>
            </g>
        </g>
    </g>
</svg>