<?xml version="1.0" encoding="UTF-8"?>
<svg width="50px" height="50px" viewBox="0 0 50 50" version="1.1" xmlns="http://www.w3.org/2000/svg" xmlns:xlink="http://www.w3.org/1999/xlink">
  <!-- Generator: Sketch 51 (57462) - http://www.bohemiancoding.com/sketch -->
  <title>CoinLogo/OMT</title>
  <desc>Created with Sketch.</desc>
  <defs>
    <linearGradient x1="0%" y1="0%" x2="100.028139%" y2="99.047472%" id="linearGradient-1">
      <stop stop-color="#0BBFD5" offset="0%"></stop>
      <stop stop-color="#6DD7B2" offset="100%"></stop>
    </linearGradient>
  </defs>
  <g id="CoinLogo/OMT" stroke="none" stroke-width="1" fill="none" fill-rule="evenodd">
    <g id="OMT" transform="translate(2.000000, 2.000000)" fill-rule="nonzero">
      <circle id="Oval-2" fill="url(#linearGradient-1)" cx="23" cy="23" r="23"></circle>
      <path d="M39.1489362,21.5319149 L38.1103684,21.5319149 C37.2968511,19.2511128 35.1017752,17.6170213 32.5215478,17.6170213 C29.2486959,17.6170213 26.5955253,20.2461576 26.5955253,23.4893617 C26.5955253,26.7325658 29.2486959,29.3617021 32.5215478,29.3617021 C35.1017752,29.3617021 37.2968511,27.7276106 38.1103684,25.4468085 L39.1489362,25.4468085 C38.2989972,28.2767764 35.6534711,30.3404255 32.5215478,30.3404255 C28.7032206,30.3404255 25.6078548,27.2730998 25.6078548,23.4893617 C25.6078548,19.7056237 28.7032206,16.6382979 32.5215478,16.6382979 C35.6534711,16.6382979 38.2989972,18.701947 39.1489362,21.5319149 Z M24.1592716,15.6595745 L24.1592716,30.3404255 L23.1716012,30.3404255 L23.1716012,15.6595745 L9.80512808,15.6595745 L9.80512808,14.6808511 L37.4598999,14.6808511 L37.4598999,15.6595745 L24.1592716,15.6595745 Z M14.7434802,30.3404255 C10.925153,30.3404255 7.82978723,27.2730998 7.82978723,23.4893617 C7.82978723,19.7056237 10.925153,16.6382979 14.7434802,16.6382979 C18.5618074,16.6382979 21.6571732,19.7056237 21.6571732,23.4893617 C21.6571732,27.2730998 18.5618074,30.3404255 14.7434802,30.3404255 Z" id="Otc" fill="#FFFFFF"></path>
    </g>
  </g>
</svg>
