<?xml version="1.0" encoding="UTF-8"?>
<svg width="21px" height="21px" viewBox="0 0 21 21" version="1.1" xmlns="http://www.w3.org/2000/svg" xmlns:xlink="http://www.w3.org/1999/xlink">
    <!-- Generator: Sketch 50 (54983) - http://www.bohemiancoding.com/sketch -->
    <title>navigationbar-assets-activation</title>
    <desc>Created with Sketch.</desc>
    <defs>
        <path d="M10.5,0 C4.701375,0 0,4.701375 0,10.5 C0,16.298625 4.701375,21 10.5,21 C16.298625,21 21,16.298625 21,10.5 C21,4.701375 16.298625,0 10.5,0 Z M11.375,15.624875 L11.375,17.5 L9.625,17.5 L9.625,15.630125 C7.76125,15.381625 6.587875,14.2975 6.52225,12.691 L8.518125,12.691 C8.6135,13.49075 9.42025,14.0035 10.58225,14.0035 C11.655875,14.0035 12.4145,13.48375 12.4145,12.739125 C12.4145,12.11 11.92275,11.74775 10.712625,11.487875 L9.42725,11.214875 C7.629125,10.838625 6.748,9.902375 6.748,8.39825 C6.748,6.797 7.86275,5.67175 9.625,5.389125 L9.625,3.5 L11.375,3.5 L11.375,5.3865 C13.0865,5.663875 14.2415,6.7725 14.294875,8.288875 L12.35325,8.288875 C12.257875,7.50925 11.5325,6.990375 10.535,6.990375 C9.5025,6.990375 8.819125,7.469 8.819125,8.220625 C8.819125,8.82875 9.29075,9.177875 10.44575,9.42375 L11.634875,9.676625 C13.617625,10.094 14.471625,10.948 14.471625,12.47925 C14.4725,14.2135 13.31225,15.35975 11.375,15.624875 Z" id="path-1"></path>
        <linearGradient x1="0%" y1="0%" x2="100.028139%" y2="99.047472%" id="linearGradient-3">
            <stop stop-color="#0BBFD5" offset="0%"></stop>
            <stop stop-color="#6DD7B2" offset="100%"></stop>
        </linearGradient>
    </defs>
    <g id="Page-1" stroke="none" stroke-width="1" fill="none" fill-rule="evenodd">
        <g id="Icon/Asset">
            <mask id="mask-2" fill="white">
                <use xlink:href="#path-1"></use>
            </mask>
            <use fill="#999999" fill-rule="nonzero" xlink:href="#path-1"></use>
            <g id="Color/Menu" mask="url(#mask-2)" fill="url(#linearGradient-3)" fill-rule="evenodd">
                <rect x="0" y="0" width="21" height="21"></rect>
            </g>
        </g>
    </g>
</svg>