<?xml version="1.0" encoding="UTF-8"?>
<svg width="21px" height="18px" viewBox="0 0 21 18" version="1.1" xmlns="http://www.w3.org/2000/svg" xmlns:xlink="http://www.w3.org/1999/xlink">
    <!-- Generator: Sketch 50 (54983) - http://www.bohemiancoding.com/sketch -->
    <title>navigationbar-trade-notactive</title>
    <desc>Created with Sketch.</desc>
    <defs>
        <path d="M8.58779426,7.24596557 C8.45219658,7.27589074 8.31127849,7.29166667 8.16666667,7.29166667 C7.09255556,7.29166667 6.22222222,6.42133333 6.22222222,5.34722222 L6.22222222,4.95833333 L12.6117913,2.74934217 C12.7992118,2.669302 13.0055434,2.625 13.2222222,2.625 C13.5236575,2.625 13.8050673,2.71073899 14.0433949,2.85916008 L17.8888889,4.95833333 L21,4.18055556 L21,13.5138889 L19.4335556,13.5138889 C19.3798889,12.0788889 18.7032222,11.5632222 18.0187778,10.8787778 C17.3055556,10.1655556 13.2222222,6.51077778 13.2222222,6.51077778 L8.58779426,7.24596557 Z M8.07419626,19.0941589 L1.24911111,11.9583333 L0.0124444444,11.9583333 L0,2.625 L8.16666667,2.625 C8.16666667,2.625 6.56444444,3.18266667 6.034,3.37788889 C5.50277778,3.57233333 4.66666667,3.82433333 4.66666667,4.95833333 C4.66666667,8.59988889 7.69533333,8.96233333 8.785,8.78966667 C9.87466667,8.617 12.7221111,8.16511111 12.7221111,8.16511111 L17.3033925,12.2977804 C17.6602563,12.5828155 17.8888889,13.0216522 17.8888889,13.5138889 C17.8888889,14.3729985 17.1924429,15.0694444 16.3333333,15.0694444 C16.0437849,15.0694444 15.7727137,14.9903342 15.540555,14.8525491 C15.5504435,14.9234298 15.5555556,14.9958401 15.5555556,15.0694444 C15.5555556,15.9285541 14.8591096,16.625 14,16.625 C13.7104516,16.625 13.4393804,16.5458898 13.2072217,16.4081047 C13.2171102,16.4789853 13.2222222,16.5513957 13.2222222,16.625 C13.2222222,17.4841096 12.5257763,18.1805556 11.6666667,18.1805556 C11.3771183,18.1805556 11.1060471,18.1014453 10.8738884,17.9636602 C10.8837768,18.0345409 10.8888889,18.1069512 10.8888889,18.1805556 C10.8888889,19.0396652 10.1924429,19.7361111 9.33333333,19.7361111 C8.81560725,19.7361111 8.35695477,19.4831869 8.07419626,19.0941589 Z" id="path-1"></path>
    </defs>
    <g id="Page-1" stroke="none" stroke-width="1" fill="none" fill-rule="evenodd">
        <g id="Icon/Transaction" transform="translate(0.000000, -2.000000)">
            <mask id="mask-2" fill="white">
                <use xlink:href="#path-1"></use>
            </mask>
            <use id="Combined-Shape" fill="#000000" fill-rule="nonzero" xlink:href="#path-1"></use>
            <g id="Color/999999" mask="url(#mask-2)" fill="#999999" fill-rule="evenodd">
                <rect x="0" y="0" width="21" height="21"></rect>
            </g>
        </g>
    </g>
</svg>