<?xml version="1.0" encoding="UTF-8"?>
<svg width="14px" height="16px" viewBox="0 0 14 16" version="1.1" xmlns="http://www.w3.org/2000/svg" xmlns:xlink="http://www.w3.org/1999/xlink">
    <!-- Generator: Sketch 48.1 (47250) - http://www.bohemiancoding.com/sketch -->
    <title>Icon/IdentifyingCode</title>
    <desc>Created with Sketch.</desc>
    <defs>
        <path d="M1.85857864,0.735210284 L6.02010101,0.140707089 C7.33336717,-0.0469023629 8.66663283,-0.0469023629 9.97989899,0.140707089 L14.1414214,0.735210284 C14.6340701,0.805588675 15,1.2275094 15,1.72515978 L15,6.74092121 C15,9.32453004 13.7522745,11.7490969 11.6499055,13.250789 L8.58123819,15.4426942 C8.23354067,15.6910496 7.76645933,15.6910496 7.41876181,15.4426942 L4.35009445,13.250789 C2.24772547,11.7490969 1,9.32453004 1,6.74092121 L1,1.72515978 C1,1.2275094 1.36592991,0.805588675 1.85857864,0.735210284 Z M13.0603459,5.13816667 C13.326551,4.8775 13.326551,4.45616667 13.0603459,4.1955 C12.7941409,3.93483333 12.3638554,3.93483333 12.0976503,4.1955 L7.43191261,8.76416667 L5.56234953,6.9335 C5.29614445,6.67283333 4.86585899,6.67283333 4.59965391,6.9335 C4.33344882,7.19416667 4.33344882,7.6155 4.59965391,7.87616667 L6.95056479,10.1781667 C7.07788027,10.3035 7.25149228,10.3735 7.43191261,10.3735 C7.61233293,10.3735 7.78526411,10.3035 7.91326042,10.1781667 L13.0603459,5.13816667 Z" id="path-1"></path>
    </defs>
    <g id="Icon/IdentifyingCode" stroke="none" stroke-width="1" fill="none" fill-rule="evenodd" transform="translate(-1.000000, 0.000000)">
        <mask id="mask-2" fill="white">
            <use xlink:href="#path-1"></use>
        </mask>
        <use fill="#999999" xlink:href="#path-1"></use>
    </g>
</svg>