<?xml version="1.0" encoding="UTF-8"?>
<svg width="16px" height="16px" viewBox="0 0 16 16" version="1.1" xmlns="http://www.w3.org/2000/svg" xmlns:xlink="http://www.w3.org/1999/xlink">
    <!-- Generator: Sketch 48.1 (47250) - http://www.bohemiancoding.com/sketch -->
    <title>Icon/Language-ED1C24</title>
    <desc>Created with Sketch.</desc>
    <defs>
        <path d="M1.36178696,10.2272727 L4.23778684,10.2272727 C4.14171505,9.51906348 4.09090909,8.77148842 4.09090909,8 C4.09090909,7.22851158 4.14171505,6.48093652 4.23778684,5.77272727 L1.36178696,5.77272727 C1.12713776,6.4723727 1,7.22133904 1,8 C1,8.77866096 1.12713776,9.5276273 1.36178696,10.2272727 Z M1.78671342,11.2272727 C2.61802222,12.8244831 4.04713374,14.0608565 5.77745005,14.6397951 C5.17008734,13.7980113 4.69719422,12.6140882 4.40869453,11.2272727 L1.78671342,11.2272727 Z M14.638213,10.2272727 C14.8728622,9.5276273 15,8.77866096 15,8 C15,7.22133904 14.8728622,6.4723727 14.638213,5.77272727 L11.7622132,5.77272727 C11.858285,6.48093652 11.9090909,7.22851158 11.9090909,8 C11.9090909,8.77148842 11.858285,9.51906348 11.7622132,10.2272727 L14.638213,10.2272727 Z M14.2132866,11.2272727 L11.5913055,11.2272727 C11.3028058,12.6140882 10.8299127,13.7980113 10.2225499,14.6397951 C11.9528663,14.0608565 13.3819778,12.8244831 14.2132866,11.2272727 Z M5.24992687,10.2272727 L10.7500731,10.2272727 C10.8525487,9.52909223 10.9090909,8.78049402 10.9090909,8 C10.9090909,7.21950598 10.8525487,6.47090777 10.7500731,5.77272727 L5.24992687,5.77272727 C5.1474513,6.47090777 5.09090909,7.21950598 5.09090909,8 C5.09090909,8.78049402 5.1474513,9.52909223 5.24992687,10.2272727 Z M5.43514769,11.2272727 C5.94389809,13.4782534 6.95015863,15 8,15 C9.04984137,15 10.0561019,13.4782534 10.5648523,11.2272727 L5.43514769,11.2272727 Z M1.78671342,4.77272727 L4.40869453,4.77272727 C4.69719422,3.38591182 5.17008734,2.2019887 5.77745005,1.36020491 C4.04713374,1.93914349 2.61802222,3.17551692 1.78671342,4.77272727 Z M14.2132866,4.77272727 C13.3819778,3.17551692 11.9528663,1.93914349 10.2225499,1.36020491 C10.8299127,2.2019887 11.3028058,3.38591182 11.5913055,4.77272727 L14.2132866,4.77272727 Z M5.43514769,4.77272727 L10.5648523,4.77272727 C10.0561019,2.52174659 9.04984137,1 8,1 C6.95015863,1 5.94389809,2.52174659 5.43514769,4.77272727 Z M8,16 C3.581722,16 0,12.418278 0,8 C0,3.581722 3.581722,0 8,0 C12.418278,0 16,3.581722 16,8 C16,12.418278 12.418278,16 8,16 Z" id="path-1"></path>
    </defs>
    <g id="Icon/Language" stroke="none" stroke-width="1" fill="none" fill-rule="evenodd">
        <mask id="mask-2" fill="white">
            <use xlink:href="#path-1"></use>
        </mask>
        <use id="Icon/Language-ED1C24" fill="#ED1C24" fill-rule="nonzero" xlink:href="#path-1"></use>
    </g>
</svg>