<?xml version="1.0" encoding="UTF-8"?>
<svg width="16px" height="16px" viewBox="0 0 16 16" version="1.1" xmlns="http://www.w3.org/2000/svg" xmlns:xlink="http://www.w3.org/1999/xlink">
    <!-- Generator: Sketch 48.1 (47250) - http://www.bohemiancoding.com/sketch -->
    <title>Icon/Trash-333333</title>
    <desc>Created with Sketch.</desc>
    <defs>
        <path d="M5.96078431,0.941176471 L5.96078431,0.125490198 C5.96078431,0.0561838754 6.01696819,0 6.08627451,0 L9.91372549,0 C9.98303181,0 10.0392157,0.0561838754 10.0392157,0.125490198 L10.0392157,0.941176471 L15.6862745,0.941176471 C15.8595403,0.941176471 16,1.08163616 16,1.25490196 L16,2.50980392 C16,2.68306973 15.8595403,2.82352941 15.6862745,2.82352941 L13.7966176,2.82352941 C13.8014413,2.86468885 13.8039216,2.90656459 13.8039216,2.94901964 L13.8039216,14.9333333 C13.8039216,15.5224371 13.3263586,16 12.7372549,16 L2.94901964,16 C2.35991589,16 1.88235294,15.5224371 1.88235294,14.9333333 L1.88235294,2.94901964 C1.88235294,2.90656459 1.88483325,2.86468885 1.88965687,2.82352941 L0.31372549,2.82352941 C0.140459686,2.82352941 0,2.68306973 0,2.50980392 L0,1.25490196 C0,1.08163616 0.140459686,0.941176471 0.31372549,0.941176471 L5.96078431,0.941176471 Z M12.220001,2.82352941 L3.60819698,2.82352941 C3.59336202,2.87701967 3.58543417,2.93338233 3.58543417,2.99159664 L3.58543417,13.8151261 C3.58543417,14.1616577 3.86635355,14.442577 4.21288515,14.442577 L11.6153128,14.442577 C11.9618444,14.442577 12.2427638,14.1616577 12.2427638,13.8151261 L12.2427638,2.99159664 C12.2427638,2.93338233 12.2348359,2.87701967 12.220001,2.82352941 Z M5.64705882,4.70588235 L6.50980392,4.70588235 C6.68306973,4.70588235 6.82352941,4.84634204 6.82352941,5.01960784 L6.82352941,12.5490196 C6.82352941,12.7222854 6.68306973,12.8627451 6.50980392,12.8627451 L5.64705882,12.8627451 C5.47379302,12.8627451 5.33333333,12.7222854 5.33333333,12.5490196 L5.33333333,5.01960784 C5.33333333,4.84634204 5.47379302,4.70588235 5.64705882,4.70588235 Z M9.5137253,4.70588235 L10.3764704,4.70588235 C10.5497362,4.70588235 10.6901959,4.84634204 10.6901959,5.01960784 L10.6901959,12.5490196 C10.6901959,12.7222854 10.5497362,12.8627451 10.3764704,12.8627451 L9.5137253,12.8627451 C9.3404595,12.8627451 9.19999981,12.7222854 9.19999981,12.5490196 L9.19999981,5.01960784 C9.19999981,4.84634204 9.3404595,4.70588235 9.5137253,4.70588235 Z" id="path-1"></path>
    </defs>
    <g id="Icon/Trash" stroke="none" stroke-width="1" fill="none" fill-rule="evenodd">
        <mask id="mask-2" fill="white">
            <use xlink:href="#path-1"></use>
        </mask>
        <use id="Icon/Trash-333333" fill="#333333" xlink:href="#path-1"></use>
    </g>
</svg>