<?xml version="1.0" encoding="UTF-8"?>
<svg width="375px" height="667px" viewBox="0 0 375 667" version="1.1" xmlns="http://www.w3.org/2000/svg" xmlns:xlink="http://www.w3.org/1999/xlink">
    <!-- Generator: Sketch 50 (54983) - http://www.bohemiancoding.com/sketch -->
    <title>Img-404 Copy</title>
    <desc>Created with Sketch.</desc>
    <defs>
        <rect id="path-1" x="0" y="0" width="375" height="667"></rect>
        <rect id="path-3" x="0" y="0" width="1185.77778" height="667"></rect>
        <linearGradient x1="50%" y1="0%" x2="50%" y2="100%" id="linearGradient-5">
            <stop stop-color="#10273D" offset="0%"></stop>
            <stop stop-color="#AFFFFE" offset="100%"></stop>
        </linearGradient>
        <linearGradient x1="50%" y1="0%" x2="50%" y2="100%" id="linearGradient-6">
            <stop stop-color="#141425" stop-opacity="0.846948596" offset="0%"></stop>
            <stop stop-color="#234C5A" offset="100%"></stop>
        </linearGradient>
        <polygon id="path-7" points="0.389206852 0.257536111 9.79514204 0.257536111 9.79514204 12.6350798 0.389206852 12.6350798"></polygon>
        <polygon id="path-9" points="0.229003333 0.4002 112.975326 0.4002 112.975326 132.782407 0.229003333 132.782407"></polygon>
        <path d="M48.706131,220.550344 C24.4711801,215.507082 8.45329861,201.088766 2.38298102,178.854197 C-2.75353657,160.040474 2.20820231,142.198224 17.1298569,125.822139 C28.7727125,113.044766 44.2316727,103.60054 55.5187949,96.7051185 C60.3638088,93.7449972 64.5479986,91.1887815 66.6657236,89.4292602 C87.2111764,72.3682648 95.0277467,56.8500447 87.4146828,40.2195114 C81.1510587,26.5367475 71.1727214,21.5252731 58.9970764,22.9485056 C46.8214314,24.371738 31.1677366,32.4013778 27.682044,47.7590528 C25.0634514,59.2950648 28.7646838,69.4748435 38.6819856,78.0167667 C42.5586144,81.3554722 42.9946347,87.2046917 39.6553116,91.0813204 C36.3172236,94.9579491 30.4680042,95.394587 26.5907579,92.0546463 C6.23984676,74.5279861 7.21873102,54.2091898 9.61375509,43.6576204 C12.2848431,31.8906287 17.8579986,21.8053417 25.7329218,14.4948981 C33.2453181,7.51980741 45.7639199,1.43960833 55.7540977,0.406375926 C76.4323329,-1.73481759 96.096481,8.92483056 105.625317,29.7420241 C112.274319,44.2659491 112.343489,65.0010028 105.625317,78.8406352 C101.000784,88.3682361 96.4151588,96.1270519 84.9359653,105.660211 C81.7856255,108.276333 63.7772431,122.823109 58.7197773,127.157374 C34.9424625,147.53793 22.2503171,151.52696 27.1910579,173.641098 C30.6625458,189.179728 42.4777097,193.398503 58.6882801,198.653598 C72.1999708,203.033565 78.8563838,203.217607 78.9854606,203.195992 C84.0200755,202.356683 88.8002421,205.755913 89.6494319,210.792381 C90.4986218,215.830083 87.1216255,220.601604 82.0870106,221.462528 C81.7022505,221.527993 76.1216838,222.456234 68.0503662,222.456234 C62.4901801,222.456234 55.7485394,222.015891 48.706131,220.550344 Z" id="path-11"></path>
        <linearGradient x1="50%" y1="0%" x2="50%" y2="100%" id="linearGradient-13">
            <stop stop-color="#FFF1BD" offset="0%"></stop>
            <stop stop-color="#FFDC92" offset="100%"></stop>
        </linearGradient>
        <circle id="path-14" cx="123.5" cy="123.5" r="123.5"></circle>
        <filter x="-24.9%" y="-24.9%" width="149.8%" height="149.8%" filterUnits="objectBoundingBox" id="filter-15">
            <feOffset dx="0" dy="0" in="SourceAlpha" result="shadowOffsetOuter1"></feOffset>
            <feGaussianBlur stdDeviation="20.5" in="shadowOffsetOuter1" result="shadowBlurOuter1"></feGaussianBlur>
            <feColorMatrix values="0 0 0 0 1   0 0 0 0 0.981558055   0 0 0 0 0.353653725  0 0 0 0.257586051 0" type="matrix" in="shadowBlurOuter1"></feColorMatrix>
        </filter>
        <linearGradient x1="50%" y1="0%" x2="50%" y2="100%" id="linearGradient-16">
            <stop stop-color="#000000" offset="0%"></stop>
            <stop stop-color="#E2C378" offset="100%"></stop>
        </linearGradient>
    </defs>
    <g id="注册&amp;登录" stroke="none" stroke-width="1" fill="none" fill-rule="evenodd">
        <g id="Error">
            <g id="Img-404-Copy">
                <mask id="mask-2" fill="white">
                    <use xlink:href="#path-1"></use>
                </mask>
                <rect stroke="#979797" stroke-width="0.617592593" x="0.308796296" y="0.308796296" width="374.382407" height="666.382407"></rect>
                <g id="Img-Error" mask="url(#mask-2)">
                    <g transform="translate(-405.000000, 0.000000)">
                        <mask id="mask-4" fill="white">
                            <use xlink:href="#path-3"></use>
                        </mask>
                        <rect stroke="#979797" stroke-width="1" x="0.5" y="0.5" width="1184.77778" height="666"></rect>
                        <g id="Img" stroke="none" stroke-width="1" fill="none" fill-rule="evenodd" mask="url(#mask-4)">
                            <g transform="translate(-146.369444, -327.941667)">
                                <rect id="天" fill="url(#linearGradient-5)" x="146.369444" y="327.941667" width="1185.77778" height="665.764815"></rect>
                                <g id="海" stroke-width="1" fill="none" transform="translate(0.000000, 457.636111)">
                                    <path d="M0,545.327022 L0,104.259215 C12.5291747,108.830786 24.0677394,113.708517 48.8117683,113.670812 C94.6544477,113.600955 90.8648023,107.623068 137.018707,107.134221 C167.727813,106.808961 177.321453,96.8119493 213.6798,98.1923973 C250.038147,99.5728453 249.004786,113.355659 282.111954,112.643099 C315.219122,111.930539 308.529693,100.719918 346.479094,100.108759 C384.428496,99.4975997 405.468725,114.71101 427.296875,113.670812 C455.631866,112.320536 472.21646,96.7419556 497.897358,96.4771304 C543.361799,96.0082942 543.840059,111.749905 589.720591,111.784259 C635.601122,111.818614 635.434905,96.3990086 681.543823,96.6146412 C727.652741,96.8302738 728.701141,111.11754 773.367055,112.643099 C818.03297,114.168658 819.10691,102.62736 865.190288,102.887066 C911.273665,103.146771 910.544429,114.414241 957.01352,113.678049 C1003.48261,112.941857 1031.52679,100.165799 1066.31945,102.887066 C1101.11211,105.608333 1101.4704,121.674053 1148.95864,119.207433 C1196.44689,116.740812 1210.24466,92.6461263 1238.85938,92.6461263 C1255.14387,92.6461263 1260.56009,100.110569 1282.28188,100.108759 C1304.00367,100.106949 1309.43042,92.6388889 1325.72281,92.6388889 C1353.94117,92.6388889 1367.75022,116.070698 1413.66944,119.085368 L1413.66944,545.327022 L1285.21024,545.327022 L227.274074,545.334259 L0,545.327022 Z" id="Combined-Shape" fill="url(#linearGradient-6)" opacity="0.900000036"></path>
                                    <g id="Page-1" transform="translate(745.285075, 92.683687) rotate(52.000000) translate(-745.285075, -92.683687) translate(681.673038, 24.439705)">
                                        <polygon id="Fill-1" fill="#000000" points="47.8440335 68.7265683 54.8666789 59.0451869 55.7695993 59.7010702 48.7481891 69.3824517"></polygon>
                                        <polygon id="Fill-2" fill="#000000" points="56.3202448 63.1760784 53.9857448 61.4826395 54.6416281 60.5797192 56.9761281 62.2725405"></polygon>
                                        <polygon id="Fill-3" fill="#000000" points="51.7633996 70.0395702 49.3621996 68.2985767 50.0174654 67.3938035 52.4186654 69.1360322"></polygon>
                                        <polygon id="Fill-4" fill="#000000" points="53.7051725 66.929868 28.9347688 48.4391457 29.3065595 48.067355 54.8909503 65.139467"></polygon>
                                        <polygon id="Fill-5" fill="#000000" points="38.796055 25.7851701 51.8074957 64.213634 52.9376902 63.1760784 39.3543587 25.1329923"></polygon>
                                        <polygon id="Fill-6" fill="#000000" points="37.6000869 56.9880477 40.0185795 53.6555181 41.1246879 54.4583884 40.2069453 55.7232181 38.7068129 57.7915356"></polygon>
                                        <polygon id="Fill-7" fill="#000000" points="39.7270141 55.287877 38.9976372 55.2668789 39.7961844 27.847003 76.3391381 43.1719456 76.0575159 43.8445039 40.4946817 28.9314956"></polygon>
                                        <polygon id="Fill-8" fill="#000000" points="18.90945 101.869057 25.9320954 92.1870581 26.8350157 92.8429415 19.812988 102.524323"></polygon>
                                        <polygon id="Fill-9" fill="#000000" points="27.3857231 96.3180115 25.0518406 94.6245726 25.707724 93.7216522 28.0416064 95.4132383"></polygon>
                                        <polygon id="Fill-10" fill="#000000" points="0 81.5808935 24.7710213 100.071616 25.9574167 98.2812148 0.371790741 81.2078676"></polygon>
                                        <polygon id="Fill-11" fill="#000000" points="9.86208907 58.925868 22.8729122 97.3561846 24.0031067 96.3180115 10.4203928 58.2736902"></polygon>
                                        <polygon id="Fill-12" fill="#000000" points="8.66550343 90.1305983 11.083996 86.7962159 12.1901044 87.5990863 11.2723618 88.8639159 9.77222935 90.9328511"></polygon>
                                        <polygon id="Fill-13" fill="#000000" points="10.7930481 88.4298101 10.0636713 88.4075768 10.8616009 60.988936 47.4033194 76.3138786 47.1216972 76.9864369 11.5600981 62.0721934"></polygon>
                                        <g id="Group-36" transform="translate(6.793519, 0.360056)">
                                            <path d="M20.5125351,101.688782 C19.9221166,101.688782 19.4428647,101.210148 19.4428647,100.619112 C19.4428647,100.028075 19.9221166,99.5488236 20.5125351,99.5488236 C21.1029536,99.5488236 21.5822055,100.028075 21.5822055,100.619112 C21.5822055,101.210148 21.1029536,101.688782 20.5125351,101.688782 M12.2324712,112.620171 C11.6414351,112.620171 11.1628008,112.140301 11.1628008,111.5505 C11.1628008,110.959464 11.6414351,110.480212 12.2324712,110.480212 C12.8228897,110.480212 13.3021416,110.959464 13.3021416,111.5505 C13.3021416,112.140301 12.8228897,112.620171 12.2324712,112.620171 M29.4904786,92.3378125 C24.0945721,94.7569227 21.2104147,94.3845144 21.2104147,94.3845144 L10.8830314,108.619406 C7.99887398,112.991962 5.30184713,111.690694 5.30184713,111.690694 L0.277113796,118.947407 L7.02246009,122.38925 L23.4436295,107.363223 C23.4436295,107.363223 34.8863851,89.9180847 29.4904786,92.3378125" id="Fill-14" fill="#FFFFFF"></path>
                                            <path d="M64.4732081,22.933004 L65.9609887,20.8863021 L69.6838369,23.6772031 L68.28746,25.8171614 L64.4732081,22.933004 Z M70.9851044,34.0039688 L90.0575989,6.46613269 L84.1033887,2.83654102 L76.3816285,13.7222281 L71.3575128,9.90735861 L59.6356054,26.3748475 L60.8448517,27.0264077 L62.3332498,24.8870669 L66.5192924,27.6785855 L65.1247683,29.9105651 L66.7984443,31.3063244 L65.0308943,34.0039688 L67.5438785,38.9354456 L68.3800989,37.4470475 L66.6131665,34.1904818 L68.1015646,31.8640105 L70.9851044,34.0039688 Z" id="Fill-16" fill="#FFFFFF"></path>
                                            <g id="Group-20" transform="translate(72.258333, 0.000000)">
                                                <mask id="mask-8" fill="white">
                                                    <use xlink:href="#path-7"></use>
                                                </mask>
                                                <g id="Clip-19"></g>
                                                <polygon id="Fill-18" fill="#FFFFFF" mask="url(#mask-8)" points="9.79514204 0.91379 1.29212722 12.6350798 0.389206852 11.9785789 8.89160407 0.257289074"></polygon>
                                            </g>
                                            <polygon id="Fill-21" fill="#FFFFFF" points="83.586649 2.11222843 75.0836342 13.8335182 74.1807138 13.1782525 82.683111 1.45634509"></polygon>
                                            <polygon id="Fill-23" fill="#FFFFFF" points="83.8284982 5.71946324 79.5930482 2.6463225 80.2495492 1.74340213 84.4843816 4.81469009"></polygon>
                                            <polygon id="Fill-25" fill="#FFFFFF" points="81.3834492 9.13672657 77.1486168 6.06358583 77.8032649 5.16066546 82.0393325 8.23318861"></polygon>
                                            <polygon id="Fill-27" fill="#FFFFFF" points="78.9390177 12.634771 74.7035677 9.56163028 75.3575982 8.6593275 79.5930482 11.7318506"></polygon>
                                            <g id="Group-31" transform="translate(6.793519, 3.087963)">
                                                <mask id="mask-10" fill="white">
                                                    <use xlink:href="#path-9"></use>
                                                </mask>
                                                <g id="Clip-30"></g>
                                                <path d="M100.104225,10.9147139 L84.2413589,0.4002 L0.229003333,119.300979 L27.7217552,130.930865 C27.7217552,130.930865 41.5403894,136.812817 53.3036756,127.610069 L53.3049107,127.610069 C71.9697941,116.420527 91.0317894,87.396763 105.499514,62.4565213 C125.037055,28.7761093 100.104225,10.9147139 100.104225,10.9147139" id="Fill-29" fill="#002944" mask="url(#mask-10)"></path>
                                            </g>
                                            <polygon id="Fill-32" fill="#000000" points="16.0352976 102.820212 13.6340976 101.079218 14.2893633 100.176298 16.6911809 101.917291"></polygon>
                                            <polygon id="Fill-34" fill="#011F30" points="12.891566 124.871973 95.2382744 6.27504954 94.5397771 5.81185509 12.1035179 124.53909"></polygon>
                                        </g>
                                    </g>
                                    <path d="M81.5222222,538.94384 L81.5222222,108.22962 C99.817614,103.915277 109.847525,96.895944 141.173223,96.400148 C186.620769,95.6808436 188.977047,108.819135 221.396088,108.867582 C253.81513,108.916028 259.743046,96.6146412 284.70536,96.6146412 C309.667675,96.6146412 313.539755,111.784259 348.007395,111.784259 C382.475035,111.784259 379.807191,96.6146412 424.541592,96.6146412 C469.275993,96.6146412 470.612431,111.784259 516.68327,111.784259 C562.75411,111.784259 563.917544,95.4894252 608.824949,96.6146412 C653.732354,97.7398572 653.366792,114.78158 700.966628,116.401729 C748.566463,118.021877 747.037467,102.887066 793.108306,102.887066 C839.179146,102.887066 839.179146,116.401729 885.249985,116.401729 C931.320824,116.401729 931.320824,102.887066 977.391663,102.887066 C1023.4625,102.887066 1022.0019,113.618455 1069.53334,116.401729 C1117.06478,119.185002 1116.98628,104.745701 1160.6736,99.9559136 C1204.36092,95.1661265 1210.57002,106.622624 1235.62546,105.91713 C1260.68091,105.211635 1261.53049,97.7618092 1286.95561,96.400148 C1312.38073,95.0384868 1327.09024,99.5722643 1342.07937,102.887066 L1340.79352,539.158333 L282.857407,539.158333 L81.5222222,538.94384 Z" id="Combined-Shape" fill="url(#linearGradient-6)" opacity="0.900000036"></path>
                                </g>
                                <g id="气泡" opacity="0.200000003" stroke-width="1" fill="none" transform="translate(563.244444, 613.887037)">
                                    <circle id="Oval-2" fill="#FFFFFF" opacity="0.800000012" cx="190.218519" cy="12.9694444" r="4.32314815"></circle>
                                    <circle id="Oval-2-Copy-2" fill="#FFFFFF" opacity="0.800000012" cx="63.612037" cy="29.6444444" r="4.32314815"></circle>
                                    <circle id="Oval-2-Copy-5" fill="#FFFFFF" opacity="0.800000012" cx="172.308333" cy="107.461111" r="5.55833333"></circle>
                                    <circle id="Oval-2-Copy-29" fill="#FFFFFF" opacity="0.800000012" cx="296.444444" cy="17.2925926" r="5.55833333"></circle>
                                    <circle id="Oval-2-Copy-26" fill="#FFFFFF" opacity="0.800000012" cx="33.0412037" cy="111.475463" r="4.01435185"></circle>
                                    <circle id="Oval-2-Copy-27" fill="#FFFFFF" opacity="0.800000012" cx="2.77916667" cy="113.328241" r="2.77916667"></circle>
                                    <circle id="Oval-2-Copy-32" fill="#FFFFFF" opacity="0.300000012" cx="280.078241" cy="162.735648" r="2.77916667"></circle>
                                    <circle id="Oval-2-Copy-9" fill="#FFFFFF" opacity="0.100000001" cx="182.189815" cy="98.1972222" r="2.47037037"></circle>
                                    <circle id="Oval-2-Copy-33" fill="#FFFFFF" opacity="0.100000001" cx="19.762963" cy="121.665741" r="2.47037037"></circle>
                                    <circle id="Oval-2-Copy-10" fill="#FFFFFF" cx="248.272222" cy="125.988889" r="1.85277778"></circle>
                                    <circle id="Oval-2-Copy-30" fill="#FFFFFF" cx="289.033333" cy="29.6444444" r="1.85277778"></circle>
                                    <circle id="Oval-2-Copy-6" fill="#FFFFFF" opacity="0.800000012" cx="225.421296" cy="101.285185" r="2.47037037"></circle>
                                    <circle id="Oval-2-Copy-7" fill="#FFFFFF" opacity="0.800000012" cx="321.148148" cy="149.457407" r="3.70555556"></circle>
                                    <circle id="Oval-2-Copy-8" fill="#FFFFFF" opacity="0.800000012" cx="314.972222" cy="155.633333" r="2.47037037"></circle>
                                    <circle id="Oval-2-Copy" fill="#FFFFFF" cx="183.116204" cy="2.77916667" r="2.77916667"></circle>
                                    <circle id="Oval-2-Copy-28" fill="#FFFFFF" cx="73.1847222" cy="36.7467593" r="2.77916667"></circle>
                                    <circle id="Oval-2-Copy-3" fill="#FFFFFF" cx="154.089352" cy="78.7430556" r="2.77916667"></circle>
                                    <circle id="Oval-2-Copy-4" fill="#FFFFFF" cx="154.089352" cy="101.593981" r="2.77916667"></circle>
                                    <circle id="Oval-2-Copy-31" fill="#FFFFFF" cx="299.223611" cy="34.2763889" r="2.77916667"></circle>
                                </g>
                                <g id="气泡-copy" opacity="0.200000003" stroke-width="1" fill="none" transform="translate(539.467130, 876.981481) rotate(-101.000000) translate(-539.467130, -876.981481) translate(460.106481, 835.602778)">
                                    <circle id="Oval-2-Copy-5" fill="#FFFFFF" opacity="0.800000012" cx="86.1541667" cy="53.7305556" r="2.77916667"></circle>
                                    <circle id="Oval-2-Copy-26" fill="#FFFFFF" opacity="0.800000012" cx="16.5206019" cy="55.7377315" r="2.00717593"></circle>
                                    <circle id="Oval-2-Copy-27" fill="#FFFFFF" opacity="0.800000012" cx="1.38958333" cy="56.6641204" r="1.38958333"></circle>
                                    <circle id="Oval-2-Copy-32" fill="#FFFFFF" opacity="0.300000012" cx="140.03912" cy="81.3678241" r="1.38958333"></circle>
                                    <circle id="Oval-2-Copy-33" fill="#FFFFFF" opacity="0.100000001" cx="9.88148148" cy="60.8328704" r="1.23518519"></circle>
                                    <circle id="Oval-2-Copy-10" fill="#FFFFFF" cx="124.136111" cy="62.9944444" r="1"></circle>
                                    <circle id="Oval-2-Copy-7" fill="#FFFFFF" opacity="0.800000012" cx="156.250926" cy="80.9046296" r="1.85277778"></circle>
                                    <circle id="Oval-2-Copy-8" fill="#FFFFFF" opacity="0.800000012" cx="157.486111" cy="77.8166667" r="1.23518519"></circle>
                                </g>
                                <g id="气泡-copy-2" opacity="0.200000003" stroke-width="1" fill="none" transform="translate(923.587402, 896.054455) rotate(157.000000) translate(-923.587402, -896.054455) translate(844.226754, 854.675751)">
                                    <circle id="Oval-2" fill="#FFFFFF" opacity="0.800000012" cx="95.1092593" cy="6.48472222" r="2.16157407"></circle>
                                    <circle id="Oval-2-Copy-5" fill="#FFFFFF" opacity="0.800000012" cx="86.1541667" cy="53.7305556" r="2.77916667"></circle>
                                    <circle id="Oval-2-Copy-29" fill="#FFFFFF" opacity="0.800000012" cx="148.222222" cy="8.6462963" r="2.77916667"></circle>
                                    <circle id="Oval-2-Copy-32" fill="#FFFFFF" opacity="0.300000012" cx="140.03912" cy="81.3678241" r="1.38958333"></circle>
                                    <circle id="Oval-2-Copy-9" fill="#FFFFFF" opacity="0.100000001" cx="91.0949074" cy="49.0986111" r="1.23518519"></circle>
                                    <circle id="Oval-2-Copy-10" fill="#FFFFFF" cx="124.136111" cy="62.9944444" r="1"></circle>
                                    <circle id="Oval-2-Copy-30" fill="#FFFFFF" cx="144.516667" cy="14.8222222" r="1"></circle>
                                    <circle id="Oval-2-Copy-6" fill="#FFFFFF" opacity="0.800000012" cx="112.710648" cy="50.6425926" r="1.23518519"></circle>
                                    <circle id="Oval-2-Copy-7" fill="#FFFFFF" opacity="0.800000012" cx="156.250926" cy="80.9046296" r="1.85277778"></circle>
                                    <circle id="Oval-2-Copy-8" fill="#FFFFFF" opacity="0.800000012" cx="157.486111" cy="77.8166667" r="1.23518519"></circle>
                                    <circle id="Oval-2-Copy" fill="#FFFFFF" cx="91.5581019" cy="1.38958333" r="1.38958333"></circle>
                                    <circle id="Oval-2-Copy-3" fill="#FFFFFF" cx="77.0446759" cy="39.3715278" r="1.38958333"></circle>
                                    <circle id="Oval-2-Copy-4" fill="#FFFFFF" cx="77.0446759" cy="50.7969907" r="1.38958333"></circle>
                                    <circle id="Oval-2-Copy-31" fill="#FFFFFF" cx="149.611806" cy="17.1381944" r="1.38958333"></circle>
                                </g>
                                <g id="气泡-copy-3" opacity="0.200000003" stroke-width="1" fill="none" transform="translate(734.317593, 859.997685) rotate(157.000000) translate(-734.317593, -859.997685) translate(639.208333, 810.281481)">
                                    <ellipse id="Oval-2" fill="#FFFFFF" opacity="0.800000012" cx="113.983081" cy="7.79134536" rx="2.59052457" ry="2.59711512"></ellipse>
                                    <ellipse id="Oval-2-Copy-2" fill="#FFFFFF" opacity="0.800000012" cx="38.1177187" cy="17.8087894" rx="2.59052457" ry="2.59711512"></ellipse>
                                    <ellipse id="Oval-2-Copy-5" fill="#FFFFFF" opacity="0.800000012" cx="103.250908" cy="64.5568615" rx="3.33067445" ry="3.33914801"></ellipse>
                                    <ellipse id="Oval-2-Copy-29" fill="#FFFFFF" opacity="0.800000012" cx="177.635971" cy="10.3884605" rx="3.33067445" ry="3.33914801"></ellipse>
                                    <ellipse id="Oval-2-Copy-26" fill="#FFFFFF" opacity="0.800000012" cx="19.7990092" cy="66.9684684" rx="2.4054871" ry="2.4116069"></ellipse>
                                    <ellipse id="Oval-2-Copy-27" fill="#FFFFFF" opacity="0.800000012" cx="1.66533722" cy="68.0815178" rx="1.66533722" ry="1.669574"></ellipse>
                                    <ellipse id="Oval-2-Copy-32" fill="#FFFFFF" opacity="0.300000012" cx="167.828985" cy="97.7628334" rx="1.66533722" ry="1.669574"></ellipse>
                                    <ellipse id="Oval-2-Copy-9" fill="#FFFFFF" opacity="0.100000001" cx="109.172107" cy="58.9916148" rx="1.48029976" ry="1.48406578"></ellipse>
                                    <ellipse id="Oval-2-Copy-33" fill="#FFFFFF" opacity="0.100000001" cx="11.842398" cy="73.0902398" rx="1.48029976" ry="1.48406578"></ellipse>
                                    <ellipse id="Oval-2-Copy-10" fill="#FFFFFF" cx="148.770125" cy="75.6873549" rx="1.11022482" ry="1.11304934"></ellipse>
                                    <ellipse id="Oval-2-Copy-30" fill="#FFFFFF" cx="173.195071" cy="17.8087894" rx="1.11022482" ry="1.11304934"></ellipse>
                                    <ellipse id="Oval-2-Copy-6" fill="#FFFFFF" opacity="0.800000012" cx="135.077353" cy="60.8466971" rx="1.48029976" ry="1.48406578"></ellipse>
                                    <ellipse id="Oval-2-Copy-7" fill="#FFFFFF" opacity="0.800000012" cx="187.257919" cy="97.2063087" rx="2.22044963" ry="2.22609867"></ellipse>
                                    <ellipse id="Oval-2-Copy-8" fill="#FFFFFF" opacity="0.800000012" cx="188.738219" cy="93.4961443" rx="1.48029976" ry="1.48406578"></ellipse>
                                    <ellipse id="Oval-2-Copy" fill="#FFFFFF" cx="109.727219" cy="1.669574" rx="1.66533722" ry="1.669574"></ellipse>
                                    <ellipse id="Oval-2-Copy-28" fill="#FFFFFF" cx="43.8538802" cy="22.0754785" rx="1.66533722" ry="1.669574"></ellipse>
                                    <ellipse id="Oval-2-Copy-3" fill="#FFFFFF" cx="92.3336972" cy="47.3045968" rx="1.66533722" ry="1.669574"></ellipse>
                                    <ellipse id="Oval-2-Copy-4" fill="#FFFFFF" cx="92.3336972" cy="61.0322053" rx="1.66533722" ry="1.669574"></ellipse>
                                    <ellipse id="Oval-2-Copy-31" fill="#FFFFFF" cx="179.301308" cy="20.5914127" rx="1.66533722" ry="1.669574"></ellipse>
                                </g>
                                <g id="触手" opacity="0.100000001" stroke-width="1" fill="none" transform="translate(516.925000, 758.403704)">
                                    <path d="M89.2681303,297.266976 C69.851411,293.226383 57.0180981,281.67462 52.1546407,263.86058 C48.0393313,248.787276 52.0146103,234.492304 63.9696409,221.372003 C73.2977414,211.134942 85.683254,203.568354 94.7263457,198.043835 C98.6081061,195.672225 101.960423,193.624219 103.657116,192.214514 C120.117859,178.545472 126.380391,166.112482 120.280905,152.78832 C115.262573,141.825872 107.268063,137.810746 97.5130984,138.951021 C87.7581341,140.091296 75.2166027,146.524536 72.4239123,158.8289 C70.3259309,168.071399 73.2913089,176.227302 81.2369188,183.070977 C84.342822,185.745903 84.6921557,190.43222 82.0167345,193.538123 C79.342303,196.644026 74.6559864,196.993854 71.5495884,194.317939 C55.24471,180.275812 56.0289791,163.996664 57.9478404,155.542887 C60.0878804,146.115331 64.5530183,138.035133 70.8623016,132.178103 C76.8811333,126.589754 86.91087,121.718379 94.9148671,120.890567 C111.481993,119.175072 127.236646,127.71544 134.871023,144.393897 C140.198114,156.030272 140.253533,172.64292 134.871023,183.731049 C131.165908,191.364436 127.491967,197.580696 118.29499,205.218535 C115.77098,207.314538 101.342904,218.96922 97.2909301,222.441776 C78.2408627,238.770405 68.0720852,241.966363 72.0305408,259.683915 C74.8118506,272.133258 84.2780023,275.513284 97.2656949,279.723596 C108.091081,283.232767 113.42411,283.380219 113.527525,283.362901 C117.561191,282.690459 121.390997,285.413876 122.071357,289.449027 C122.751716,293.485167 120.046112,297.308045 116.012446,297.997806 C115.704181,298.050256 111.233105,298.793951 104.766473,298.793951 C100.311726,298.793951 94.9104138,298.441153 89.2681303,297.266976 Z" id="Mask-Copy" fill="#688BAD" opacity="0.400000006" transform="translate(94.735006, 209.734025) rotate(-46.000000) translate(-94.735006, -209.734025) "></path>
                                    <path d="M340.136672,317.331129 C337.938498,317.331129 335.779943,316.271889 334.461585,314.310063 C332.359042,311.182435 320.466496,309.343109 320.466496,309.343109 C320.690549,309.191464 352.061096,288.366415 351.847973,270.407145 C351.720463,259.632129 345.436062,247.57974 335.949804,233.975833 C320.71514,212.127975 307.414979,187.662072 318.261491,159.778457 C325.652038,140.779073 338.212188,133.749651 347.447526,131.199004 C357.357753,128.461646 369.138273,129.301843 380.619601,133.566584 C384.156171,134.880388 385.958154,138.811782 384.644806,142.348351 C383.331457,145.885376 379.399608,147.686905 375.863038,146.373556 C370.759467,144.477762 364.516961,142.50364 354.848547,145.17451 C345.80083,147.673698 340.288317,156.25054 336.632891,167.488689 C329.21502,190.295145 342.073452,203.682286 355.303938,222.135656 C366.226956,237.371231 376.028345,256.351944 376.205948,271.330678 C376.506506,296.699622 345.105903,315.385697 343.941467,316.16806 C342.772022,316.954521 341.447289,317.331129 340.136672,317.331129" id="Fill-1-Copy" fill="#688BAD" opacity="0.400000006" transform="translate(349.689993, 223.475298) rotate(37.000000) translate(-349.689993, -223.475298) "></path>
                                    <path d="M156.620617,262.574431 C151.912709,262.574431 147.883534,259.000423 147.412311,254.217169 C143.346699,212.897136 157.399401,195.610102 168.691464,181.719209 C176.557741,172.043386 182.770105,164.400678 182.880036,149.306097 C183.148071,112.30489 164.913033,97.0342954 164.136719,96.4024981 L164.208977,96.4593167 L162.588414,93.8061389 C157.440162,85.3766176 167.653909,76.0034148 175.611589,81.8557222 C176.678789,82.6888546 201.74502,102.800757 201.407196,149.439497 C201.250328,171.039798 194.126397,186.007772 185.60362,196.492024 C175.042786,209.483702 168.69764,220.837524 172.016583,254.571049 C172.518068,259.662482 162.63041,262.027862 157.538977,262.529347 C157.230798,262.559609 156.923855,262.574431 156.620617,262.574431" id="Fill-9" fill="#688BAD" opacity="0.400000006"></path>
                                    <path d="M286.263801,262.574431 C281.352087,262.574431 273.849572,259.5297 273.610564,254.571049 C271.923919,219.517729 281.85419,202.163377 289.667971,188.46332 C295.2121,178.743031 302.419406,171.209636 301.433728,159.272189 C299.083171,130.807346 287.615711,120.688092 287.500221,120.589277 C287.59286,120.668329 287.643503,120.704767 287.643503,120.704767 L286.583096,119.109525 C281.104433,110.870222 290.678971,100.957244 299.104169,106.146874 C299.950888,106.813256 304.409907,110.556485 309.050497,118.801964 C314.985562,129.34674 318.636152,142.450202 319.898511,157.74797 C321.356647,175.403707 315.056585,186.449969 308.963417,197.132468 C301.654209,209.946896 294.096728,223.197963 295.524602,252.865258 C295.770404,257.975837 291.827075,262.317513 286.716496,262.563315 C286.565186,262.570726 286.413876,262.574431 286.263801,262.574431" id="Fill-11" fill="#688BAD" opacity="0.400000006"></path>
                                    <path d="M129.522507,254.571049 C126.541387,254.571049 123.613998,253.134529 121.826068,250.47394 C118.974643,246.232314 102.846212,243.737857 102.846212,243.737857 C103.150068,243.532199 145.694169,215.28969 145.405135,190.933691 C145.232209,176.320832 136.709432,159.975627 123.84436,141.526283 C103.183418,111.896661 85.1460085,78.7164991 99.8558289,40.9013046 C109.878739,15.1347241 126.91256,5.60156481 139.437338,2.1424287 C152.877388,-1.56992037 168.853891,-0.430462037 184.424635,5.35329259 C189.220859,7.13504722 191.664673,12.4667241 189.883536,17.2629481 C188.102399,22.0597898 182.770105,24.5029861 177.973881,22.7218491 C171.052521,20.1508111 162.586561,17.4735472 149.474453,21.0957278 C137.204123,24.4850759 129.728165,36.1168148 124.770749,51.3577648 C114.710784,82.2874194 132.149128,100.442789 150.092046,125.468876 C164.905621,146.131054 178.198067,171.872313 178.438928,192.186169 C178.846539,226.591017 136.261677,251.932694 134.682493,252.993718 C133.096515,254.0603 131.299938,254.571049 129.522507,254.571049" id="Fill-1" fill="#688BAD"></path>
                                    <path d="M170.3675,242.001004 C170.483608,241.861428 187.542471,230.271492 196.034986,213.54832 C203.491182,198.864438 216.33593,181.464867 208.949547,156.551882 C201.563164,131.638896 199.243573,113.916884 203.205317,88.4132586 C207.167062,62.9096335 222.395154,39.7735188 241.103887,21.0647864 C244.721744,17.4475466 250.587639,17.4475466 254.204878,21.0647864 C257.822736,24.6826438 257.822736,30.5485382 254.204878,34.1657781 C238.519879,49.8513947 230.104563,68.4853984 228.479059,91.1325188 C226.882582,113.377586 232.163801,133.799008 236.913705,151.153978 C249.435395,196.90709 217.011808,245.411755 215.168294,247.619649 C213.336515,249.814573 167.093642,245.928275 170.3675,242.001004 Z" id="Fill-4" fill="#688BAD"></path>
                                    <g id="Oval-2-Copy-11" transform="translate(242.713889, 32.114815)">
                                        <mask id="mask-12" fill="white">
                                            <use xlink:href="#path-11"></use>
                                        </mask>
                                        <use id="Mask" fill="#688BAD" opacity="0.900000036" xlink:href="#path-11"></use>
                                    </g>
                                </g>
                                <g id="Group" stroke-width="1" fill="none" transform="translate(745.000000, 193.000000)">
                                    <g id="Oval-3">
                                        <use fill="black" fill-opacity="1" filter="url(#filter-15)" xlink:href="#path-14"></use>
                                        <use fill="url(#linearGradient-13)" fill-rule="evenodd" xlink:href="#path-14"></use>
                                    </g>
                                    <circle id="Oval" fill="url(#linearGradient-16)" opacity="0.100000001" cx="75" cy="192" r="11"></circle>
                                    <circle id="Oval-Copy" fill="url(#linearGradient-16)" opacity="0.100000001" cx="163.5" cy="176.5" r="21.5"></circle>
                                    <circle id="Oval-Copy-2" fill="url(#linearGradient-16)" opacity="0.100000001" cx="124.5" cy="226.5" r="6.5"></circle>
                                </g>
                            </g>
                        </g>
                    </g>
                </g>
            </g>
        </g>
    </g>
</svg>