<?xml version="1.0" encoding="UTF-8"?>
<svg width="375px" height="667px" viewBox="0 0 375 667" version="1.1" xmlns="http://www.w3.org/2000/svg" xmlns:xlink="http://www.w3.org/1999/xlink">
    <!-- Generator: Sketch 50 (54983) - http://www.bohemiancoding.com/sketch -->
    <title>Img-404</title>
    <desc>Created with Sketch.</desc>
    <defs>
        <rect id="path-1" x="0" y="0" width="375" height="667"></rect>
        <linearGradient x1="50%" y1="0%" x2="50%" y2="100%" id="linearGradient-3">
            <stop stop-color="#D7ECFF" offset="0%"></stop>
            <stop stop-color="#AFFFFE" offset="100%"></stop>
        </linearGradient>
        <linearGradient x1="50%" y1="0%" x2="50%" y2="100%" id="linearGradient-4">
            <stop stop-color="#00B2BA" offset="0%"></stop>
            <stop stop-color="#163050" offset="100%"></stop>
        </linearGradient>
        <path d="M224.186111,165.296045 C191.927268,162.827794 187.161857,152.294473 146.488862,152.294473 C100.418022,152.294473 101.947019,167.429285 54.3471832,165.809136 C25.5654236,164.829496 14.3205234,158.211499 0,152.88315 L0,0.615180122 L224.186111,0.615180122 L224.186111,165.296045 Z" id="path-5"></path>
        <path d="M48.706131,220.550344 C24.4711801,215.507082 8.45329861,201.088766 2.38298102,178.854197 C-2.75353657,160.040474 2.20820231,142.198224 17.1298569,125.822139 C28.7727125,113.044766 44.2316727,103.60054 55.5187949,96.7051185 C60.3638088,93.7449972 64.5479986,91.1887815 66.6657236,89.4292602 C87.2111764,72.3682648 95.0277467,56.8500447 87.4146828,40.2195114 C81.1510587,26.5367475 71.1727214,21.5252731 58.9970764,22.9485056 C46.8214314,24.371738 31.1677366,32.4013778 27.682044,47.7590528 C25.0634514,59.2950648 28.7646838,69.4748435 38.6819856,78.0167667 C42.5586144,81.3554722 42.9946347,87.2046917 39.6553116,91.0813204 C36.3172236,94.9579491 30.4680042,95.394587 26.5907579,92.0546463 C6.23984676,74.5279861 7.21873102,54.2091898 9.61375509,43.6576204 C12.2848431,31.8906287 17.8579986,21.8053417 25.7329218,14.4948981 C33.2453181,7.51980741 45.7639199,1.43960833 55.7540977,0.406375926 C76.4323329,-1.73481759 96.096481,8.92483056 105.625317,29.7420241 C112.274319,44.2659491 112.343489,65.0010028 105.625317,78.8406352 C101.000784,88.3682361 96.4151588,96.1270519 84.9359653,105.660211 C81.7856255,108.276333 63.7772431,122.823109 58.7197773,127.157374 C34.9424625,147.53793 22.2503171,151.52696 27.1910579,173.641098 C30.6625458,189.179728 42.4777097,193.398503 58.6882801,198.653598 C72.1999708,203.033565 78.8563838,203.217607 78.9854606,203.195992 C84.0200755,202.356683 88.8002421,205.755913 89.6494319,210.792381 C90.4986218,215.830083 87.1216255,220.601604 82.0870106,221.462528 C81.7022505,221.527993 76.1216838,222.456234 68.0503662,222.456234 C62.4901801,222.456234 55.7485394,222.015891 48.706131,220.550344 Z" id="path-7"></path>
    </defs>
    <g id="注册&amp;登录" stroke="none" stroke-width="1" fill="none" fill-rule="evenodd">
        <g id="404">
            <g id="Img-404">
                <mask id="mask-2" fill="white">
                    <use xlink:href="#path-1"></use>
                </mask>
                <rect stroke="#979797" stroke-width="0.617592593" x="0.308796296" y="0.308796296" width="374.382407" height="666.382407"></rect>
                <g mask="url(#mask-2)">
                    <g transform="translate(-551.369444, -327.941667)">
                        <rect id="天" fill="url(#linearGradient-3)" x="146.369444" y="327.941667" width="1185.77778" height="665.764815"></rect>
                        <g id="海" stroke-width="1" fill="none" transform="translate(0.000000, 550.275000)">
                            <path d="M0,452.688133 L0,11.6203263 C12.5291747,16.1918971 24.0677394,21.0696285 48.8117683,21.0319227 C94.6544477,20.9620661 90.8648023,14.984179 137.018707,14.4953324 C167.727813,14.1700719 177.321453,4.17306036 213.6798,5.55350839 C250.038147,6.93395642 249.004786,20.71677 282.111954,20.0042101 C315.219122,19.2916501 308.529693,8.0810295 346.479094,7.46987014 C384.428496,6.85871078 405.468725,22.0721214 427.296875,21.0319227 C455.631866,19.6816471 472.21646,4.10306672 497.897358,3.83824146 C543.361799,3.36940535 543.840059,19.1110159 589.720591,19.1453704 C635.601122,19.1797248 635.434905,3.76011969 681.543823,3.97575231 C727.652741,4.19138494 728.701141,18.4786507 773.367055,20.0042101 C818.03297,21.5297694 819.10691,9.98847159 865.190288,10.2481771 C911.273665,10.5078826 910.544429,21.7753521 957.01352,21.0391602 C1003.48261,20.3029683 1031.52679,7.52690972 1066.31945,10.2481771 C1101.11211,12.9694444 1101.4704,29.0351641 1148.95864,26.5685438 C1196.44689,24.1019236 1210.24466,0.00723741319 1238.85938,0.00723741319 C1255.14387,0.00723741319 1260.56009,7.47167999 1282.28188,7.46987014 C1304.00367,7.46806029 1309.43042,-3.39577749e-14 1325.72281,0 C1353.94117,6.07922509e-14 1367.75022,23.4318091 1413.66944,26.4464789 L1413.66944,452.688133 L1285.21024,452.688133 L227.274074,452.69537 L0,452.688133 Z" id="Combined-Shape" fill="#74C8E2" opacity="0.800000012"></path>
                            <path d="M81.5222222,446.304951 L81.5222222,15.590731 C99.817614,11.2763878 109.847525,4.25705514 141.173223,3.7612591 C186.620769,3.04195467 188.977047,16.1802461 221.396088,16.2286929 C253.81513,16.2771396 259.743046,3.97575231 284.70536,3.97575231 C309.667675,3.97575231 313.539755,19.1453704 348.007395,19.1453704 C382.475035,19.1453704 379.807191,3.97575231 424.541592,3.97575231 C469.275993,3.97575231 470.612431,19.1453704 516.68327,19.1453704 C562.75411,19.1453704 563.917544,2.85053635 608.824949,3.97575231 C653.732354,5.10096828 653.366792,22.1426916 700.966628,23.76284 C748.566463,25.3829884 747.037467,10.2481771 793.108306,10.2481771 C839.179146,10.2481771 839.179146,23.76284 885.249985,23.76284 C931.320824,23.76284 931.320824,10.2481771 977.391663,10.2481771 C1023.4625,10.2481771 1022.0019,20.9795664 1069.53334,23.76284 C1117.06478,26.5461135 1116.98628,12.1068118 1160.6736,7.31702474 C1204.36092,2.52723765 1210.57002,13.9837355 1235.62546,13.2782407 C1260.68091,12.572746 1261.53049,5.12292028 1286.95561,3.7612591 C1312.38073,2.39959792 1327.09024,6.93337544 1342.07937,10.2481771 L1340.79352,446.519444 L282.857407,446.519444 L81.5222222,446.304951 Z" id="Combined-Shape" fill="url(#linearGradient-4)" opacity="0.900000036"></path>
                        </g>
                        <g id="船" stroke-width="1" fill="none" transform="translate(646.619444, 408.228704)">
                            <mask id="mask-6" fill="white">
                                <use xlink:href="#path-5"></use>
                            </mask>
                            <g id="Combined-Shape" opacity="0.900000036"></g>
                            <g id="Page-1" mask="url(#mask-6)">
                                <g transform="translate(40.761111, 71.640741)">
                                    <polygon id="Fill-1" fill="#303030" points="122.008134 80.4891751 113.01228 75.4996445 136.771067 32.6572464 145.765068 37.6504825"></polygon>
                                    <polygon id="Fill-2" fill="#424242" points="146.732959 41.2750717 133.181125 33.7589698 136.615558 27.5688393 150.165539 35.0837059"></polygon>
                                    <polygon id="Fill-3" fill="#303030" points="96.806836 66.2284681 87.8109823 61.2389375 111.569769 18.3965394 120.56377 23.3891579"></polygon>
                                    <polygon id="Fill-4" fill="#424242" points="121.531661 27.0143646 107.980445 19.4982628 111.41426 13.3081322 124.964859 20.8229989"></polygon>
                                    <polygon id="Fill-5" fill="#303030" points="71.1017059 52.9200888 62.1058522 47.9311758 85.8646393 5.08816009 94.8592578 10.0813962"></polygon>
                                    <polygon id="Fill-6" fill="#424242" points="85.7093147 0.000123518519 82.2748823 6.19025407 95.8267166 13.7057383 99.2592962 7.51437259"></polygon>
                                    <polygon id="Fill-7" fill="#EA5E5E" points="147.573071 97.5133619 45.7759012 41.0592231 36.7324929 57.3618147 109.132255 97.5133619"></polygon>
                                    <polygon id="Fill-8" fill="#D32424" points="147.573071 97.5133619 45.7759012 41.0592231 43.393229 45.3564323 137.440847 97.5133619"></polygon>
                                    <g id="Group-53" stroke-width="1" fill="none" transform="translate(0.000000, 30.245980)">
                                        <path d="M55.0297851,26.5991571 C55.0297851,28.8274312 53.2220916,30.6351247 50.9919647,30.6351247 C48.7618379,30.6351247 46.9529092,28.8274312 46.9529092,26.5991571 C46.9529092,24.3671775 48.7618379,22.5601016 50.9919647,22.5601016 C53.2220916,22.5601016 55.0297851,24.3671775 55.0297851,26.5991571" id="Fill-9" fill="#FFFFFF"></path>
                                        <path d="M53.4728342,26.5991571 C53.4728342,27.9683599 52.3624027,29.079409 50.9919647,29.079409 C49.6215268,29.079409 48.5098601,27.9683599 48.5098601,26.5991571 C48.5098601,25.2281016 49.6215268,24.1158173 50.9919647,24.1158173 C52.3624027,24.1158173 53.4728342,25.2281016 53.4728342,26.5991571" id="Fill-11" fill="#424242"></path>
                                        <path d="M70.2244156,35.3431566 C70.2244156,37.5732834 68.4161045,39.3809769 66.1853601,39.3809769 C63.9564684,39.3809769 62.1487749,37.5732834 62.1487749,35.3431566 C62.1487749,33.1130297 63.9564684,31.3059538 66.1853601,31.3059538 C68.4161045,31.3059538 70.2244156,33.1130297 70.2244156,35.3431566" id="Fill-13" fill="#FFFFFF"></path>
                                        <path d="M68.6680823,35.3431566 C68.6680823,36.7129769 67.5557981,37.8252612 66.1853601,37.8252612 C64.8149221,37.8252612 63.7051082,36.7129769 63.7051082,35.3431566 C63.7051082,33.9727186 64.8149221,32.8616695 66.1853601,32.8616695 C67.5557981,32.8616695 68.6680823,33.9727186 68.6680823,35.3431566" id="Fill-15" fill="#424242"></path>
                                        <path d="M84.8066414,43.3272701 C84.8066414,45.5586321 82.9964775,47.3663256 80.7663506,47.3663256 C78.537459,47.3663256 76.7285303,45.5586321 76.7285303,43.3272701 C76.7285303,41.0983784 78.537459,39.2894497 80.7663506,39.2894497 C82.9964775,39.2894497 84.8066414,41.0983784 84.8066414,43.3272701" id="Fill-17" fill="#FFFFFF"></path>
                                        <path d="M83.2490729,43.3272701 C83.2490729,44.6983256 82.1380238,45.8099923 80.7663506,45.8099923 C79.3971479,45.8099923 78.2848636,44.6983256 78.2848636,43.3272701 C78.2848636,41.9580673 79.3971479,40.8470182 80.7663506,40.8470182 C82.1380238,40.8470182 83.2490729,41.9580673 83.2490729,43.3272701" id="Fill-19" fill="#424242"></path>
                                        <path d="M101.433346,52.7925559 C101.433346,55.0220652 99.6231818,56.8297587 97.3930549,56.8297587 C95.1641632,56.8297587 93.3564697,55.0220652 93.3564697,52.7925559 C93.3564697,50.5618115 95.1641632,48.7547356 97.3930549,48.7547356 C99.6231818,48.7547356 101.433346,50.5618115 101.433346,52.7925559" id="Fill-21" fill="#FFFFFF"></path>
                                        <path d="M99.8758389,52.7925559 C99.8758389,54.1617587 98.7647898,55.274043 97.3943519,55.274043 C96.0251491,55.274043 94.9141,54.1617587 94.9141,52.7925559 C94.9141,51.4215004 96.0251491,50.3104513 97.3943519,50.3104513 C98.7647898,50.3104513 99.8758389,51.4215004 99.8758389,52.7925559" id="Fill-23" fill="#424242"></path>
                                        <polygon id="Fill-25" fill="#424242" points="136.460357 47.4766894 56.5939001 3.18418389 58.3108075 0.0894274074 138.178499 44.3813154"></polygon>
                                        <polygon id="Fill-27" fill="#424242" points="62.6384023 3.95148093 57.2980792 13.5822198 54.2014699 11.8646948 59.5430282 2.2358087"></polygon>
                                        <polygon id="Fill-29" fill="#424242" points="74.6223543 11.2395676 69.2820311 20.8703065 66.1854219 19.1533991 71.5275978 9.52266019"></polygon>
                                        <polygon id="Fill-31" fill="#424242" points="89.6276309 18.9980745 84.2879254 28.6275782 81.1919337 26.9106708 86.533492 17.2811671"></polygon>
                                        <polygon id="Fill-33" fill="#424242" points="101.611583 26.284926 96.2718773 35.9156649 93.1771208 34.1981399 98.5162088 24.5680186"></polygon>
                                        <polygon id="Fill-35" fill="#424242" points="113.035872 31.3861173 107.695549 41.0168562 104.59894 39.2993312 109.939263 29.6704451"></polygon>
                                        <polygon id="Fill-37" fill="#424242" points="125.018589 38.6729688 119.678266 48.3049429 116.582892 46.5880355 121.92198 36.9579142"></polygon>
                                        <polygon id="Fill-39" fill="#424242" points="135.806573 45.6076072 130.466867 55.2383461 127.372111 53.5208211 132.712434 43.8913174"></polygon>
                                        <polygon id="Fill-41" fill="#BCBCBC" points="156.586402 67.2673823 45.6198356 5.72675083 42.1860207 11.917499 141.990219 67.2673823"></polygon>
                                        <path d="M7.55748056,12.7135758 C7.55748056,12.7135758 -3.47828148,33.1182175 1.93553519,67.2673823 L102.921806,67.2673823 L7.55748056,12.7135758 Z" id="Fill-43" fill="#FFFFFF"></path>
                                        <path d="M11.8984154,15.1972244 C11.8984154,15.1972244 8.35034593,19.9841846 8.67149407,26.5973661 C8.99264222,33.2111652 16.7045209,25.022505 21.8453617,30.2411624 C26.9862024,35.4604374 22.487658,42.9858031 32.1276607,45.8094365 C41.7670459,48.634305 50.5337728,42.8554911 56.5929737,50.2431337 C62.6521746,57.6307763 73.2556219,49.565017 73.2556219,49.565017 L11.8984154,15.1972244 Z" id="Fill-45" fill="#E8E9EA"></path>
                                        <polygon id="Fill-47" fill="#BCBCBC" points="4.43425306 12.5061265 101.046733 67.2674441 108.752435 67.2674441 6.51739287 8.54921074"></polygon>
                                    </g>
                                </g>
                            </g>
                        </g>
                        <g id="气泡" stroke-width="1" fill="none" transform="translate(483.575000, 613.887037)">
                            <circle id="Oval-2" fill="#FFFFFF" opacity="0.800000012" cx="269.887963" cy="12.9694444" r="4.32314815"></circle>
                            <circle id="Oval-2-Copy-2" fill="#FFFFFF" opacity="0.800000012" cx="125.371296" cy="22.8509259" r="4.32314815"></circle>
                            <circle id="Oval-2-Copy-5" fill="#FFFFFF" opacity="0.800000012" cx="251.977778" cy="107.461111" r="5.55833333"></circle>
                            <circle id="Oval-2-Copy-29" fill="#FFFFFF" opacity="0.800000012" cx="376.113889" cy="17.2925926" r="5.55833333"></circle>
                            <circle id="Oval-2-Copy-26" fill="#FFFFFF" opacity="0.800000012" cx="114.563426" cy="123.209722" r="4.01435185"></circle>
                            <circle id="Oval-2-Copy-27" fill="#FFFFFF" opacity="0.800000012" cx="115.798611" cy="106.534722" r="2.77916667"></circle>
                            <circle id="Oval-2-Copy-32" fill="#FFFFFF" opacity="0.300000012" cx="358.5125" cy="180.028241" r="2.77916667"></circle>
                            <circle id="Oval-2-Copy-9" fill="#FFFFFF" opacity="0.100000001" cx="261.859259" cy="98.1972222" r="2.47037037"></circle>
                            <circle id="Oval-2-Copy-10" fill="#FFFFFF" cx="327.941667" cy="125.988889" r="1.85277778"></circle>
                            <circle id="Oval-2-Copy-30" fill="#FFFFFF" cx="368.702778" cy="29.6444444" r="1.85277778"></circle>
                            <circle id="Oval-2-Copy-6" fill="#FFFFFF" opacity="0.800000012" cx="305.090741" cy="101.285185" r="2.47037037"></circle>
                            <circle id="Oval-2-Copy-7" fill="#FFFFFF" opacity="0.800000012" cx="318.677778" cy="127.841667" r="3.70555556"></circle>
                            <g id="气泡-copy" opacity="0.200000003" transform="translate(55.761186, 263.047072) rotate(-101.000000) translate(-55.761186, -263.047072) translate(-23.599462, 221.668369)" fill="#FFFFFF">
                                <circle id="Oval-2-Copy-5" opacity="0.800000012" cx="86.1541667" cy="53.7305556" r="2.77916667"></circle>
                                <circle id="Oval-2-Copy-26" opacity="0.800000012" cx="16.5206019" cy="55.7377315" r="2.00717593"></circle>
                                <circle id="Oval-2-Copy-27" opacity="0.800000012" cx="1.38958333" cy="56.6641204" r="1.38958333"></circle>
                                <circle id="Oval-2-Copy-32" opacity="0.300000012" cx="140.03912" cy="81.3678241" r="1.38958333"></circle>
                                <circle id="Oval-2-Copy-33" opacity="0.100000001" cx="9.88148148" cy="60.8328704" r="1.23518519"></circle>
                                <circle id="Oval-2-Copy-10" cx="124.136111" cy="62.9944444" r="1"></circle>
                                <circle id="Oval-2-Copy-7" opacity="0.800000012" cx="156.250926" cy="80.9046296" r="1.85277778"></circle>
                                <circle id="Oval-2-Copy-8" opacity="0.800000012" cx="157.486111" cy="77.8166667" r="1.23518519"></circle>
                            </g>
                            <g id="气泡-copy-3" opacity="0.200000003" transform="translate(257.536111, 263.047072) rotate(-101.000000) translate(-257.536111, -263.047072) translate(178.175463, 221.668369)" fill="#FFFFFF">
                                <circle id="Oval-2" opacity="0.800000012" cx="95.1092593" cy="6.48472222" r="2.16157407"></circle>
                                <circle id="Oval-2-Copy-2" opacity="0.800000012" cx="31.8060185" cy="14.8222222" r="2.16157407"></circle>
                                <circle id="Oval-2-Copy-5" opacity="0.800000012" cx="86.1541667" cy="53.7305556" r="2.77916667"></circle>
                                <circle id="Oval-2-Copy-29" opacity="0.800000012" cx="148.222222" cy="8.6462963" r="2.77916667"></circle>
                                <circle id="Oval-2-Copy-26" opacity="0.800000012" cx="16.5206019" cy="55.7377315" r="2.00717593"></circle>
                                <circle id="Oval-2-Copy-27" opacity="0.800000012" cx="1.38958333" cy="56.6641204" r="1.38958333"></circle>
                                <circle id="Oval-2-Copy-32" opacity="0.300000012" cx="140.03912" cy="81.3678241" r="1.38958333"></circle>
                                <circle id="Oval-2-Copy-9" opacity="0.100000001" cx="91.0949074" cy="49.0986111" r="1.23518519"></circle>
                                <circle id="Oval-2-Copy-33" opacity="0.100000001" cx="9.88148148" cy="60.8328704" r="1.23518519"></circle>
                                <circle id="Oval-2-Copy-10" cx="124.136111" cy="62.9944444" r="1"></circle>
                                <circle id="Oval-2-Copy-30" cx="144.516667" cy="14.8222222" r="1"></circle>
                                <circle id="Oval-2-Copy-6" opacity="0.800000012" cx="112.710648" cy="50.6425926" r="1.23518519"></circle>
                                <circle id="Oval-2-Copy-7" opacity="0.800000012" cx="156.250926" cy="80.9046296" r="1.85277778"></circle>
                                <circle id="Oval-2-Copy-8" opacity="0.800000012" cx="157.486111" cy="77.8166667" r="1.23518519"></circle>
                                <circle id="Oval-2-Copy" cx="91.5581019" cy="1.38958333" r="1.38958333"></circle>
                                <circle id="Oval-2-Copy-28" cx="36.5923611" cy="18.3733796" r="1.38958333"></circle>
                                <circle id="Oval-2-Copy-3" cx="77.0446759" cy="39.3715278" r="1.38958333"></circle>
                                <circle id="Oval-2-Copy-4" cx="77.0446759" cy="50.7969907" r="1.38958333"></circle>
                                <circle id="Oval-2-Copy-31" cx="149.611806" cy="17.1381944" r="1.38958333"></circle>
                            </g>
                            <g id="气泡-copy-2" opacity="0.200000003" transform="translate(440.034722, 282.239815) rotate(157.000000) translate(-440.034722, -282.239815) translate(360.674074, 240.861111)" fill="#FFFFFF">
                                <circle id="Oval-2" opacity="0.800000012" cx="95.1092593" cy="6.48472222" r="2.16157407"></circle>
                                <circle id="Oval-2-Copy-5" opacity="0.800000012" cx="86.1541667" cy="53.7305556" r="2.77916667"></circle>
                                <circle id="Oval-2-Copy-29" opacity="0.800000012" cx="148.222222" cy="8.6462963" r="2.77916667"></circle>
                                <circle id="Oval-2-Copy-32" opacity="0.300000012" cx="140.03912" cy="81.3678241" r="1.38958333"></circle>
                                <circle id="Oval-2-Copy-9" opacity="0.100000001" cx="91.0949074" cy="49.0986111" r="1.23518519"></circle>
                                <circle id="Oval-2-Copy-10" cx="124.136111" cy="62.9944444" r="1"></circle>
                                <circle id="Oval-2-Copy-30" cx="144.516667" cy="14.8222222" r="1"></circle>
                                <circle id="Oval-2-Copy-6" opacity="0.800000012" cx="112.710648" cy="50.6425926" r="1.23518519"></circle>
                                <circle id="Oval-2-Copy-7" opacity="0.800000012" cx="156.250926" cy="80.9046296" r="1.85277778"></circle>
                                <circle id="Oval-2-Copy-8" opacity="0.800000012" cx="157.486111" cy="77.8166667" r="1.23518519"></circle>
                                <circle id="Oval-2-Copy" cx="91.5581019" cy="1.38958333" r="1.38958333"></circle>
                                <circle id="Oval-2-Copy-3" cx="77.0446759" cy="39.3715278" r="1.38958333"></circle>
                                <circle id="Oval-2-Copy-4" cx="77.0446759" cy="50.7969907" r="1.38958333"></circle>
                                <circle id="Oval-2-Copy-31" cx="149.611806" cy="17.1381944" r="1.38958333"></circle>
                            </g>
                            <circle id="Oval-2-Copy-8" fill="#FFFFFF" opacity="0.800000012" cx="327.324074" cy="136.487963" r="2.47037037"></circle>
                            <circle id="Oval-2-Copy" fill="#FFFFFF" cx="262.785648" cy="2.77916667" r="2.77916667"></circle>
                            <circle id="Oval-2-Copy-28" fill="#FFFFFF" cx="118.268981" cy="39.8347222" r="2.77916667"></circle>
                            <circle id="Oval-2-Copy-3" fill="#FFFFFF" cx="233.758796" cy="78.7430556" r="2.77916667"></circle>
                            <circle id="Oval-2-Copy-4" fill="#FFFFFF" cx="233.758796" cy="101.593981" r="2.77916667"></circle>
                            <circle id="Oval-2-Copy-31" fill="#FFFFFF" cx="378.893056" cy="34.2763889" r="2.77916667"></circle>
                        </g>
                        <g id="触手" stroke-width="1" fill="none" transform="translate(516.925000, 758.403704)">
                            <path d="M156.620617,262.574431 C151.912709,262.574431 147.883534,259.000423 147.412311,254.217169 C143.346699,212.897136 157.399401,195.610102 168.691464,181.719209 C176.557741,172.043386 182.770105,164.400678 182.880036,149.306097 C183.148071,112.30489 164.913033,97.0342954 164.136719,96.4024981 L164.208977,96.4593167 L162.588414,93.8061389 C157.440162,85.3766176 167.653909,76.0034148 175.611589,81.8557222 C176.678789,82.6888546 201.74502,102.800757 201.407196,149.439497 C201.250328,171.039798 194.126397,186.007772 185.60362,196.492024 C175.042786,209.483702 168.69764,220.837524 172.016583,254.571049 C172.518068,259.662482 162.63041,262.027862 157.538977,262.529347 C157.230798,262.559609 156.923855,262.574431 156.620617,262.574431" id="Fill-9" fill="#20425C" opacity="0.300000012"></path>
                            <path d="M286.263801,262.574431 C281.352087,262.574431 273.849572,259.5297 273.610564,254.571049 C271.923919,219.517729 281.85419,202.163377 289.667971,188.46332 C295.2121,178.743031 302.419406,171.209636 301.433728,159.272189 C299.083171,130.807346 287.615711,120.688092 287.500221,120.589277 C287.59286,120.668329 287.643503,120.704767 287.643503,120.704767 L286.583096,119.109525 C281.104433,110.870222 290.678971,100.957244 299.104169,106.146874 C299.950888,106.813256 304.409907,110.556485 309.050497,118.801964 C314.985562,129.34674 318.636152,142.450202 319.898511,157.74797 C321.356647,175.403707 315.056585,186.449969 308.963417,197.132468 C301.654209,209.946896 294.096728,223.197963 295.524602,252.865258 C295.770404,257.975837 291.827075,262.317513 286.716496,262.563315 C286.565186,262.570726 286.413876,262.574431 286.263801,262.574431" id="Fill-11" fill="#20425C" opacity="0.300000012"></path>
                            <path d="M129.522507,254.571049 C126.541387,254.571049 123.613998,253.134529 121.826068,250.47394 C118.974643,246.232314 102.846212,243.737857 102.846212,243.737857 C103.150068,243.532199 145.694169,215.28969 145.405135,190.933691 C145.232209,176.320832 136.709432,159.975627 123.84436,141.526283 C103.183418,111.896661 85.1460085,78.7164991 99.8558289,40.9013046 C109.878739,15.1347241 126.91256,5.60156481 139.437338,2.1424287 C152.877388,-1.56992037 168.853891,-0.430462037 184.424635,5.35329259 C189.220859,7.13504722 191.664673,12.4667241 189.883536,17.2629481 C188.102399,22.0597898 182.770105,24.5029861 177.973881,22.7218491 C171.052521,20.1508111 162.586561,17.4735472 149.474453,21.0957278 C137.204123,24.4850759 129.728165,36.1168148 124.770749,51.3577648 C114.710784,82.2874194 132.149128,100.442789 150.092046,125.468876 C164.905621,146.131054 178.198067,171.872313 178.438928,192.186169 C178.846539,226.591017 136.261677,251.932694 134.682493,252.993718 C133.096515,254.0603 131.299938,254.571049 129.522507,254.571049" id="Fill-1" fill="#1B3956" opacity="0.900000036"></path>
                            <path d="M170.3675,242.001004 C170.483608,241.861428 187.542471,230.271492 196.034986,213.54832 C203.491182,198.864438 216.33593,181.464867 208.949547,156.551882 C201.563164,131.638896 199.243573,113.916884 203.205317,88.4132586 C207.167062,62.9096335 222.395154,39.7735188 241.103887,21.0647864 C244.721744,17.4475466 250.587639,17.4475466 254.204878,21.0647864 C257.822736,24.6826438 257.822736,30.5485382 254.204878,34.1657781 C238.519879,49.8513947 230.104563,68.4853984 228.479059,91.1325188 C226.882582,113.377586 232.163801,133.799008 236.913705,151.153978 C249.435395,196.90709 217.011808,245.411755 215.168294,247.619649 C213.336515,249.814573 167.093642,245.928275 170.3675,242.001004 Z" id="Fill-4" fill="#1B3956" opacity="0.900000036"></path>
                            <g id="Oval-2-Copy-11" transform="translate(242.713889, 32.114815)">
                                <mask id="mask-8" fill="white">
                                    <use xlink:href="#path-7"></use>
                                </mask>
                                <use id="Mask" fill="#1B3956" opacity="0.900000036" xlink:href="#path-7"></use>
                            </g>
                            <path d="M89.2681303,297.266976 C69.851411,293.226383 57.0180981,281.67462 52.1546407,263.86058 C48.0393313,248.787276 52.0146103,234.492304 63.9696409,221.372003 C73.2977414,211.134942 85.683254,203.568354 94.7263457,198.043835 C98.6081061,195.672225 101.960423,193.624219 103.657116,192.214514 C120.117859,178.545472 126.380391,166.112482 120.280905,152.78832 C115.262573,141.825872 107.268063,137.810746 97.5130984,138.951021 C87.7581341,140.091296 75.2166027,146.524536 72.4239123,158.8289 C70.3259309,168.071399 73.2913089,176.227302 81.2369188,183.070977 C84.342822,185.745903 84.6921557,190.43222 82.0167345,193.538123 C79.342303,196.644026 74.6559864,196.993854 71.5495884,194.317939 C55.24471,180.275812 56.0289791,163.996664 57.9478404,155.542887 C60.0878804,146.115331 64.5530183,138.035133 70.8623016,132.178103 C76.8811333,126.589754 86.91087,121.718379 94.9148671,120.890567 C111.481993,119.175072 127.236646,127.71544 134.871023,144.393897 C140.198114,156.030272 140.253533,172.64292 134.871023,183.731049 C131.165908,191.364436 127.491967,197.580696 118.29499,205.218535 C115.77098,207.314538 101.342904,218.96922 97.2909301,222.441776 C78.2408627,238.770405 68.0720852,241.966363 72.0305408,259.683915 C74.8118506,272.133258 84.2780023,275.513284 97.2656949,279.723596 C108.091081,283.232767 113.42411,283.380219 113.527525,283.362901 C117.561191,282.690459 121.390997,285.413876 122.071357,289.449027 C122.751716,293.485167 120.046112,297.308045 116.012446,297.997806 C115.704181,298.050256 111.233105,298.793951 104.766473,298.793951 C100.311726,298.793951 94.9104138,298.441153 89.2681303,297.266976 Z" id="Mask-Copy" fill="#1B3956" opacity="0.300000012" transform="translate(94.735006, 209.734025) rotate(-46.000000) translate(-94.735006, -209.734025) "></path>
                            <path d="M340.136672,317.331129 C337.938498,317.331129 335.779943,316.271889 334.461585,314.310063 C332.359042,311.182435 320.466496,309.343109 320.466496,309.343109 C320.690549,309.191464 352.061096,288.366415 351.847973,270.407145 C351.720463,259.632129 345.436062,247.57974 335.949804,233.975833 C320.71514,212.127975 307.414979,187.662072 318.261491,159.778457 C325.652038,140.779073 338.212188,133.749651 347.447526,131.199004 C357.357753,128.461646 369.138273,129.301843 380.619601,133.566584 C384.156171,134.880388 385.958154,138.811782 384.644806,142.348351 C383.331457,145.885376 379.399608,147.686905 375.863038,146.373556 C370.759467,144.477762 364.516961,142.50364 354.848547,145.17451 C345.80083,147.673698 340.288317,156.25054 336.632891,167.488689 C329.21502,190.295145 342.073452,203.682286 355.303938,222.135656 C366.226956,237.371231 376.028345,256.351944 376.205948,271.330678 C376.506506,296.699622 345.105903,315.385697 343.941467,316.16806 C342.772022,316.954521 341.447289,317.331129 340.136672,317.331129" id="Fill-1-Copy" fill="#1B3956" opacity="0.300000012" transform="translate(349.689993, 223.475298) rotate(37.000000) translate(-349.689993, -223.475298) "></path>
                        </g>
                    </g>
                </g>
            </g>
        </g>
    </g>
</svg>