<?xml version="1.0" encoding="UTF-8"?>
<svg width="158px" height="24px" viewBox="0 0 158 24" version="1.1" xmlns="http://www.w3.org/2000/svg" xmlns:xlink="http://www.w3.org/1999/xlink">
    <!-- Generator: Sketch 50 (54983) - http://www.bohemiancoding.com/sketch -->
    <title>全局/LOGO-2</title>
    <desc>Created with Sketch.</desc>
    <defs>
        <path d="M47.2141176,10.5 L45.6484601,10.5 C44.4220698,7.00442288 41.1129578,4.5 37.2232238,4.5 C32.2893472,4.5 28.2896501,8.52943725 28.2896501,13.5 C28.2896501,18.4705627 32.2893472,22.5 37.2232238,22.5 C41.1129578,22.5 44.4220698,19.9955771 45.6484601,16.5 L47.2141176,16.5 C45.932821,20.8372334 41.9446482,24 37.2232238,24 C31.4670345,24 26.8007211,19.2989899 26.8007211,13.5 C26.8007211,7.70101013 31.4670345,3 37.2232238,3 C41.9446482,3 45.932821,6.16276658 47.2141176,10.5 Z M24.5673277,1.5 L24.5673277,24 L23.0783987,24 L23.0783987,1.5 L2.97826685,1.5 L2.97826685,0 L44.6784557,0 L44.6784557,1.5 L24.5673277,1.5 Z M10.4225027,24 C4.66631338,24 0,19.2989899 0,13.5 C0,7.70101013 4.66631338,3 10.4225027,3 C16.1786919,3 20.8450053,7.70101013 20.8450053,13.5 C20.8450053,19.2989899 16.1786919,24 10.4225027,24 Z" id="path-1"></path>
        <path d="M149.04532,12.9956716 L149.04532,11.25 L149.80136,11.25 C150.814733,11.2768027 151.630369,11.0078176 152.294419,10.4430853 C153.233818,9.64418635 153.709216,8.12774078 153.709216,6 C153.709216,5.14629752 153.460541,4.30582491 153.022612,3.54560848 C152.661532,2.91879558 152.190862,2.39093703 151.795389,2.11898045 C151.326983,1.79687043 150.649216,1.5851197 149.756968,1.5 L143.075533,1.5 L143.075533,24 L141.583086,24 L141.583086,0 L149.825393,0 C151.002671,0.107566996 151.93079,0.394587179 152.638149,0.881019554 C153.225169,1.28469713 153.845512,1.98041543 154.314201,2.79402928 C154.877588,3.77203409 155.201662,4.86734316 155.201662,6 C155.201662,8.52544684 154.598886,10.4482126 153.258454,11.5881647 C152.626843,12.1253092 151.89788,12.4765584 151.082149,12.6418485 C151.584159,13.0687502 151.994336,13.5063507 152.312255,13.9565133 C152.706188,14.5143115 154.602103,17.8621404 158,24 L156.40832,24 C153.215637,18.377869 151.444606,15.3194479 151.095226,14.8247367 C150.668519,14.2205318 149.985926,13.6077524 149.04532,12.9956716 Z M123.673725,12.75 L123.673725,11.25 L137.105746,11.25 L137.105746,12.75 L123.673725,12.75 Z M123.673725,1.5 L123.673725,0 L137.105746,0 L137.105746,1.5 L123.673725,1.5 Z M123.673725,24 L123.673725,22.5 L137.105746,22.5 L137.105746,24 L123.673725,24 Z M91.7260379,0 L101.287025,24 L99.794578,24 L90.8398977,1.5 L81.8852174,24 L80.3927707,24 L89.9537575,0 L91.7260379,0 Z M119.196385,0 L108.312095,12.0019117 L119.196385,24 L117.089609,24 L106.510588,12.3098544 L106.510588,24 L105.018142,24 L105.018142,0 L106.510588,7.66053887e-15 L106.510588,11.688562 L117.082001,0 L119.196385,0 Z M55.0211765,0 L56.7589577,1.33226763e-15 L66.2145269,10.8610558 L75.670096,0 L77.4078772,0 L77.4078772,24 L75.9154305,24 L75.9154305,1.99608705 L66.2145269,13.1389442 L56.5136232,1.99608705 L56.5136232,24 L55.0211765,24 L55.0211765,0 Z" id="path-3"></path>
    </defs>
    <g id="注册&amp;登录" stroke="none" stroke-width="1" fill="none" fill-rule="evenodd">
        <g id="登录-切语言" transform="translate(-40.000000, -33.000000)">
            <g id="全局/LOGO-2" transform="translate(40.000000, 33.000000)">
                <mask id="mask-2" fill="white">
                    <use xlink:href="#path-1"></use>
                </mask>
                <use id="Otc" fill="#FFFFFF" fill-rule="evenodd" xlink:href="#path-1"></use>
                <mask id="mask-4" fill="white">
                    <use xlink:href="#path-3"></use>
                </mask>
                <use id="Combined-Shape" fill="#FFFFFF" fill-rule="evenodd" xlink:href="#path-3"></use>
            </g>
        </g>
    </g>
</svg>