<?xml version="1.0" encoding="UTF-8"?>
<svg width="115px" height="118px" viewBox="0 0 115 118" version="1.1" xmlns="http://www.w3.org/2000/svg" xmlns:xlink="http://www.w3.org/1999/xlink">
    <!-- Generator: Sketch 49.3 (51167) - http://www.bohemiancoding.com/sketch -->
    <title>Page 1 Copy 2</title>
    <desc>Created with Sketch.</desc>
    <defs>
        <polygon id="path-1" points="0.432088542 0.429823113 96.1588073 0.429823113 96.1588073 107.830189 0.432088542 107.830189"></polygon>
    </defs>
    <g id="主页&amp;公共" stroke="none" stroke-width="1" fill="none" fill-rule="evenodd">
        <g id="Invite-Copy-2" transform="translate(-743.000000, -1088.000000)">
            <g id="Page-1-Copy-2" transform="translate(743.000000, 1085.000000)">
                <g id="Group-3" transform="translate(8.984375, 12.651627)">
                    <mask id="mask-2" fill="white">
                        <use xlink:href="#path-1"></use>
                    </mask>
                    <g id="Clip-2"></g>
                    <path d="M91.0646667,23.5501132 L53.3895885,1.79477358 C50.2372708,-0.0251603774 46.353625,-0.0251603774 43.2013073,1.79477358 L5.52622917,23.5501132 C2.37391146,25.3700472 0.432088542,28.73375 0.432088542,32.374217 L0.432088542,75.8848962 C0.432088542,79.5253632 2.37391146,82.8896651 5.52622917,84.7095991 L43.2013073,106.464939 C46.353625,108.285472 50.2372708,108.285472 53.3895885,106.464939 L91.0646667,84.7095991 C94.2169844,82.8896651 96.1588073,79.5253632 96.1588073,75.8848962 L96.1588073,32.374217 C96.1588073,28.73375 94.2169844,25.3700472 91.0646667,23.5501132" id="Fill-1" fill="#FDDD0E" mask="url(#mask-2)"></path>
                </g>
                <path d="M57.2797031,113.702053 C56.6819427,113.702053 56.0925677,113.543902 55.5750677,113.245572 L17.8999896,91.489633 C16.8488177,90.8827887 16.1953542,89.7511708 16.1953542,88.536883 L16.1953542,45.0262038 C16.1953542,43.811916 16.8488177,42.6796991 17.9005885,42.0722557 L55.5750677,20.3181142 C56.0925677,20.0191849 56.6819427,19.861034 57.2797031,19.861034 C57.8774635,19.861034 58.4668385,20.0191849 58.9843385,20.3181142 L96.6600156,42.0728547 C97.7105885,42.6796991 98.3640521,43.811916 98.3640521,45.0262038 L98.3640521,88.536883 C98.3640521,89.7511708 97.7117865,90.8827887 96.6600156,91.489633 L58.9843385,113.245572 C58.4668385,113.543902 57.8774635,113.702053 57.2797031,113.702053" id="Fill-4" fill="#F9C700"></path>
                <polygon id="Fill-6" fill="#87C740" points="20.262401 88.1567217 20.262401 45.4056462 57.2798229 24.0307075 94.2972448 45.4056462 94.2972448 88.1567217 57.2798229 109.532259"></polygon>
                <path d="M44,85 L44,77 L44,70 L62,70 L62,64 L44,64 L44,57 L70,57 L70,64 L70,74 L70,77 L52,77 L52,83 L70,83 L70,90 L44,90 L44,85 Z" id="Combined-Shape" fill="#FFFFFF"></path>
                <polygon id="Fill-12" fill="#FFFFFF" points="41.1007604 55.576609 41.1007604 42.3829863 37.3884167 42.3829863 37.3884167 38.2500948 48.9920365 38.2500948 48.9920365 42.3829863 45.3264115 42.3829863 45.3264115 55.576609"></polygon>
                <path d="M54.782526,51.699934 L59.2884896,51.699934 L59.2884896,41.9622689 L54.782526,41.9622689 L54.782526,51.699934 Z M50.6491146,55.5764292 L63.3967448,55.5764292 L63.3967448,38.2499151 L50.6491146,38.2499151 L50.6491146,55.5764292 Z" id="Fill-14" fill="#FFFFFF"></path>
                <path d="M70.0285911,41.5657533 L70.0285911,44.6712627 C70.6976276,44.3603524 71.2774193,43.9553901 71.7679661,43.456975 C72.258513,42.959159 72.6508307,42.3283524 72.9473151,41.5657533 L70.0285911,41.5657533 Z M65.8724193,55.5764892 L65.8724193,38.249975 L77.7797109,38.249975 C77.6862734,39.6194184 77.4257266,40.8690505 76.9974714,41.9976731 C76.5698151,43.1262958 76.0133828,44.1267203 75.3281745,44.9983476 C74.6429661,45.8705741 73.8487474,46.6020222 72.9473151,47.193291 C72.043487,47.785159 71.0707786,48.2290599 70.0285911,48.5243948 L70.0285911,55.5764892 L65.8724193,55.5764892 Z" id="Fill-16" fill="#FFFFFF"></path>
                <polygon id="Fill-17" fill="#87C740" points="110.153529 103.755617 113.586758 112.282588 92.3596745 112.282588 92.3596745 95.2615929 113.573581 95.2615929"></polygon>
                <polygon id="Fill-18" fill="#87C740" points="114.559766 114.698044 92.359375 114.698044 92.359375 113.301643 113.997943 113.301643"></polygon>
                <polygon id="Fill-19" fill="#87C740" points="114.559766 92.8131887 113.984167 94.2425377 92.359375 94.2425377 92.359375 92.8131887"></polygon>
                <polygon id="Fill-20" fill="#EEEEEF" points="113.573581 95.2617726 92.3596745 95.2617726 92.3596745 94.2427774 113.984466 94.2427774"></polygon>
                <polygon id="Fill-21" fill="#EEEEEF" points="113.997643 113.301883 92.3596745 113.301883 92.3596745 112.282888 113.586758 112.282888"></polygon>
                <polygon id="Fill-22" fill="#FFFFFF" points="6.77841146 90.0958679 107.780755 90.0958679 107.780755 89.0768726 6.77841146 89.0768726"></polygon>
                <polygon id="Fill-23" fill="#FFFFFF" points="6.77841146 108.136458 107.780755 108.136458 107.780755 107.117462 6.77841146 107.117462"></polygon>
                <g id="Group-4" transform="translate(31.627535, 12.403172) rotate(21.000000) translate(-31.627535, -12.403172) translate(22.627535, 3.403172)">
                    <polygon id="Fill-24" fill="#FDDD0E" points="1.91647917 1.93000377 3.90861458 7.80555094 7.89108854 7.9055934"></polygon>
                    <polygon id="Fill-25" fill="#F9C700" points="3.908375 7.80561085 0.198427083 12.7777807 7.89084896 7.9056533"></polygon>
                    <polygon id="Fill-26" fill="#FDDD0E" points="12.7623568 0.212089151 7.7910026 3.92264575 7.89102865 7.90517406"></polygon>
                    <polygon id="Fill-27" fill="#F9C700" points="7.79082292 3.92258585 1.91623958 1.93012358 7.89084896 7.90511415"></polygon>
                    <polygon id="Fill-28" fill="#FDDD0E" points="0.198546875 12.7776608 6.40076042 12.6985854 7.89096875 7.90553349"></polygon>
                    <polygon id="Fill-29" fill="#F9C700" points="11.8241484 11.8392986 17.7478464 9.99779858 7.89078906 7.90529387"></polygon>
                    <polygon id="Fill-30" fill="#F9C700" points="7.89084896 7.90535377 12.6831146 6.4155 12.7621771 0.212268868"></polygon>
                    <polygon id="Fill-31" fill="#F9C700" points="6.4010599 12.6984057 9.98283073 17.7640283 7.89066927 7.90535377"></polygon>
                    <polygon id="Fill-32" fill="#FDDD0E" points="17.7476068 9.9979783 12.6828151 6.41561981 7.89054948 7.90547358"></polygon>
                    <polygon id="Fill-33" fill="#FDDD0E" points="9.98277083 17.7637887 11.8239688 11.8391189 7.89060938 7.90511415"></polygon>
                </g>
                <g id="Group-4-Copy" transform="translate(82.627535, 12.627535) scale(-1, 1) rotate(21.000000) translate(-82.627535, -12.627535) translate(73.627535, 3.627535)">
                    <polygon id="Fill-24" fill="#FDDD0E" points="1.91647917 1.93000377 3.90861458 7.80555094 7.89108854 7.9055934"></polygon>
                    <polygon id="Fill-25" fill="#F9C700" points="3.908375 7.80561085 0.198427083 12.7777807 7.89084896 7.9056533"></polygon>
                    <polygon id="Fill-26" fill="#FDDD0E" points="12.7623568 0.212089151 7.7910026 3.92264575 7.89102865 7.90517406"></polygon>
                    <polygon id="Fill-27" fill="#F9C700" points="7.79082292 3.92258585 1.91623958 1.93012358 7.89084896 7.90511415"></polygon>
                    <polygon id="Fill-28" fill="#FDDD0E" points="0.198546875 12.7776608 6.40076042 12.6985854 7.89096875 7.90553349"></polygon>
                    <polygon id="Fill-29" fill="#F9C700" points="11.8241484 11.8392986 17.7478464 9.99779858 7.89078906 7.90529387"></polygon>
                    <polygon id="Fill-30" fill="#F9C700" points="7.89084896 7.90535377 12.6831146 6.4155 12.7621771 0.212268868"></polygon>
                    <polygon id="Fill-31" fill="#F9C700" points="6.4010599 12.6984057 9.98283073 17.7640283 7.89066927 7.90535377"></polygon>
                    <polygon id="Fill-32" fill="#FDDD0E" points="17.7476068 9.9979783 12.6828151 6.41561981 7.89054948 7.90547358"></polygon>
                    <polygon id="Fill-33" fill="#FDDD0E" points="9.98277083 17.7637887 11.8239688 11.8391189 7.89060938 7.90511415"></polygon>
                </g>
                <polygon id="Fill-54" fill="#87C740" points="4.40611719 103.755617 0.972888021 112.282588 22.1999714 112.282588 22.1999714 95.2615929 0.986065104 95.2615929"></polygon>
                <polygon id="Fill-55" fill="#87C740" points="-0.000119791667 114.698044 22.2002708 114.698044 22.2002708 113.301643 0.561703125 113.301643"></polygon>
                <polygon id="Fill-56" fill="#87C740" points="-0.000119791667 92.8131887 0.575479167 94.2425377 22.2002708 94.2425377 22.2002708 92.8131887"></polygon>
                <polygon id="Fill-57" fill="#EEEEEF" points="0.986065104 95.2617726 22.1999714 95.2617726 22.1999714 94.2427774 0.575179688 94.2427774"></polygon>
                <polygon id="Fill-58" fill="#EEEEEF" points="0.562002604 113.301883 22.1999714 113.301883 22.1999714 112.282888 0.972888021 112.282888"></polygon>
                <polygon id="Fill-59" fill="#97D453" points="6.77841146 109.532259 107.780755 109.532259 107.780755 87.6475236 6.77841146 87.6475236"></polygon>
                <polygon id="Fill-60" fill="#FFFFFF" points="6.77841146 90.0958679 107.780755 90.0958679 107.780755 89.0768726 6.77841146 89.0768726"></polygon>
                <polygon id="Fill-61" fill="#FFFFFF" points="6.77841146 108.136458 107.780755 108.136458 107.780755 107.117462 6.77841146 107.117462"></polygon>
                <path d="M36.4839896,94.7958264 L36.4839896,97.0476802 C37.067375,97.0476802 37.4758646,97.0069443 37.7100573,96.9260717 C37.94425,96.8446 38.0616458,96.580416 38.0616458,96.1347179 L38.0616458,95.5775953 C38.0616458,95.2571 37.9484427,95.0462321 37.7226354,94.9455906 C37.4962292,94.8455481 37.0835469,94.7958264 36.4839896,94.7958264 Z M31.2958125,93.0627557 L34.968026,93.0627557 C37.4165677,93.0627557 39.0738854,93.1106802 39.9405781,93.2071283 C40.8072708,93.3029774 41.5140417,93.5479915 42.0608906,93.9421708 C42.6065417,94.3357509 42.8802656,94.9647604 42.8802656,95.8280009 C42.8802656,96.6163594 42.6868021,97.1459255 42.300474,97.4166991 C41.9141458,97.6880717 41.1546667,97.8510151 40.0208385,97.9049302 C41.0480521,98.0343264 41.7380521,98.2074538 42.0914375,98.4243123 C42.444224,98.6405717 42.6640417,98.8400575 42.7502917,99.0215717 C42.8365417,99.2024868 42.8802656,99.7021 42.8802656,100.519812 L42.8802656,103.191006 L38.0616458,103.191006 L38.0616458,99.8255057 C38.0616458,99.2833594 37.9771927,98.9472887 37.8088854,98.8178925 C37.6405781,98.6890953 37.1985469,98.6243972 36.4839896,98.6243972 L36.4839896,103.191006 L31.2958125,103.191006 L31.2958125,93.0627557 Z" id="Fill-62" fill="#FFFFFF"></path>
                <path d="M51.1076172,99.5751 C50.8452734,98.4279066 50.5817318,97.0099396 50.3175911,95.3211991 C49.7887109,97.2603453 49.456888,98.6783123 49.3215234,99.5751 L51.1076172,99.5751 Z M53.8574349,93.0627557 L56.8240755,103.191006 L51.5220964,103.191006 L51.2435807,101.370473 L49.3874089,101.370473 L49.0759505,103.191006 L43.7116797,103.191006 L46.3584766,93.0627557 L53.8574349,93.0627557 Z" id="Fill-63" fill="#FFFFFF"></path>
                <polygon id="Fill-64" fill="#FFFFFF" points="69.289237 93.0629953 69.289237 103.190646 64.7419453 103.190646 62.0430391 98.5868962 62.0430391 103.190646 57.7053828 103.190646 57.7053828 93.0629953 62.0430391 93.0629953 64.9509818 97.6236132 64.9509818 93.0629953"></polygon>
                <polygon id="Fill-65" fill="#FFFFFF" points="83.7385677 93.0629953 80.7623438 97.6355943 84.022474 103.190646 78.6611979 103.190646 76.5600521 98.849283 76.5600521 103.190646 71.372474 103.190646 71.372474 93.0629953 76.5600521 93.0629953 76.5600521 96.9975991 78.8708333 93.0629953"></polygon>
            </g>
        </g>
    </g>
</svg>