<?xml version="1.0" encoding="UTF-8"?>
<svg width="115px" height="127px" viewBox="0 0 115 127" version="1.1" xmlns="http://www.w3.org/2000/svg" xmlns:xlink="http://www.w3.org/1999/xlink">
    <!-- Generator: Sketch 49.3 (51167) - http://www.bohemiancoding.com/sketch -->
    <title>Page 1 Copy</title>
    <desc>Created with Sketch.</desc>
    <defs>
        <polygon id="path-1" points="0.432088542 0.429823113 96.1588073 0.429823113 96.1588073 107.830189 0.432088542 107.830189"></polygon>
    </defs>
    <g id="主页&amp;公共" stroke="none" stroke-width="1" fill="none" fill-rule="evenodd">
        <g id="Invite-Copy-2" transform="translate(-1027.000000, -1085.000000)">
            <g id="Page-1-Copy" transform="translate(1027.000000, 1085.000000)">
                <g id="Group-3" transform="translate(8.984375, 18.651627)">
                    <mask id="mask-2" fill="white">
                        <use xlink:href="#path-1"></use>
                    </mask>
                    <g id="Clip-2"></g>
                    <path d="M91.0646667,23.5501132 L53.3895885,1.79477358 C50.2372708,-0.0251603774 46.353625,-0.0251603774 43.2013073,1.79477358 L5.52622917,23.5501132 C2.37391146,25.3700472 0.432088542,28.73375 0.432088542,32.374217 L0.432088542,75.8848962 C0.432088542,79.5253632 2.37391146,82.8896651 5.52622917,84.7095991 L43.2013073,106.464939 C46.353625,108.285472 50.2372708,108.285472 53.3895885,106.464939 L91.0646667,84.7095991 C94.2169844,82.8896651 96.1588073,79.5253632 96.1588073,75.8848962 L96.1588073,32.374217 C96.1588073,28.73375 94.2169844,25.3700472 91.0646667,23.5501132" id="Fill-1" fill="#FDDD0E" mask="url(#mask-2)"></path>
                </g>
                <path d="M57.2797031,119.702053 C56.6819427,119.702053 56.0925677,119.543902 55.5750677,119.245572 L17.8999896,97.489633 C16.8488177,96.8827887 16.1953542,95.7511708 16.1953542,94.536883 L16.1953542,51.0262038 C16.1953542,49.811916 16.8488177,48.6796991 17.9005885,48.0722557 L55.5750677,26.3181142 C56.0925677,26.0191849 56.6819427,25.861034 57.2797031,25.861034 C57.8774635,25.861034 58.4668385,26.0191849 58.9843385,26.3181142 L96.6600156,48.0728547 C97.7105885,48.6796991 98.3640521,49.811916 98.3640521,51.0262038 L98.3640521,94.536883 C98.3640521,95.7511708 97.7117865,96.8827887 96.6600156,97.489633 L58.9843385,119.245572 C58.4668385,119.543902 57.8774635,119.702053 57.2797031,119.702053" id="Fill-4" fill="#F9C700"></path>
                <polygon id="Fill-6" fill="#5AADEB" points="20.262401 94.1567217 20.262401 51.4056462 57.2798229 30.0307075 94.2972448 51.4056462 94.2972448 94.1567217 57.2798229 115.532259"></polygon>
                <path d="M62,89 L62,83 L44,83 L44,76 L62,76 L62,70 L44,70 L44,63 L70,63 L70,70 L70,80 L70,83 L70,91 L70,96 L44,96 L44,89 L62,89 Z" id="Combined-Shape" fill="#FFFFFF"></path>
                <polygon id="Fill-12" fill="#FFFFFF" points="41.1007604 61.576609 41.1007604 48.3829863 37.3884167 48.3829863 37.3884167 44.2500948 48.9920365 44.2500948 48.9920365 48.3829863 45.3264115 48.3829863 45.3264115 61.576609"></polygon>
                <path d="M54.782526,57.699934 L59.2884896,57.699934 L59.2884896,47.9622689 L54.782526,47.9622689 L54.782526,57.699934 Z M50.6491146,61.5764292 L63.3967448,61.5764292 L63.3967448,44.2499151 L50.6491146,44.2499151 L50.6491146,61.5764292 Z" id="Fill-14" fill="#FFFFFF"></path>
                <path d="M70.0285911,47.5657533 L70.0285911,50.6712627 C70.6976276,50.3603524 71.2774193,49.9553901 71.7679661,49.456975 C72.258513,48.959159 72.6508307,48.3283524 72.9473151,47.5657533 L70.0285911,47.5657533 Z M65.8724193,61.5764892 L65.8724193,44.249975 L77.7797109,44.249975 C77.6862734,45.6194184 77.4257266,46.8690505 76.9974714,47.9976731 C76.5698151,49.1262958 76.0133828,50.1267203 75.3281745,50.9983476 C74.6429661,51.8705741 73.8487474,52.6020222 72.9473151,53.193291 C72.043487,53.785159 71.0707786,54.2290599 70.0285911,54.5243948 L70.0285911,61.5764892 L65.8724193,61.5764892 Z" id="Fill-16" fill="#FFFFFF"></path>
                <polygon id="Fill-17" fill="#44B0E5" points="110.153529 109.755617 113.586758 118.282588 92.3596745 118.282588 92.3596745 101.261593 113.573581 101.261593"></polygon>
                <polygon id="Fill-18" fill="#44B0E5" points="114.559766 120.698044 92.359375 120.698044 92.359375 119.301643 113.997943 119.301643"></polygon>
                <polygon id="Fill-19" fill="#44B0E5" points="114.559766 98.8131887 113.984167 100.242538 92.359375 100.242538 92.359375 98.8131887"></polygon>
                <polygon id="Fill-20" fill="#EEEEEF" points="113.573581 101.261773 92.3596745 101.261773 92.3596745 100.242777 113.984466 100.242777"></polygon>
                <polygon id="Fill-21" fill="#EEEEEF" points="113.997643 119.301883 92.3596745 119.301883 92.3596745 118.282888 113.586758 118.282888"></polygon>
                <polygon id="Fill-22" fill="#FFFFFF" points="6.77841146 96.0958679 107.780755 96.0958679 107.780755 95.0768726 6.77841146 95.0768726"></polygon>
                <polygon id="Fill-23" fill="#FFFFFF" points="6.77841146 114.136458 107.780755 114.136458 107.780755 113.117462 6.77841146 113.117462"></polygon>
                <polygon id="Fill-34" fill="#FDDD0E" points="58.047388 -0.000179716981 60.7924141 5.56325896 58.047388 8.45011274"></polygon>
                <polygon id="Fill-35" fill="#F9C700" points="60.7927135 5.56337877 66.9314375 6.45537406 58.0476875 8.45023255"></polygon>
                <polygon id="Fill-36" fill="#FDDD0E" points="49.163638 6.45549387 55.302362 5.56349858 58.047388 8.45035236"></polygon>
                <polygon id="Fill-37" fill="#F9C700" points="55.3020625 5.56337877 58.0470885 -5.99056604e-05 58.0470885 8.45023255"></polygon>
                <polygon id="Fill-38" fill="#FDDD0E" points="66.931138 6.45549387 62.489263 10.7860741 58.047388 8.45035236"></polygon>
                <polygon id="Fill-39" fill="#F9C700" points="58.047388 14.0136113 52.556737 16.9004651 58.047388 8.45017264"></polygon>
                <polygon id="Fill-40" fill="#F9C700" points="58.047388 8.45041226 53.605513 10.7855349 49.163638 6.45555377"></polygon>
                <polygon id="Fill-41" fill="#F9C700" points="62.489263 10.7857745 63.5380391 16.9009443 58.047388 8.45065189"></polygon>
                <polygon id="Fill-42" fill="#FDDD0E" points="52.5570365 16.9006448 53.6052135 10.785475 58.0476875 8.45035236"></polygon>
                <polygon id="Fill-43" fill="#FDDD0E" points="63.5380391 16.9006448 58.047388 14.013791 58.047388 8.45035236"></polygon>
                <polygon id="Fill-54" fill="#44B0E5" points="4.40611719 109.755617 0.972888021 118.282588 22.1999714 118.282588 22.1999714 101.261593 0.986065104 101.261593"></polygon>
                <polygon id="Fill-55" fill="#44B0E5" points="-0.000119791667 120.698044 22.2002708 120.698044 22.2002708 119.301643 0.561703125 119.301643"></polygon>
                <polygon id="Fill-56" fill="#44B0E5" points="-0.000119791667 98.8131887 0.575479167 100.242538 22.2002708 100.242538 22.2002708 98.8131887"></polygon>
                <polygon id="Fill-57" fill="#EEEEEF" points="0.986065104 101.261773 22.1999714 101.261773 22.1999714 100.242777 0.575179688 100.242777"></polygon>
                <polygon id="Fill-58" fill="#EEEEEF" points="0.562002604 119.301883 22.1999714 119.301883 22.1999714 118.282888 0.972888021 118.282888"></polygon>
                <polygon id="Fill-59" fill="#66C1ED" points="6.77841146 115.532259 107.780755 115.532259 107.780755 93.6475236 6.77841146 93.6475236"></polygon>
                <polygon id="Fill-60" fill="#FFFFFF" points="6.77841146 96.0958679 107.780755 96.0958679 107.780755 95.0768726 6.77841146 95.0768726"></polygon>
                <polygon id="Fill-61" fill="#FFFFFF" points="6.77841146 114.136458 107.780755 114.136458 107.780755 113.117462 6.77841146 113.117462"></polygon>
                <path d="M36.4839896,100.795826 L36.4839896,103.04768 C37.067375,103.04768 37.4758646,103.006944 37.7100573,102.926072 C37.94425,102.8446 38.0616458,102.580416 38.0616458,102.134718 L38.0616458,101.577595 C38.0616458,101.2571 37.9484427,101.046232 37.7226354,100.945591 C37.4962292,100.845548 37.0835469,100.795826 36.4839896,100.795826 Z M31.2958125,99.0627557 L34.968026,99.0627557 C37.4165677,99.0627557 39.0738854,99.1106802 39.9405781,99.2071283 C40.8072708,99.3029774 41.5140417,99.5479915 42.0608906,99.9421708 C42.6065417,100.335751 42.8802656,100.96476 42.8802656,101.828001 C42.8802656,102.616359 42.6868021,103.145925 42.300474,103.416699 C41.9141458,103.688072 41.1546667,103.851015 40.0208385,103.90493 C41.0480521,104.034326 41.7380521,104.207454 42.0914375,104.424312 C42.444224,104.640572 42.6640417,104.840058 42.7502917,105.021572 C42.8365417,105.202487 42.8802656,105.7021 42.8802656,106.519812 L42.8802656,109.191006 L38.0616458,109.191006 L38.0616458,105.825506 C38.0616458,105.283359 37.9771927,104.947289 37.8088854,104.817892 C37.6405781,104.689095 37.1985469,104.624397 36.4839896,104.624397 L36.4839896,109.191006 L31.2958125,109.191006 L31.2958125,99.0627557 Z" id="Fill-62" fill="#FFFFFF"></path>
                <path d="M51.1076172,105.5751 C50.8452734,104.427907 50.5817318,103.00994 50.3175911,101.321199 C49.7887109,103.260345 49.456888,104.678312 49.3215234,105.5751 L51.1076172,105.5751 Z M53.8574349,99.0627557 L56.8240755,109.191006 L51.5220964,109.191006 L51.2435807,107.370473 L49.3874089,107.370473 L49.0759505,109.191006 L43.7116797,109.191006 L46.3584766,99.0627557 L53.8574349,99.0627557 Z" id="Fill-63" fill="#FFFFFF"></path>
                <polygon id="Fill-64" fill="#FFFFFF" points="69.289237 99.0629953 69.289237 109.190646 64.7419453 109.190646 62.0430391 104.586896 62.0430391 109.190646 57.7053828 109.190646 57.7053828 99.0629953 62.0430391 99.0629953 64.9509818 103.623613 64.9509818 99.0629953"></polygon>
                <polygon id="Fill-65" fill="#FFFFFF" points="83.7385677 99.0629953 80.7623438 103.635594 84.022474 109.190646 78.6611979 109.190646 76.5600521 104.849283 76.5600521 109.190646 71.372474 109.190646 71.372474 99.0629953 76.5600521 99.0629953 76.5600521 102.997599 78.8708333 99.0629953"></polygon>
            </g>
        </g>
    </g>
</svg>